<svg width="32" height="32" viewBox="0 0 32 32" fill="none" xmlns="http://www.w3.org/2000/svg">
<g clip-path="url(#clip0_2934_925)">
<path d="M32.0005 15.9991L28.3779 11.9771L28.9451 6.59269L23.648 5.47132L20.9459 0.777344L16.0005 2.9876L15.333 15.9991L16.0005 29.0106L20.946 31.2208L23.648 26.5269L28.9451 25.4055L28.3779 20.021L32.0005 15.9991Z" fill="#0ED678"/>
<path d="M11.0545 0.777344L8.35251 5.47132L3.05535 6.59276L3.62255 11.9771L0 15.9991L3.62255 20.021L3.05535 25.4055L8.35251 26.5269L11.0546 31.2208L16 29.0106V2.9876L11.0545 0.777344Z" fill="#04EB84"/>
<path d="M22.708 12.4962L21.3074 11.2461L16.0004 17.1919L15.3329 18.6695L16.0004 20.011L22.708 12.4962Z" fill="#F7F0EB"/>
<path d="M10.4231 14.5859L9.0957 15.9134L14.6766 21.4943L16.0004 20.0112V17.192L14.5991 18.7619L10.4231 14.5859Z" fill="#FFFBF5"/>
</g>
<defs>
<clipPath id="clip0_2934_925">
<rect width="32" height="32" fill="white"/>
</clipPath>
</defs>
</svg>
