<svg width="163" height="213" viewBox="0 0 163 213" fill="none" xmlns="http://www.w3.org/2000/svg">
<g filter="url(#filter0_f_5043_4217)">
<rect x="10" y="10" width="143" height="193" fill="white"/>
<rect x="10.5" y="10.5" width="142" height="192" stroke="#F5F5F5"/>
<rect x="17" y="20" width="9" height="9" fill="#825757"/>
<path d="M39.4929 22.7827C39.4588 22.4389 39.3125 22.1719 39.054 21.9815C38.7955 21.7912 38.4446 21.696 38.0014 21.696C37.7003 21.696 37.446 21.7386 37.2386 21.8239C37.0313 21.9062 36.8722 22.0213 36.7614 22.169C36.6534 22.3168 36.5994 22.4844 36.5994 22.6719C36.5938 22.8281 36.6264 22.9645 36.6974 23.081C36.7713 23.1974 36.8722 23.2983 37 23.3835C37.1278 23.4659 37.2756 23.5384 37.4432 23.6009C37.6108 23.6605 37.7898 23.7116 37.9801 23.7543L38.7642 23.9418C39.1449 24.027 39.4943 24.1406 39.8125 24.2827C40.1307 24.4247 40.4063 24.5994 40.6392 24.8068C40.8722 25.0142 41.0526 25.2585 41.1804 25.5398C41.3111 25.821 41.3778 26.1435 41.3807 26.5071C41.3778 27.0412 41.2415 27.5043 40.9716 27.8963C40.7045 28.2855 40.3182 28.5881 39.8125 28.804C39.3097 29.017 38.7031 29.1236 37.9929 29.1236C37.2884 29.1236 36.6747 29.0156 36.152 28.7997C35.6321 28.5838 35.2259 28.2642 34.9332 27.8409C34.6435 27.4148 34.4915 26.8878 34.4773 26.2599H36.2628C36.2827 26.5526 36.3665 26.7969 36.5142 26.9929C36.6648 27.1861 36.8651 27.3324 37.1151 27.4318C37.3679 27.5284 37.6534 27.5767 37.9716 27.5767C38.2841 27.5767 38.5554 27.5312 38.7855 27.4403C39.0185 27.3494 39.1989 27.223 39.3267 27.0611C39.4545 26.8991 39.5185 26.7131 39.5185 26.5028C39.5185 26.3068 39.4602 26.142 39.3438 26.0085C39.2301 25.875 39.0625 25.7614 38.8409 25.6676C38.6222 25.5739 38.3537 25.4886 38.0355 25.4119L37.0852 25.1733C36.3494 24.9943 35.7685 24.7145 35.3423 24.3338C34.9162 23.9531 34.7045 23.4403 34.7074 22.7955C34.7045 22.267 34.8452 21.8054 35.1293 21.4105C35.4162 21.0156 35.8097 20.7074 36.3097 20.4858C36.8097 20.2642 37.3778 20.1534 38.0142 20.1534C38.6619 20.1534 39.2273 20.2642 39.7102 20.4858C40.196 20.7074 40.5739 21.0156 40.8438 21.4105C41.1136 21.8054 41.2528 22.2628 41.2614 22.7827H39.4929ZM43.4441 31.4545C43.214 31.4545 42.9981 31.4361 42.7964 31.3991C42.5975 31.3651 42.4328 31.321 42.3021 31.267L42.7112 29.9119C42.9242 29.9773 43.116 30.0128 43.2865 30.0185C43.4598 30.0241 43.6089 29.9844 43.7339 29.8991C43.8617 29.8139 43.9654 29.669 44.045 29.4645L44.1515 29.1875L41.8035 22.4545H43.7126L45.0677 27.2614H45.1359L46.5038 22.4545H48.4257L45.8816 29.7074C45.7595 30.0597 45.5933 30.3665 45.383 30.6278C45.1757 30.892 44.9129 31.0952 44.5947 31.2372C44.2765 31.3821 43.893 31.4545 43.4441 31.4545ZM50.9057 25.2159V29H49.0903V22.4545H50.8204V23.6094H50.8971C51.042 23.2287 51.2849 22.9276 51.6258 22.706C51.9667 22.4815 52.3801 22.3693 52.8659 22.3693C53.3204 22.3693 53.7167 22.4688 54.0548 22.6676C54.3929 22.8665 54.6557 23.1506 54.8432 23.5199C55.0307 23.8864 55.1244 24.3239 55.1244 24.8324V29H53.3091V25.1562C53.3119 24.7557 53.2096 24.4432 53.0022 24.2188C52.7949 23.9915 52.5094 23.8778 52.1457 23.8778C51.9014 23.8778 51.6855 23.9304 51.498 24.0355C51.3133 24.1406 51.1684 24.294 51.0633 24.4957C50.9611 24.6946 50.9085 24.9347 50.9057 25.2159ZM59.7724 22.4545V23.8182H55.8306V22.4545H59.7724ZM56.7255 20.8864H58.5408V26.9886C58.5408 27.1562 58.5664 27.2869 58.6175 27.3807C58.6687 27.4716 58.7397 27.5355 58.8306 27.5724C58.9244 27.6094 59.0323 27.6278 59.1545 27.6278C59.2397 27.6278 59.3249 27.6207 59.4102 27.6065C59.4954 27.5895 59.5607 27.5767 59.6062 27.5682L59.8917 28.919C59.8008 28.9474 59.6729 28.9801 59.5082 29.017C59.3434 29.0568 59.1431 29.081 58.9073 29.0895C58.4698 29.1065 58.0863 29.0483 57.7567 28.9148C57.43 28.7812 57.1758 28.5739 56.994 28.2926C56.8121 28.0114 56.7227 27.6562 56.7255 27.2273V20.8864ZM62.6465 25.2159V29H60.8312V20.2727H62.5954V23.6094H62.6721C62.8198 23.223 63.0585 22.9205 63.388 22.7017C63.7176 22.4801 64.1309 22.3693 64.6281 22.3693C65.0826 22.3693 65.4789 22.4688 65.817 22.6676C66.1579 22.8636 66.4221 23.1463 66.6096 23.5156C66.8 23.8821 66.8937 24.321 66.8909 24.8324V29H65.0755V25.1562C65.0784 24.7528 64.9761 24.4389 64.7687 24.2145C64.5642 23.9901 64.2772 23.8778 63.9079 23.8778C63.6607 23.8778 63.442 23.9304 63.2517 24.0355C63.0642 24.1406 62.9164 24.294 62.8085 24.4957C62.7034 24.6946 62.6494 24.9347 62.6465 25.2159ZM71.0381 29.1278C70.3648 29.1278 69.7853 28.9915 69.2995 28.7188C68.8165 28.4432 68.4444 28.054 68.183 27.5511C67.9216 27.0455 67.791 26.4474 67.791 25.7571C67.791 25.0838 67.9216 24.4929 68.183 23.9844C68.4444 23.4759 68.8123 23.0795 69.2867 22.7955C69.764 22.5114 70.3236 22.3693 70.9657 22.3693C71.3975 22.3693 71.7995 22.4389 72.1716 22.5781C72.5466 22.7145 72.8733 22.9205 73.1517 23.196C73.433 23.4716 73.6517 23.8182 73.808 24.2358C73.9642 24.6506 74.0424 25.1364 74.0424 25.6932V26.1918H68.5154V25.0668H72.3336C72.3336 24.8054 72.2767 24.5739 72.1631 24.3722C72.0495 24.1705 71.8918 24.0128 71.6901 23.8991C71.4912 23.7827 71.2597 23.7244 70.9955 23.7244C70.7199 23.7244 70.4756 23.7884 70.2625 23.9162C70.0523 24.0412 69.8875 24.2102 69.7682 24.4233C69.6489 24.6335 69.5878 24.8679 69.585 25.1264V26.196C69.585 26.5199 69.6446 26.7997 69.764 27.0355C69.8861 27.2713 70.058 27.4531 70.2796 27.581C70.5012 27.7088 70.764 27.7727 71.0679 27.7727C71.2696 27.7727 71.4543 27.7443 71.6219 27.6875C71.7895 27.6307 71.933 27.5455 72.0523 27.4318C72.1716 27.3182 72.2625 27.179 72.325 27.0142L74.004 27.125C73.9188 27.5284 73.7441 27.8807 73.4799 28.1818C73.2185 28.4801 72.8804 28.7131 72.4657 28.8807C72.0537 29.0455 71.5779 29.1278 71.0381 29.1278ZM80.4087 24.321L78.7468 24.4233C78.7184 24.2812 78.6573 24.1534 78.5636 24.0398C78.4698 23.9233 78.3462 23.831 78.1928 23.7628C78.0423 23.6918 77.8619 23.6562 77.6516 23.6562C77.3704 23.6562 77.1332 23.7159 76.94 23.8352C76.7468 23.9517 76.6502 24.108 76.6502 24.304C76.6502 24.4602 76.7127 24.5923 76.8377 24.7003C76.9627 24.8082 77.1772 24.8949 77.4812 24.9602L78.6658 25.1989C79.3022 25.3295 79.7766 25.5398 80.0891 25.8295C80.4016 26.1193 80.5579 26.5 80.5579 26.9716C80.5579 27.4006 80.4315 27.777 80.1786 28.1009C79.9286 28.4247 79.5849 28.6776 79.1474 28.8594C78.7127 29.0384 78.2113 29.1278 77.6431 29.1278C76.7766 29.1278 76.0863 28.9474 75.5721 28.5866C75.0607 28.223 74.761 27.7287 74.6729 27.1037L76.4585 27.0099C76.5124 27.2741 76.6431 27.4759 76.8505 27.6151C77.0579 27.7514 77.3235 27.8196 77.6474 27.8196C77.9656 27.8196 78.2212 27.7585 78.4144 27.6364C78.6104 27.5114 78.7099 27.3509 78.7127 27.1548C78.7099 26.9901 78.6403 26.8551 78.5039 26.75C78.3675 26.642 78.1573 26.5597 77.8732 26.5028L76.7397 26.277C76.1005 26.1491 75.6246 25.9276 75.3121 25.6122C75.0025 25.2969 74.8477 24.8949 74.8477 24.4062C74.8477 23.9858 74.9613 23.6236 75.1886 23.3196C75.4187 23.0156 75.7411 22.7812 76.1559 22.6165C76.5735 22.4517 77.0621 22.3693 77.6218 22.3693C78.4485 22.3693 79.0991 22.544 79.5735 22.8935C80.0508 23.2429 80.3292 23.7187 80.4087 24.321ZM81.4367 29V22.4545H83.252V29H81.4367ZM82.3486 21.6108C82.0787 21.6108 81.8472 21.5213 81.654 21.3423C81.4637 21.1605 81.3685 20.9432 81.3685 20.6903C81.3685 20.4403 81.4637 20.2259 81.654 20.0469C81.8472 19.8651 82.0787 19.7741 82.3486 19.7741C82.6185 19.7741 82.8486 19.8651 83.0389 20.0469C83.2321 20.2259 83.3287 20.4403 83.3287 20.6903C83.3287 20.9432 83.2321 21.1605 83.0389 21.3423C82.8486 21.5213 82.6185 21.6108 82.3486 21.6108ZM89.8879 24.321L88.226 24.4233C88.1976 24.2812 88.1365 24.1534 88.0427 24.0398C87.949 23.9233 87.8254 23.831 87.672 23.7628C87.5214 23.6918 87.341 23.6562 87.1308 23.6562C86.8495 23.6562 86.6123 23.7159 86.4191 23.8352C86.226 23.9517 86.1294 24.108 86.1294 24.304C86.1294 24.4602 86.1919 24.5923 86.3169 24.7003C86.4419 24.8082 86.6564 24.8949 86.9603 24.9602L88.145 25.1989C88.7814 25.3295 89.2558 25.5398 89.5683 25.8295C89.8808 26.1193 90.037 26.5 90.037 26.9716C90.037 27.4006 89.9106 27.777 89.6578 28.1009C89.4078 28.4247 89.064 28.6776 88.6265 28.8594C88.1919 29.0384 87.6905 29.1278 87.1223 29.1278C86.2558 29.1278 85.5655 28.9474 85.0513 28.5866C84.5399 28.223 84.2402 27.7287 84.1521 27.1037L85.9376 27.0099C85.9916 27.2741 86.1223 27.4759 86.3297 27.6151C86.537 27.7514 86.8027 27.8196 87.1265 27.8196C87.4447 27.8196 87.7004 27.7585 87.8936 27.6364C88.0896 27.5114 88.189 27.3509 88.1919 27.1548C88.189 26.9901 88.1194 26.8551 87.9831 26.75C87.8467 26.642 87.6365 26.5597 87.3524 26.5028L86.2189 26.277C85.5797 26.1491 85.1038 25.9276 84.7913 25.6122C84.4816 25.2969 84.3268 24.8949 84.3268 24.4062C84.3268 23.9858 84.4405 23.6236 84.6677 23.3196C84.8978 23.0156 85.2203 22.7812 85.6351 22.6165C86.0527 22.4517 86.5413 22.3693 87.101 22.3693C87.9277 22.3693 88.5782 22.544 89.0527 22.8935C89.5299 23.2429 89.8084 23.7187 89.8879 24.321Z" fill="black"/>
<path d="M35.0568 44.2727H36.3182L39.2841 51.517H39.3864L42.3523 44.2727H43.6136V53H42.625V46.3693H42.5398L39.8125 53H38.858L36.1307 46.3693H36.0455V53H35.0568V44.2727ZM47.5224 53.1534C47.1076 53.1534 46.7312 53.0753 46.3931 52.919C46.055 52.7599 45.7866 52.5312 45.5877 52.233C45.3888 51.9318 45.2894 51.5682 45.2894 51.142C45.2894 50.767 45.3633 50.4631 45.511 50.2301C45.6587 49.9943 45.8562 49.8097 46.1033 49.6761C46.3505 49.5426 46.6232 49.4432 46.9215 49.3778C47.2227 49.3097 47.5252 49.2557 47.8292 49.2159C48.2269 49.1648 48.5494 49.1264 48.7965 49.1009C49.0465 49.0724 49.2283 49.0256 49.342 48.9602C49.4585 48.8949 49.5167 48.7812 49.5167 48.6193V48.5852C49.5167 48.1648 49.4016 47.8381 49.1715 47.6051C48.9442 47.3722 48.5991 47.2557 48.136 47.2557C47.6559 47.2557 47.2795 47.3608 47.0067 47.571C46.734 47.7812 46.5423 48.0057 46.4315 48.2443L45.4769 47.9034C45.6474 47.5057 45.8746 47.196 46.1587 46.9744C46.4457 46.75 46.7582 46.5937 47.0962 46.5057C47.4371 46.4148 47.7724 46.3693 48.1019 46.3693C48.3121 46.3693 48.5536 46.3949 48.8263 46.446C49.1019 46.4943 49.3675 46.5952 49.6232 46.7486C49.8817 46.902 50.0962 47.1335 50.2667 47.4432C50.4371 47.7528 50.5224 48.1676 50.5224 48.6875V53H49.5167V52.1136H49.4656C49.3974 52.2557 49.2837 52.4077 49.1246 52.5696C48.9656 52.7315 48.7539 52.8693 48.4897 52.983C48.2255 53.0966 47.9031 53.1534 47.5224 53.1534ZM47.6758 52.25C48.0735 52.25 48.4087 52.1719 48.6815 52.0156C48.957 51.8594 49.1644 51.6577 49.3036 51.4105C49.4457 51.1634 49.5167 50.9034 49.5167 50.6307V49.7102C49.4741 49.7614 49.3803 49.8082 49.2354 49.8509C49.0934 49.8906 48.9286 49.9261 48.7411 49.9574C48.5565 49.9858 48.3761 50.0114 48.1999 50.0341C48.0266 50.054 47.886 50.071 47.7781 50.0852C47.5167 50.1193 47.2724 50.1747 47.0451 50.2514C46.8207 50.3253 46.6388 50.4375 46.4996 50.5881C46.3633 50.7358 46.2951 50.9375 46.2951 51.1932C46.2951 51.5426 46.4244 51.8068 46.6829 51.9858C46.9442 52.1619 47.2752 52.25 47.6758 52.25ZM53.108 46.4545L54.6761 49.1307L56.2443 46.4545H57.4034L55.2898 49.7273L57.4034 53H56.2443L54.6761 50.4602L53.108 53H51.9489L54.0284 49.7273L51.9489 46.4545H53.108ZM58.8384 53V46.4545H59.8441V53H58.8384ZM59.3498 45.3636C59.1538 45.3636 58.9847 45.2969 58.8427 45.1634C58.7035 45.0298 58.6339 44.8693 58.6339 44.6818C58.6339 44.4943 58.7035 44.3338 58.8427 44.2003C58.9847 44.0668 59.1538 44 59.3498 44C59.5458 44 59.7134 44.0668 59.8526 44.2003C59.9947 44.3338 60.0657 44.4943 60.0657 44.6818C60.0657 44.8693 59.9947 45.0298 59.8526 45.1634C59.7134 45.2969 59.5458 45.3636 59.3498 45.3636ZM61.6861 53V46.4545H62.6577V47.4773H62.7429C62.8793 47.1278 63.0994 46.8565 63.4034 46.6634C63.7074 46.4673 64.0724 46.3693 64.4986 46.3693C64.9304 46.3693 65.2898 46.4673 65.5767 46.6634C65.8665 46.8565 66.0923 47.1278 66.2543 47.4773H66.3224C66.4901 47.1392 66.7415 46.8707 67.0767 46.6719C67.4119 46.4702 67.8139 46.3693 68.2827 46.3693C68.8679 46.3693 69.3466 46.5526 69.7188 46.919C70.0909 47.2827 70.277 47.8494 70.277 48.6193V53H69.2713V48.6193C69.2713 48.1364 69.1392 47.7912 68.875 47.5838C68.6108 47.3764 68.2997 47.2727 67.9418 47.2727C67.4815 47.2727 67.125 47.4119 66.8722 47.6903C66.6193 47.9659 66.4929 48.3153 66.4929 48.7386V53H65.4702V48.517C65.4702 48.1449 65.3494 47.8452 65.108 47.6179C64.8665 47.3878 64.5554 47.2727 64.1747 47.2727C63.9134 47.2727 63.669 47.3423 63.4418 47.4815C63.2173 47.6207 63.0355 47.8139 62.8963 48.0611C62.7599 48.3054 62.6918 48.5881 62.6918 48.9091V53H61.6861ZM72.1158 53V46.4545H73.1214V53H72.1158ZM72.6271 45.3636C72.4311 45.3636 72.2621 45.2969 72.12 45.1634C71.9808 45.0298 71.9112 44.8693 71.9112 44.6818C71.9112 44.4943 71.9808 44.3338 72.12 44.2003C72.2621 44.0668 72.4311 44 72.6271 44C72.8232 44 72.9908 44.0668 73.13 44.2003C73.272 44.3338 73.343 44.4943 73.343 44.6818C73.343 44.8693 73.272 45.0298 73.13 45.1634C72.9908 45.2969 72.8232 45.3636 72.6271 45.3636ZM74.7759 53V52.233L78.4918 47.4602V47.392H74.8952V46.4545H79.7873V47.2557L76.1737 51.9943V52.0625H79.9066V53H74.7759ZM84.0124 53.1364C83.3817 53.1364 82.8377 52.9972 82.3803 52.7188C81.9258 52.4375 81.5749 52.0455 81.3278 51.5426C81.0835 51.0369 80.9613 50.4489 80.9613 49.7784C80.9613 49.108 81.0835 48.517 81.3278 48.0057C81.5749 47.4915 81.9187 47.0909 82.359 46.804C82.8022 46.5142 83.3192 46.3693 83.9102 46.3693C84.2511 46.3693 84.5877 46.4261 84.9201 46.5398C85.2525 46.6534 85.555 46.8381 85.8278 47.0938C86.1005 47.3466 86.3178 47.6818 86.4798 48.0994C86.6417 48.517 86.7227 49.0312 86.7227 49.642V50.0682H81.6772V49.1989H85.6999C85.6999 48.8295 85.6261 48.5 85.4783 48.2102C85.3335 47.9205 85.1261 47.6918 84.8562 47.5241C84.5891 47.3565 84.2738 47.2727 83.9102 47.2727C83.5096 47.2727 83.163 47.3722 82.8704 47.571C82.5806 47.767 82.3576 48.0227 82.2013 48.3381C82.0451 48.6534 81.967 48.9915 81.967 49.3523V49.9318C81.967 50.4261 82.0522 50.8452 82.2227 51.1889C82.396 51.5298 82.636 51.7898 82.9428 51.9688C83.2496 52.1449 83.6062 52.233 84.0124 52.233C84.2766 52.233 84.5153 52.196 84.7283 52.1222C84.9442 52.0455 85.1303 51.9318 85.2866 51.7812C85.4428 51.6278 85.5636 51.4375 85.6488 51.2102L86.6204 51.483C86.5181 51.8125 86.3462 52.1023 86.1048 52.3523C85.8633 52.5994 85.565 52.7926 85.2099 52.9318C84.8548 53.0682 84.4556 53.1364 84.0124 53.1364ZM34.9205 70.4545V61.4545H35.892V62.4943H36.0114C36.0852 62.3807 36.1875 62.2358 36.3182 62.0597C36.4517 61.8807 36.642 61.7216 36.8892 61.5824C37.1392 61.4403 37.4773 61.3693 37.9034 61.3693C38.4545 61.3693 38.9403 61.5071 39.3608 61.7827C39.7813 62.0582 40.1094 62.4489 40.3452 62.9545C40.581 63.4602 40.6989 64.0568 40.6989 64.7443C40.6989 65.4375 40.581 66.0384 40.3452 66.5469C40.1094 67.0526 39.7827 67.4446 39.3651 67.723C38.9474 67.9986 38.4659 68.1364 37.9205 68.1364C37.5 68.1364 37.1634 68.0668 36.9105 67.9276C36.6577 67.7855 36.4631 67.625 36.3267 67.446C36.1903 67.2642 36.0852 67.1136 36.0114 66.9943H35.9261V70.4545H34.9205ZM35.9091 64.7273C35.9091 65.2216 35.9815 65.6577 36.1264 66.0355C36.2713 66.4105 36.483 66.7045 36.7614 66.9176C37.0398 67.1278 37.3807 67.233 37.7841 67.233C38.2045 67.233 38.5554 67.1222 38.8366 66.9006C39.1207 66.6761 39.3338 66.375 39.4759 65.9972C39.6207 65.6165 39.6932 65.1932 39.6932 64.7273C39.6932 64.267 39.6222 63.8523 39.4801 63.483C39.3409 63.1108 39.1293 62.8168 38.8452 62.6009C38.5639 62.3821 38.2102 62.2727 37.7841 62.2727C37.375 62.2727 37.0313 62.3764 36.7528 62.5838C36.4744 62.7884 36.2642 63.0753 36.1222 63.4446C35.9801 63.8111 35.9091 64.2386 35.9091 64.7273ZM42.233 68V61.4545H43.2045V62.4432H43.2727C43.392 62.1193 43.608 61.8565 43.9205 61.6548C44.233 61.4531 44.5852 61.3523 44.9773 61.3523C45.0511 61.3523 45.1435 61.3537 45.2543 61.3565C45.3651 61.3594 45.4489 61.3636 45.5057 61.3693V62.392C45.4716 62.3835 45.3935 62.3707 45.2713 62.3537C45.152 62.3338 45.0256 62.3239 44.892 62.3239C44.5739 62.3239 44.2898 62.3906 44.0398 62.5241C43.7926 62.6548 43.5966 62.8366 43.4517 63.0696C43.3097 63.2997 43.2386 63.5625 43.2386 63.858V68H42.233ZM49.1577 68.1364C48.5668 68.1364 48.0483 67.9957 47.6023 67.7145C47.1591 67.4332 46.8125 67.0398 46.5625 66.5341C46.3153 66.0284 46.1918 65.4375 46.1918 64.7614C46.1918 64.0795 46.3153 63.4844 46.5625 62.9759C46.8125 62.4673 47.1591 62.0724 47.6023 61.7912C48.0483 61.5099 48.5668 61.3693 49.1577 61.3693C49.7486 61.3693 50.2656 61.5099 50.7088 61.7912C51.1548 62.0724 51.5014 62.4673 51.7486 62.9759C51.9986 63.4844 52.1236 64.0795 52.1236 64.7614C52.1236 65.4375 51.9986 66.0284 51.7486 66.5341C51.5014 67.0398 51.1548 67.4332 50.7088 67.7145C50.2656 67.9957 49.7486 68.1364 49.1577 68.1364ZM49.1577 67.233C49.6065 67.233 49.9759 67.1179 50.2656 66.8878C50.5554 66.6577 50.7699 66.3551 50.9091 65.9801C51.0483 65.6051 51.1179 65.1989 51.1179 64.7614C51.1179 64.3239 51.0483 63.9162 50.9091 63.5384C50.7699 63.1605 50.5554 62.8551 50.2656 62.6222C49.9759 62.3892 49.6065 62.2727 49.1577 62.2727C48.7088 62.2727 48.3395 62.3892 48.0497 62.6222C47.7599 62.8551 47.5455 63.1605 47.4062 63.5384C47.267 63.9162 47.1974 64.3239 47.1974 64.7614C47.1974 65.1989 47.267 65.6051 47.4062 65.9801C47.5455 66.3551 47.7599 66.6577 48.0497 66.8878C48.3395 67.1179 48.7088 67.233 49.1577 67.233ZM56.1303 68.1364C55.5849 68.1364 55.1033 67.9986 54.6857 67.723C54.2681 67.4446 53.9414 67.0526 53.7056 66.5469C53.4698 66.0384 53.3519 65.4375 53.3519 64.7443C53.3519 64.0568 53.4698 63.4602 53.7056 62.9545C53.9414 62.4489 54.2695 62.0582 54.69 61.7827C55.1104 61.5071 55.5962 61.3693 56.1474 61.3693C56.5735 61.3693 56.9102 61.4403 57.1573 61.5824C57.4073 61.7216 57.5977 61.8807 57.7283 62.0597C57.8619 62.2358 57.9656 62.3807 58.0394 62.4943H58.1246V59.2727H59.1303V68H58.1587V66.9943H58.0394C57.9656 67.1136 57.8604 67.2642 57.7241 67.446C57.5877 67.625 57.3931 67.7855 57.1403 67.9276C56.8874 68.0668 56.5508 68.1364 56.1303 68.1364ZM56.2667 67.233C56.6701 67.233 57.011 67.1278 57.2894 66.9176C57.5678 66.7045 57.7795 66.4105 57.9244 66.0355C58.0692 65.6577 58.1417 65.2216 58.1417 64.7273C58.1417 64.2386 58.0707 63.8111 57.9286 63.4446C57.7866 63.0753 57.5763 62.7884 57.2979 62.5838C57.0195 62.3764 56.6758 62.2727 56.2667 62.2727C55.8406 62.2727 55.4854 62.3821 55.2013 62.6009C54.9201 62.8168 54.7085 63.1108 54.5664 63.483C54.4272 63.8523 54.3576 64.267 54.3576 64.7273C54.3576 65.1932 54.4286 65.6165 54.5707 65.9972C54.7156 66.375 54.9286 66.6761 55.2099 66.9006C55.494 67.1222 55.8462 67.233 56.2667 67.233ZM65.2369 65.3239V61.4545H66.2425V68H65.2369V66.892H65.1687C65.0153 67.2244 64.7766 67.5071 64.4528 67.7401C64.1289 67.9702 63.7198 68.0852 63.2255 68.0852C62.8164 68.0852 62.4528 67.9957 62.1346 67.8168C61.8164 67.6349 61.5664 67.3622 61.3846 66.9986C61.2028 66.6321 61.1119 66.1705 61.1119 65.6136V61.4545H62.1175V65.5455C62.1175 66.0227 62.2511 66.4034 62.5181 66.6875C62.788 66.9716 63.1317 67.1136 63.5494 67.1136C63.7994 67.1136 64.0536 67.0497 64.3121 66.9219C64.5735 66.794 64.7923 66.598 64.9684 66.3338C65.1474 66.0696 65.2369 65.733 65.2369 65.3239ZM70.7436 68.1364C70.13 68.1364 69.6016 67.9915 69.1584 67.7017C68.7152 67.4119 68.3743 67.0128 68.1357 66.5043C67.897 65.9957 67.7777 65.4148 67.7777 64.7614C67.7777 64.0966 67.8999 63.5099 68.1442 63.0014C68.3913 62.4901 68.7351 62.0909 69.1754 61.804C69.6186 61.5142 70.1357 61.3693 70.7266 61.3693C71.1868 61.3693 71.6016 61.4545 71.9709 61.625C72.3402 61.7955 72.6428 62.0341 72.8786 62.3409C73.1143 62.6477 73.2607 63.0057 73.3175 63.4148H72.3118C72.2351 63.1165 72.0646 62.8523 71.8004 62.6222C71.5391 62.3892 71.1868 62.2727 70.7436 62.2727C70.3516 62.2727 70.0078 62.375 69.7124 62.5795C69.4197 62.7812 69.1911 63.0668 69.0263 63.4361C68.8643 63.8026 68.7834 64.233 68.7834 64.7273C68.7834 65.233 68.8629 65.6733 69.022 66.0483C69.1839 66.4233 69.4112 66.7145 69.7038 66.9219C69.9993 67.1293 70.3459 67.233 70.7436 67.233C71.005 67.233 71.2422 67.1875 71.4553 67.0966C71.6683 67.0057 71.8487 66.875 71.9964 66.7045C72.1442 66.5341 72.2493 66.3295 72.3118 66.0909H73.3175C73.2607 66.4773 73.12 66.8253 72.8956 67.1349C72.674 67.4418 72.38 67.6861 72.0135 67.8679C71.6499 68.0469 71.2266 68.1364 70.7436 68.1364ZM77.6342 61.4545V62.3068H74.2422V61.4545H77.6342ZM75.2308 59.8864H76.2365V66.125C76.2365 66.4091 76.2777 66.6222 76.3601 66.7642C76.4453 66.9034 76.5533 66.9972 76.6839 67.0455C76.8175 67.0909 76.9581 67.1136 77.1058 67.1136C77.2166 67.1136 77.3075 67.108 77.3786 67.0966C77.4496 67.0824 77.5064 67.071 77.549 67.0625L77.7536 67.9659C77.6854 67.9915 77.5902 68.017 77.468 68.0426C77.3459 68.071 77.1911 68.0852 77.0036 68.0852C76.7195 68.0852 76.4411 68.0241 76.1683 67.902C75.8984 67.7798 75.674 67.5938 75.495 67.3438C75.3189 67.0938 75.2308 66.7784 75.2308 66.3977V59.8864ZM79.147 68V61.4545H80.1527V68H79.147ZM79.6584 60.3636C79.4624 60.3636 79.2933 60.2969 79.1513 60.1634C79.0121 60.0298 78.9425 59.8693 78.9425 59.6818C78.9425 59.4943 79.0121 59.3338 79.1513 59.2003C79.2933 59.0668 79.4624 59 79.6584 59C79.8544 59 80.022 59.0668 80.1612 59.2003C80.3033 59.3338 80.3743 59.4943 80.3743 59.6818C80.3743 59.8693 80.3033 60.0298 80.1612 60.1634C80.022 60.2969 79.8544 60.3636 79.6584 60.3636ZM87.3469 61.4545L84.9265 68H83.9038L81.4833 61.4545H82.5742L84.381 66.6705H84.4492L86.256 61.4545H87.3469ZM88.6744 68V61.4545H89.68V68H88.6744ZM89.1857 60.3636C88.9897 60.3636 88.8207 60.2969 88.6786 60.1634C88.5394 60.0298 88.4698 59.8693 88.4698 59.6818C88.4698 59.4943 88.5394 59.3338 88.6786 59.2003C88.8207 59.0668 88.9897 59 89.1857 59C89.3817 59 89.5494 59.0668 89.6886 59.2003C89.8306 59.3338 89.9016 59.4943 89.9016 59.6818C89.9016 59.8693 89.8306 60.0298 89.6886 60.1634C89.5494 60.2969 89.3817 60.3636 89.1857 60.3636ZM94.3686 61.4545V62.3068H90.9766V61.4545H94.3686ZM91.9652 59.8864H92.9709V66.125C92.9709 66.4091 93.0121 66.6222 93.0945 66.7642C93.1797 66.9034 93.2876 66.9972 93.4183 67.0455C93.5518 67.0909 93.6925 67.1136 93.8402 67.1136C93.951 67.1136 94.0419 67.108 94.1129 67.0966C94.1839 67.0824 94.2408 67.071 94.2834 67.0625L94.4879 67.9659C94.4197 67.9915 94.3246 68.017 94.2024 68.0426C94.0803 68.071 93.9254 68.0852 93.7379 68.0852C93.4538 68.0852 93.1754 68.0241 92.9027 67.902C92.6328 67.7798 92.4084 67.5938 92.2294 67.3438C92.0533 67.0938 91.9652 66.7784 91.9652 66.3977V59.8864ZM96.5291 70.4545C96.3587 70.4545 96.2067 70.4403 96.0732 70.4119C95.9396 70.3864 95.8473 70.3608 95.7962 70.3352L96.0518 69.4489C96.2962 69.5114 96.5121 69.5341 96.6996 69.517C96.8871 69.5 97.0533 69.4162 97.1982 69.2656C97.3459 69.1179 97.4808 68.8778 97.603 68.5455L97.7905 68.0341L95.37 61.4545H96.4609L98.2678 66.6705H98.3359L100.143 61.4545H101.234L98.4553 68.9545C98.3303 69.2926 98.1754 69.5724 97.9908 69.794C97.8061 70.0185 97.5916 70.1847 97.3473 70.2926C97.1058 70.4006 96.8331 70.4545 96.5291 70.4545ZM107.419 68L105.425 61.4545H106.482L107.896 66.4659H107.964L109.362 61.4545H110.436L111.817 66.4489H111.885L113.3 61.4545H114.357L112.362 68H111.374L109.942 62.9716H109.839L108.408 68H107.419ZM115.686 68V61.4545H116.692V68H115.686ZM116.197 60.3636C116.001 60.3636 115.832 60.2969 115.69 60.1634C115.551 60.0298 115.482 59.8693 115.482 59.6818C115.482 59.4943 115.551 59.3338 115.69 59.2003C115.832 59.0668 116.001 59 116.197 59C116.393 59 116.561 59.0668 116.7 59.2003C116.842 59.3338 116.913 59.4943 116.913 59.6818C116.913 59.8693 116.842 60.0298 116.7 60.1634C116.561 60.2969 116.393 60.3636 116.197 60.3636ZM121.38 61.4545V62.3068H117.988V61.4545H121.38ZM118.977 59.8864H119.983V66.125C119.983 66.4091 120.024 66.6222 120.106 66.7642C120.191 66.9034 120.299 66.9972 120.43 67.0455C120.564 67.0909 120.704 67.1136 120.852 67.1136C120.963 67.1136 121.054 67.108 121.125 67.0966C121.196 67.0824 121.252 67.071 121.295 67.0625L121.5 67.9659C121.431 67.9915 121.336 68.017 121.214 68.0426C121.092 68.071 120.937 68.0852 120.75 68.0852C120.466 68.0852 120.187 68.0241 119.914 67.902C119.645 67.7798 119.42 67.5938 119.241 67.3438C119.065 67.0938 118.977 66.7784 118.977 66.3977V59.8864ZM124.039 64.0625V68H123.034V59.2727H124.039V62.4773H124.125C124.278 62.1392 124.508 61.8707 124.815 61.6719C125.125 61.4702 125.537 61.3693 126.051 61.3693C126.497 61.3693 126.887 61.4588 127.223 61.6378C127.558 61.8139 127.818 62.0852 128.002 62.4517C128.19 62.8153 128.284 63.2784 128.284 63.8409V68H127.278V63.9091C127.278 63.3892 127.143 62.9872 126.873 62.7031C126.606 62.4162 126.235 62.2727 125.761 62.2727C125.431 62.2727 125.136 62.3423 124.875 62.4815C124.616 62.6207 124.412 62.8239 124.261 63.0909C124.113 63.358 124.039 63.6818 124.039 64.0625ZM36.8466 83.1534C36.4318 83.1534 36.0554 83.0753 35.7173 82.919C35.3793 82.7599 35.1108 82.5312 34.9119 82.233C34.7131 81.9318 34.6136 81.5682 34.6136 81.142C34.6136 80.767 34.6875 80.4631 34.8352 80.2301C34.983 79.9943 35.1804 79.8097 35.4276 79.6761C35.6747 79.5426 35.9474 79.4432 36.2457 79.3778C36.5469 79.3097 36.8494 79.2557 37.1534 79.2159C37.5511 79.1648 37.8736 79.1264 38.1207 79.1009C38.3707 79.0724 38.5526 79.0256 38.6662 78.9602C38.7827 78.8949 38.8409 78.7812 38.8409 78.6193V78.5852C38.8409 78.1648 38.7259 77.8381 38.4957 77.6051C38.2685 77.3722 37.9233 77.2557 37.4602 77.2557C36.9801 77.2557 36.6037 77.3608 36.331 77.571C36.0582 77.7812 35.8665 78.0057 35.7557 78.2443L34.8011 77.9034C34.9716 77.5057 35.1989 77.196 35.483 76.9744C35.7699 76.75 36.0824 76.5937 36.4205 76.5057C36.7614 76.4148 37.0966 76.3693 37.4261 76.3693C37.6364 76.3693 37.8778 76.3949 38.1506 76.446C38.4261 76.4943 38.6918 76.5952 38.9474 76.7486C39.206 76.902 39.4205 77.1335 39.5909 77.4432C39.7614 77.7528 39.8466 78.1676 39.8466 78.6875V83H38.8409V82.1136H38.7898C38.7216 82.2557 38.608 82.4077 38.4489 82.5696C38.2898 82.7315 38.0781 82.8693 37.8139 82.983C37.5497 83.0966 37.2273 83.1534 36.8466 83.1534ZM37 82.25C37.3977 82.25 37.733 82.1719 38.0057 82.0156C38.2813 81.8594 38.4886 81.6577 38.6278 81.4105C38.7699 81.1634 38.8409 80.9034 38.8409 80.6307V79.7102C38.7983 79.7614 38.7045 79.8082 38.5597 79.8509C38.4176 79.8906 38.2528 79.9261 38.0653 79.9574C37.8807 79.9858 37.7003 80.0114 37.5241 80.0341C37.3509 80.054 37.2102 80.071 37.1023 80.0852C36.8409 80.1193 36.5966 80.1747 36.3693 80.2514C36.1449 80.3253 35.9631 80.4375 35.8239 80.5881C35.6875 80.7358 35.6193 80.9375 35.6193 81.1932C35.6193 81.5426 35.7486 81.8068 36.0071 81.9858C36.2685 82.1619 36.5994 82.25 37 82.25ZM42.6879 79.0625V83H41.6822V76.4545H42.6538V77.4773H42.739C42.8924 77.1449 43.1254 76.8778 43.4379 76.6761C43.7504 76.4716 44.1538 76.3693 44.6481 76.3693C45.0913 76.3693 45.479 76.4602 45.8114 76.642C46.1438 76.821 46.4023 77.0938 46.587 77.4602C46.7717 77.8239 46.864 78.2841 46.864 78.8409V83H45.8583V78.9091C45.8583 78.3949 45.7248 77.9943 45.4577 77.7074C45.1907 77.4176 44.8242 77.2727 44.3583 77.2727C44.0373 77.2727 43.7504 77.3423 43.4975 77.4815C43.2475 77.6207 43.0501 77.8239 42.9052 78.0909C42.7603 78.358 42.6879 78.6818 42.6879 79.0625ZM52.571 83H51.4631L54.6676 74.2727H55.7585L58.9631 83H57.8551L55.2472 75.6534H55.179L52.571 83ZM52.9801 79.5909H57.446V80.5284H52.9801V79.5909ZM61.3793 74.2727V83H60.3224V74.2727H61.3793ZM67.1119 78.7898V79.7273H63.2937V78.7898H67.1119ZM71.6257 83.1364C70.995 83.1364 70.451 82.9972 69.9936 82.7188C69.5391 82.4375 69.1882 82.0455 68.9411 81.5426C68.6967 81.0369 68.5746 80.4489 68.5746 79.7784C68.5746 79.108 68.6967 78.517 68.9411 78.0057C69.1882 77.4915 69.532 77.0909 69.9723 76.804C70.4155 76.5142 70.9325 76.3693 71.5234 76.3693C71.8643 76.3693 72.201 76.4261 72.5334 76.5398C72.8658 76.6534 73.1683 76.8381 73.4411 77.0938C73.7138 77.3466 73.9311 77.6818 74.093 78.0994C74.255 78.517 74.3359 79.0312 74.3359 79.642V80.0682H69.2905V79.1989H73.3132C73.3132 78.8295 73.2393 78.5 73.0916 78.2102C72.9467 77.9205 72.7393 77.6918 72.4695 77.5241C72.2024 77.3565 71.8871 77.2727 71.5234 77.2727C71.1229 77.2727 70.7763 77.3722 70.4837 77.571C70.1939 77.767 69.9709 78.0227 69.8146 78.3381C69.6584 78.6534 69.5803 78.9915 69.5803 79.3523V79.9318C69.5803 80.4261 69.6655 80.8452 69.8359 81.1889C70.0092 81.5298 70.2493 81.7898 70.5561 81.9688C70.8629 82.1449 71.2195 82.233 71.6257 82.233C71.8899 82.233 72.1286 82.196 72.3416 82.1222C72.5575 82.0455 72.7436 81.9318 72.8999 81.7812C73.0561 81.6278 73.1768 81.4375 73.2621 81.2102L74.2337 81.483C74.1314 81.8125 73.9595 82.1023 73.718 82.3523C73.4766 82.5994 73.1783 82.7926 72.8232 82.9318C72.468 83.0682 72.0689 83.1364 71.6257 83.1364ZM76.8714 79.0625V83H75.8658V76.4545H76.8374V77.4773H76.9226C77.076 77.1449 77.3089 76.8778 77.6214 76.6761C77.9339 76.4716 78.3374 76.3693 78.8317 76.3693C79.2749 76.3693 79.6626 76.4602 79.995 76.642C80.3274 76.821 80.5859 77.0938 80.7706 77.4602C80.9553 77.8239 81.0476 78.2841 81.0476 78.8409V83H80.0419V78.9091C80.0419 78.3949 79.9084 77.9943 79.6413 77.7074C79.3743 77.4176 79.0078 77.2727 78.5419 77.2727C78.2209 77.2727 77.9339 77.3423 77.6811 77.4815C77.4311 77.6207 77.2337 77.8239 77.0888 78.0909C76.9439 78.358 76.8714 78.6818 76.8714 79.0625ZM83.891 79.0625V83H82.8853V74.2727H83.891V77.4773H83.9762C84.1296 77.1392 84.3597 76.8707 84.6665 76.6719C84.9762 76.4702 85.3881 76.3693 85.9023 76.3693C86.3484 76.3693 86.739 76.4588 87.0742 76.6378C87.4094 76.8139 87.6694 77.0852 87.854 77.4517C88.0415 77.8153 88.1353 78.2784 88.1353 78.8409V83H87.1296V78.9091C87.1296 78.3892 86.9947 77.9872 86.7248 77.7031C86.4577 77.4162 86.087 77.2727 85.6126 77.2727C85.283 77.2727 84.9876 77.3423 84.7262 77.4815C84.4677 77.6207 84.2631 77.8239 84.1126 78.0909C83.9648 78.358 83.891 78.6818 83.891 79.0625ZM91.9013 83.1534C91.4865 83.1534 91.1101 83.0753 90.772 82.919C90.4339 82.7599 90.1655 82.5312 89.9666 82.233C89.7678 81.9318 89.6683 81.5682 89.6683 81.142C89.6683 80.767 89.7422 80.4631 89.8899 80.2301C90.0376 79.9943 90.2351 79.8097 90.4822 79.6761C90.7294 79.5426 91.0021 79.4432 91.3004 79.3778C91.6016 79.3097 91.9041 79.2557 92.2081 79.2159C92.6058 79.1648 92.9283 79.1264 93.1754 79.1009C93.4254 79.0724 93.6072 79.0256 93.7209 78.9602C93.8374 78.8949 93.8956 78.7812 93.8956 78.6193V78.5852C93.8956 78.1648 93.7805 77.8381 93.5504 77.6051C93.3232 77.3722 92.978 77.2557 92.5149 77.2557C92.0348 77.2557 91.6584 77.3608 91.3857 77.571C91.1129 77.7812 90.9212 78.0057 90.8104 78.2443L89.8558 77.9034C90.0263 77.5057 90.2536 77.196 90.5376 76.9744C90.8246 76.75 91.1371 76.5937 91.4751 76.5057C91.8161 76.4148 92.1513 76.3693 92.4808 76.3693C92.6911 76.3693 92.9325 76.3949 93.2053 76.446C93.4808 76.4943 93.7464 76.5952 94.0021 76.7486C94.2607 76.902 94.4751 77.1335 94.6456 77.4432C94.8161 77.7528 94.9013 78.1676 94.9013 78.6875V83H93.8956V82.1136H93.8445C93.7763 82.2557 93.6626 82.4077 93.5036 82.5696C93.3445 82.7315 93.1328 82.8693 92.8686 82.983C92.6044 83.0966 92.282 83.1534 91.9013 83.1534ZM92.0547 82.25C92.4524 82.25 92.7876 82.1719 93.0604 82.0156C93.3359 81.8594 93.5433 81.6577 93.6825 81.4105C93.8246 81.1634 93.8956 80.9034 93.8956 80.6307V79.7102C93.853 79.7614 93.7592 79.8082 93.6143 79.8509C93.4723 79.8906 93.3075 79.9261 93.12 79.9574C92.9354 79.9858 92.755 80.0114 92.5788 80.0341C92.4055 80.054 92.2649 80.071 92.157 80.0852C91.8956 80.1193 91.6513 80.1747 91.424 80.2514C91.1996 80.3253 91.0178 80.4375 90.8786 80.5881C90.7422 80.7358 90.674 80.9375 90.674 81.1932C90.674 81.5426 90.8033 81.8068 91.0618 81.9858C91.3232 82.1619 91.6541 82.25 92.0547 82.25ZM97.7425 79.0625V83H96.7369V76.4545H97.7085V77.4773H97.7937C97.9471 77.1449 98.18 76.8778 98.4925 76.6761C98.805 76.4716 99.2085 76.3693 99.7028 76.3693C100.146 76.3693 100.534 76.4602 100.866 76.642C101.199 76.821 101.457 77.0938 101.642 77.4602C101.826 77.8239 101.919 78.2841 101.919 78.8409V83H100.913V78.9091C100.913 78.3949 100.779 77.9943 100.512 77.7074C100.245 77.4176 99.8789 77.2727 99.413 77.2727C99.092 77.2727 98.805 77.3423 98.5522 77.4815C98.3022 77.6207 98.1048 77.8239 97.9599 78.0909C97.815 78.358 97.7425 78.6818 97.7425 79.0625ZM106.415 83.1364C105.802 83.1364 105.273 82.9915 104.83 82.7017C104.387 82.4119 104.046 82.0128 103.808 81.5043C103.569 80.9957 103.45 80.4148 103.45 79.7614C103.45 79.0966 103.572 78.5099 103.816 78.0014C104.063 77.4901 104.407 77.0909 104.847 76.804C105.29 76.5142 105.808 76.3693 106.398 76.3693C106.859 76.3693 107.273 76.4545 107.643 76.625C108.012 76.7955 108.315 77.0341 108.55 77.3409C108.786 77.6477 108.933 78.0057 108.989 78.4148H107.984C107.907 78.1165 107.737 77.8523 107.472 77.6222C107.211 77.3892 106.859 77.2727 106.415 77.2727C106.023 77.2727 105.68 77.375 105.384 77.5795C105.092 77.7812 104.863 78.0668 104.698 78.4361C104.536 78.8026 104.455 79.233 104.455 79.7273C104.455 80.233 104.535 80.6733 104.694 81.0483C104.856 81.4233 105.083 81.7145 105.376 81.9219C105.671 82.1293 106.018 82.233 106.415 82.233C106.677 82.233 106.914 82.1875 107.127 82.0966C107.34 82.0057 107.521 81.875 107.668 81.7045C107.816 81.5341 107.921 81.3295 107.984 81.0909H108.989C108.933 81.4773 108.792 81.8253 108.567 82.1349C108.346 82.4418 108.052 82.6861 107.685 82.8679C107.322 83.0469 106.898 83.1364 106.415 83.1364ZM113.204 83.1364C112.573 83.1364 112.029 82.9972 111.572 82.7188C111.117 82.4375 110.766 82.0455 110.519 81.5426C110.275 81.0369 110.153 80.4489 110.153 79.7784C110.153 79.108 110.275 78.517 110.519 78.0057C110.766 77.4915 111.11 77.0909 111.55 76.804C111.994 76.5142 112.511 76.3693 113.102 76.3693C113.442 76.3693 113.779 76.4261 114.112 76.5398C114.444 76.6534 114.746 76.8381 115.019 77.0938C115.292 77.3466 115.509 77.6818 115.671 78.0994C115.833 78.517 115.914 79.0312 115.914 79.642V80.0682H110.869V79.1989H114.891C114.891 78.8295 114.817 78.5 114.67 78.2102C114.525 77.9205 114.317 77.6918 114.048 77.5241C113.781 77.3565 113.465 77.2727 113.102 77.2727C112.701 77.2727 112.354 77.3722 112.062 77.571C111.772 77.767 111.549 78.0227 111.393 78.3381C111.237 78.6534 111.158 78.9915 111.158 79.3523V79.9318C111.158 80.4261 111.244 80.8452 111.414 81.1889C111.587 81.5298 111.827 81.7898 112.134 81.9688C112.441 82.1449 112.798 82.233 113.204 82.233C113.468 82.233 113.707 82.196 113.92 82.1222C114.136 82.0455 114.322 81.9318 114.478 81.7812C114.634 81.6278 114.755 81.4375 114.84 81.2102L115.812 81.483C115.71 81.8125 115.538 82.1023 115.296 82.3523C115.055 82.5994 114.756 82.7926 114.401 82.9318C114.046 83.0682 113.647 83.1364 113.204 83.1364ZM119.915 83.1364C119.37 83.1364 118.888 82.9986 118.471 82.723C118.053 82.4446 117.727 82.0526 117.491 81.5469C117.255 81.0384 117.137 80.4375 117.137 79.7443C117.137 79.0568 117.255 78.4602 117.491 77.9545C117.727 77.4489 118.055 77.0582 118.475 76.7827C118.896 76.5071 119.381 76.3693 119.933 76.3693C120.359 76.3693 120.695 76.4403 120.942 76.5824C121.192 76.7216 121.383 76.8807 121.513 77.0597C121.647 77.2358 121.751 77.3807 121.825 77.4943H121.91V74.2727H122.915V83H121.944V81.9943H121.825C121.751 82.1136 121.646 82.2642 121.509 82.446C121.373 82.625 121.178 82.7855 120.925 82.9276C120.673 83.0668 120.336 83.1364 119.915 83.1364ZM120.052 82.233C120.455 82.233 120.796 82.1278 121.075 81.9176C121.353 81.7045 121.565 81.4105 121.71 81.0355C121.854 80.6577 121.927 80.2216 121.927 79.7273C121.927 79.2386 121.856 78.8111 121.714 78.4446C121.572 78.0753 121.362 77.7884 121.083 77.5838C120.805 77.3764 120.461 77.2727 120.052 77.2727C119.626 77.2727 119.271 77.3821 118.987 77.6009C118.705 77.8168 118.494 78.1108 118.352 78.483C118.212 78.8523 118.143 79.267 118.143 79.7273C118.143 80.1932 118.214 80.6165 118.356 80.9972C118.501 81.375 118.714 81.6761 118.995 81.9006C119.279 82.1222 119.631 82.233 120.052 82.233ZM34.9205 98V91.4545H35.9261V98H34.9205ZM35.4318 90.3636C35.2358 90.3636 35.0668 90.2969 34.9247 90.1634C34.7855 90.0298 34.7159 89.8693 34.7159 89.6818C34.7159 89.4943 34.7855 89.3338 34.9247 89.2003C35.0668 89.0668 35.2358 89 35.4318 89C35.6278 89 35.7955 89.0668 35.9347 89.2003C36.0767 89.3338 36.1477 89.4943 36.1477 89.6818C36.1477 89.8693 36.0767 90.0298 35.9347 90.1634C35.7955 90.2969 35.6278 90.3636 35.4318 90.3636ZM38.7738 94.0625V98H37.7681V91.4545H38.7397V92.4773H38.8249C38.9783 92.1449 39.2113 91.8778 39.5238 91.6761C39.8363 91.4716 40.2397 91.3693 40.734 91.3693C41.1772 91.3693 41.565 91.4602 41.8974 91.642C42.2298 91.821 42.4883 92.0938 42.6729 92.4602C42.8576 92.8239 42.9499 93.2841 42.9499 93.8409V98H41.9442V93.9091C41.9442 93.3949 41.8107 92.9943 41.5437 92.7074C41.2766 92.4176 40.9102 92.2727 40.4442 92.2727C40.1232 92.2727 39.8363 92.3423 39.5835 92.4815C39.3335 92.6207 39.136 92.8239 38.9911 93.0909C38.8462 93.358 38.7738 93.6818 38.7738 94.0625ZM44.924 98V89.2727H45.9297V92.4943H46.0149C46.0888 92.3807 46.1911 92.2358 46.3217 92.0597C46.4553 91.8807 46.6456 91.7216 46.8928 91.5824C47.1428 91.4403 47.4808 91.3693 47.907 91.3693C48.4581 91.3693 48.9439 91.5071 49.3643 91.7827C49.7848 92.0582 50.1129 92.4489 50.3487 92.9545C50.5845 93.4602 50.7024 94.0568 50.7024 94.7443C50.7024 95.4375 50.5845 96.0384 50.3487 96.5469C50.1129 97.0526 49.7862 97.4446 49.3686 97.723C48.951 97.9986 48.4695 98.1364 47.924 98.1364C47.5036 98.1364 47.1669 98.0668 46.9141 97.9276C46.6612 97.7855 46.4666 97.625 46.3303 97.446C46.1939 97.2642 46.0888 97.1136 46.0149 96.9943H45.8956V98H44.924ZM45.9126 94.7273C45.9126 95.2216 45.9851 95.6577 46.13 96.0355C46.2749 96.4105 46.4865 96.7045 46.7649 96.9176C47.0433 97.1278 47.3842 97.233 47.7876 97.233C48.2081 97.233 48.5589 97.1222 48.8402 96.9006C49.1243 96.6761 49.3374 96.375 49.4794 95.9972C49.6243 95.6165 49.6967 95.1932 49.6967 94.7273C49.6967 94.267 49.6257 93.8523 49.4837 93.483C49.3445 93.1108 49.1328 92.8168 48.8487 92.6009C48.5675 92.3821 48.2138 92.2727 47.7876 92.2727C47.3786 92.2727 47.0348 92.3764 46.7564 92.5838C46.478 92.7884 46.2678 93.0753 46.1257 93.4446C45.9837 93.8111 45.9126 94.2386 45.9126 94.7273ZM54.8999 98.1364C54.3089 98.1364 53.7905 97.9957 53.3445 97.7145C52.9013 97.4332 52.5547 97.0398 52.3047 96.5341C52.0575 96.0284 51.9339 95.4375 51.9339 94.7614C51.9339 94.0795 52.0575 93.4844 52.3047 92.9759C52.5547 92.4673 52.9013 92.0724 53.3445 91.7912C53.7905 91.5099 54.3089 91.3693 54.8999 91.3693C55.4908 91.3693 56.0078 91.5099 56.451 91.7912C56.897 92.0724 57.2436 92.4673 57.4908 92.9759C57.7408 93.4844 57.8658 94.0795 57.8658 94.7614C57.8658 95.4375 57.7408 96.0284 57.4908 96.5341C57.2436 97.0398 56.897 97.4332 56.451 97.7145C56.0078 97.9957 55.4908 98.1364 54.8999 98.1364ZM54.8999 97.233C55.3487 97.233 55.718 97.1179 56.0078 96.8878C56.2976 96.6577 56.5121 96.3551 56.6513 95.9801C56.7905 95.6051 56.8601 95.1989 56.8601 94.7614C56.8601 94.3239 56.7905 93.9162 56.6513 93.5384C56.5121 93.1605 56.2976 92.8551 56.0078 92.6222C55.718 92.3892 55.3487 92.2727 54.8999 92.2727C54.451 92.2727 54.0817 92.3892 53.7919 92.6222C53.5021 92.8551 53.2876 93.1605 53.1484 93.5384C53.0092 93.9162 52.9396 94.3239 52.9396 94.7614C52.9396 95.1989 53.0092 95.6051 53.1484 95.9801C53.2876 96.3551 53.5021 96.6577 53.7919 96.8878C54.0817 97.1179 54.451 97.233 54.8999 97.233ZM59.8814 91.4545L61.4496 94.1307L63.0178 91.4545H64.1768L62.0632 94.7273L64.1768 98H63.0178L61.4496 95.4602L59.8814 98H58.7223L60.8018 94.7273L58.7223 91.4545H59.8814ZM66.3448 98.0682C66.1346 98.0682 65.9542 97.9929 65.8036 97.8423C65.6531 97.6918 65.5778 97.5114 65.5778 97.3011C65.5778 97.0909 65.6531 96.9105 65.8036 96.7599C65.9542 96.6094 66.1346 96.5341 66.3448 96.5341C66.555 96.5341 66.7354 96.6094 66.886 96.7599C67.0366 96.9105 67.1119 97.0909 67.1119 97.3011C67.1119 97.4403 67.0763 97.5682 67.0053 97.6847C66.9371 97.8011 66.8448 97.8949 66.7283 97.9659C66.6147 98.0341 66.4869 98.0682 66.3448 98.0682ZM69.0529 89.2727H70.3143L73.2802 96.517H73.3825L76.3484 89.2727H77.6097V98H76.6211V91.3693H76.5359L73.8086 98H72.854L70.1268 91.3693H70.0415V98H69.0529V89.2727ZM81.5185 98.1534C81.1037 98.1534 80.7273 98.0753 80.3892 97.919C80.0511 97.7599 79.7827 97.5312 79.5838 97.233C79.3849 96.9318 79.2855 96.5682 79.2855 96.142C79.2855 95.767 79.3594 95.4631 79.5071 95.2301C79.6548 94.9943 79.8523 94.8097 80.0994 94.6761C80.3466 94.5426 80.6193 94.4432 80.9176 94.3778C81.2188 94.3097 81.5213 94.2557 81.8253 94.2159C82.223 94.1648 82.5455 94.1264 82.7926 94.1009C83.0426 94.0724 83.2244 94.0256 83.3381 93.9602C83.4545 93.8949 83.5128 93.7812 83.5128 93.6193V93.5852C83.5128 93.1648 83.3977 92.8381 83.1676 92.6051C82.9403 92.3722 82.5952 92.2557 82.1321 92.2557C81.652 92.2557 81.2756 92.3608 81.0028 92.571C80.7301 92.7812 80.5384 93.0057 80.4276 93.2443L79.473 92.9034C79.6435 92.5057 79.8707 92.196 80.1548 91.9744C80.4418 91.75 80.7543 91.5937 81.0923 91.5057C81.4332 91.4148 81.7685 91.3693 82.098 91.3693C82.3082 91.3693 82.5497 91.3949 82.8224 91.446C83.098 91.4943 83.3636 91.5952 83.6193 91.7486C83.8778 91.902 84.0923 92.1335 84.2628 92.4432C84.4332 92.7528 84.5185 93.1676 84.5185 93.6875V98H83.5128V97.1136H83.4616C83.3935 97.2557 83.2798 97.4077 83.1207 97.5696C82.9616 97.7315 82.75 97.8693 82.4858 97.983C82.2216 98.0966 81.8991 98.1534 81.5185 98.1534ZM81.6719 97.25C82.0696 97.25 82.4048 97.1719 82.6776 97.0156C82.9531 96.8594 83.1605 96.6577 83.2997 96.4105C83.4418 96.1634 83.5128 95.9034 83.5128 95.6307V94.7102C83.4702 94.7614 83.3764 94.8082 83.2315 94.8509C83.0895 94.8906 82.9247 94.9261 82.7372 94.9574C82.5526 94.9858 82.3722 95.0114 82.196 95.0341C82.0227 95.054 81.8821 95.071 81.7741 95.0852C81.5128 95.1193 81.2685 95.1747 81.0412 95.2514C80.8168 95.3253 80.6349 95.4375 80.4957 95.5881C80.3594 95.7358 80.2912 95.9375 80.2912 96.1932C80.2912 96.5426 80.4205 96.8068 80.679 96.9858C80.9403 97.1619 81.2713 97.25 81.6719 97.25ZM87.104 91.4545L88.6722 94.1307L90.2404 91.4545H91.3995L89.2859 94.7273L91.3995 98H90.2404L88.6722 95.4602L87.104 98H85.945L88.0245 94.7273L85.945 91.4545H87.104ZM92.8345 98V91.4545H93.8402V98H92.8345ZM93.3459 90.3636C93.1499 90.3636 92.9808 90.2969 92.8388 90.1634C92.6996 90.0298 92.63 89.8693 92.63 89.6818C92.63 89.4943 92.6996 89.3338 92.8388 89.2003C92.9808 89.0668 93.1499 89 93.3459 89C93.5419 89 93.7095 89.0668 93.8487 89.2003C93.9908 89.3338 94.0618 89.4943 94.0618 89.6818C94.0618 89.8693 93.9908 90.0298 93.8487 90.1634C93.7095 90.2969 93.5419 90.3636 93.3459 90.3636ZM95.6822 98V91.4545H96.6538V92.4773H96.739C96.8754 92.1278 97.0955 91.8565 97.3995 91.6634C97.7035 91.4673 98.0685 91.3693 98.4947 91.3693C98.9265 91.3693 99.2859 91.4673 99.5728 91.6634C99.8626 91.8565 100.088 92.1278 100.25 92.4773H100.319C100.486 92.1392 100.738 91.8707 101.073 91.6719C101.408 91.4702 101.81 91.3693 102.279 91.3693C102.864 91.3693 103.343 91.5526 103.715 91.919C104.087 92.2827 104.273 92.8494 104.273 93.6193V98H103.267V93.6193C103.267 93.1364 103.135 92.7912 102.871 92.5838C102.607 92.3764 102.296 92.2727 101.938 92.2727C101.478 92.2727 101.121 92.4119 100.868 92.6903C100.615 92.9659 100.489 93.3153 100.489 93.7386V98H99.4663V93.517C99.4663 93.1449 99.3455 92.8452 99.104 92.6179C98.8626 92.3878 98.5515 92.2727 98.1708 92.2727C97.9094 92.2727 97.6651 92.3423 97.4379 92.4815C97.2134 92.6207 97.0316 92.8139 96.8924 93.0611C96.756 93.3054 96.6879 93.5881 96.6879 93.9091V98H95.6822ZM106.112 98V91.4545H107.118V98H106.112ZM106.623 90.3636C106.427 90.3636 106.258 90.2969 106.116 90.1634C105.977 90.0298 105.907 89.8693 105.907 89.6818C105.907 89.4943 105.977 89.3338 106.116 89.2003C106.258 89.0668 106.427 89 106.623 89C106.819 89 106.987 89.0668 107.126 89.2003C107.268 89.3338 107.339 89.4943 107.339 89.6818C107.339 89.8693 107.268 90.0298 107.126 90.1634C106.987 90.2969 106.819 90.3636 106.623 90.3636ZM108.772 98V97.233L112.488 92.4602V92.392H108.891V91.4545H113.783V92.2557L110.17 96.9943V97.0625H113.903V98H108.772ZM118.009 98.1364C117.378 98.1364 116.834 97.9972 116.376 97.7188C115.922 97.4375 115.571 97.0455 115.324 96.5426C115.08 96.0369 114.957 95.4489 114.957 94.7784C114.957 94.108 115.08 93.517 115.324 93.0057C115.571 92.4915 115.915 92.0909 116.355 91.804C116.798 91.5142 117.315 91.3693 117.906 91.3693C118.247 91.3693 118.584 91.4261 118.916 91.5398C119.249 91.6534 119.551 91.8381 119.824 92.0938C120.097 92.3466 120.314 92.6818 120.476 93.0994C120.638 93.517 120.719 94.0312 120.719 94.642V95.0682H115.673V94.1989H119.696C119.696 93.8295 119.622 93.5 119.474 93.2102C119.33 92.9205 119.122 92.6918 118.852 92.5241C118.585 92.3565 118.27 92.2727 117.906 92.2727C117.506 92.2727 117.159 92.3722 116.866 92.571C116.577 92.767 116.354 93.0227 116.197 93.3381C116.041 93.6534 115.963 93.9915 115.963 94.3523V94.9318C115.963 95.4261 116.048 95.8452 116.219 96.1889C116.392 96.5298 116.632 96.7898 116.939 96.9688C117.246 97.1449 117.602 97.233 118.009 97.233C118.273 97.233 118.511 97.196 118.724 97.1222C118.94 97.0455 119.126 96.9318 119.283 96.7812C119.439 96.6278 119.56 96.4375 119.645 96.2102L120.616 96.483C120.514 96.8125 120.342 97.1023 120.101 97.3523C119.859 97.5994 119.561 97.7926 119.206 97.9318C118.851 98.0682 118.452 98.1364 118.009 98.1364ZM34.9205 115.455V106.455H35.892V107.494H36.0114C36.0852 107.381 36.1875 107.236 36.3182 107.06C36.4517 106.881 36.642 106.722 36.8892 106.582C37.1392 106.44 37.4773 106.369 37.9034 106.369C38.4545 106.369 38.9403 106.507 39.3608 106.783C39.7813 107.058 40.1094 107.449 40.3452 107.955C40.581 108.46 40.6989 109.057 40.6989 109.744C40.6989 110.438 40.581 111.038 40.3452 111.547C40.1094 112.053 39.7827 112.445 39.3651 112.723C38.9474 112.999 38.4659 113.136 37.9205 113.136C37.5 113.136 37.1634 113.067 36.9105 112.928C36.6577 112.786 36.4631 112.625 36.3267 112.446C36.1903 112.264 36.0852 112.114 36.0114 111.994H35.9261V115.455H34.9205ZM35.9091 109.727C35.9091 110.222 35.9815 110.658 36.1264 111.036C36.2713 111.411 36.483 111.705 36.7614 111.918C37.0398 112.128 37.3807 112.233 37.7841 112.233C38.2045 112.233 38.5554 112.122 38.8366 111.901C39.1207 111.676 39.3338 111.375 39.4759 110.997C39.6207 110.616 39.6932 110.193 39.6932 109.727C39.6932 109.267 39.6222 108.852 39.4801 108.483C39.3409 108.111 39.1293 107.817 38.8452 107.601C38.5639 107.382 38.2102 107.273 37.7841 107.273C37.375 107.273 37.0313 107.376 36.7528 107.584C36.4744 107.788 36.2642 108.075 36.1222 108.445C35.9801 108.811 35.9091 109.239 35.9091 109.727ZM42.233 113V106.455H43.2045V107.443H43.2727C43.392 107.119 43.608 106.857 43.9205 106.655C44.233 106.453 44.5852 106.352 44.9773 106.352C45.0511 106.352 45.1435 106.354 45.2543 106.357C45.3651 106.359 45.4489 106.364 45.5057 106.369V107.392C45.4716 107.384 45.3935 107.371 45.2713 107.354C45.152 107.334 45.0256 107.324 44.892 107.324C44.5739 107.324 44.2898 107.391 44.0398 107.524C43.7926 107.655 43.5966 107.837 43.4517 108.07C43.3097 108.3 43.2386 108.562 43.2386 108.858V113H42.233ZM49.1577 113.136C48.5668 113.136 48.0483 112.996 47.6023 112.714C47.1591 112.433 46.8125 112.04 46.5625 111.534C46.3153 111.028 46.1918 110.437 46.1918 109.761C46.1918 109.08 46.3153 108.484 46.5625 107.976C46.8125 107.467 47.1591 107.072 47.6023 106.791C48.0483 106.51 48.5668 106.369 49.1577 106.369C49.7486 106.369 50.2656 106.51 50.7088 106.791C51.1548 107.072 51.5014 107.467 51.7486 107.976C51.9986 108.484 52.1236 109.08 52.1236 109.761C52.1236 110.437 51.9986 111.028 51.7486 111.534C51.5014 112.04 51.1548 112.433 50.7088 112.714C50.2656 112.996 49.7486 113.136 49.1577 113.136ZM49.1577 112.233C49.6065 112.233 49.9759 112.118 50.2656 111.888C50.5554 111.658 50.7699 111.355 50.9091 110.98C51.0483 110.605 51.1179 110.199 51.1179 109.761C51.1179 109.324 51.0483 108.916 50.9091 108.538C50.7699 108.161 50.5554 107.855 50.2656 107.622C49.9759 107.389 49.6065 107.273 49.1577 107.273C48.7088 107.273 48.3395 107.389 48.0497 107.622C47.7599 107.855 47.5455 108.161 47.4062 108.538C47.267 108.916 47.1974 109.324 47.1974 109.761C47.1974 110.199 47.267 110.605 47.4062 110.98C47.5455 111.355 47.7599 111.658 48.0497 111.888C48.3395 112.118 48.7088 112.233 49.1577 112.233ZM56.1303 113.136C55.5849 113.136 55.1033 112.999 54.6857 112.723C54.2681 112.445 53.9414 112.053 53.7056 111.547C53.4698 111.038 53.3519 110.438 53.3519 109.744C53.3519 109.057 53.4698 108.46 53.7056 107.955C53.9414 107.449 54.2695 107.058 54.69 106.783C55.1104 106.507 55.5962 106.369 56.1474 106.369C56.5735 106.369 56.9102 106.44 57.1573 106.582C57.4073 106.722 57.5977 106.881 57.7283 107.06C57.8619 107.236 57.9656 107.381 58.0394 107.494H58.1246V104.273H59.1303V113H58.1587V111.994H58.0394C57.9656 112.114 57.8604 112.264 57.7241 112.446C57.5877 112.625 57.3931 112.786 57.1403 112.928C56.8874 113.067 56.5508 113.136 56.1303 113.136ZM56.2667 112.233C56.6701 112.233 57.011 112.128 57.2894 111.918C57.5678 111.705 57.7795 111.411 57.9244 111.036C58.0692 110.658 58.1417 110.222 58.1417 109.727C58.1417 109.239 58.0707 108.811 57.9286 108.445C57.7866 108.075 57.5763 107.788 57.2979 107.584C57.0195 107.376 56.6758 107.273 56.2667 107.273C55.8406 107.273 55.4854 107.382 55.2013 107.601C54.9201 107.817 54.7085 108.111 54.5664 108.483C54.4272 108.852 54.3576 109.267 54.3576 109.727C54.3576 110.193 54.4286 110.616 54.5707 110.997C54.7156 111.375 54.9286 111.676 55.2099 111.901C55.494 112.122 55.8462 112.233 56.2667 112.233ZM65.2369 110.324V106.455H66.2425V113H65.2369V111.892H65.1687C65.0153 112.224 64.7766 112.507 64.4528 112.74C64.1289 112.97 63.7198 113.085 63.2255 113.085C62.8164 113.085 62.4528 112.996 62.1346 112.817C61.8164 112.635 61.5664 112.362 61.3846 111.999C61.2028 111.632 61.1119 111.17 61.1119 110.614V106.455H62.1175V110.545C62.1175 111.023 62.2511 111.403 62.5181 111.688C62.788 111.972 63.1317 112.114 63.5494 112.114C63.7994 112.114 64.0536 112.05 64.3121 111.922C64.5735 111.794 64.7923 111.598 64.9684 111.334C65.1474 111.07 65.2369 110.733 65.2369 110.324ZM70.7436 113.136C70.13 113.136 69.6016 112.991 69.1584 112.702C68.7152 112.412 68.3743 112.013 68.1357 111.504C67.897 110.996 67.7777 110.415 67.7777 109.761C67.7777 109.097 67.8999 108.51 68.1442 108.001C68.3913 107.49 68.7351 107.091 69.1754 106.804C69.6186 106.514 70.1357 106.369 70.7266 106.369C71.1868 106.369 71.6016 106.455 71.9709 106.625C72.3402 106.795 72.6428 107.034 72.8786 107.341C73.1143 107.648 73.2607 108.006 73.3175 108.415H72.3118C72.2351 108.116 72.0646 107.852 71.8004 107.622C71.5391 107.389 71.1868 107.273 70.7436 107.273C70.3516 107.273 70.0078 107.375 69.7124 107.58C69.4197 107.781 69.1911 108.067 69.0263 108.436C68.8643 108.803 68.7834 109.233 68.7834 109.727C68.7834 110.233 68.8629 110.673 69.022 111.048C69.1839 111.423 69.4112 111.714 69.7038 111.922C69.9993 112.129 70.3459 112.233 70.7436 112.233C71.005 112.233 71.2422 112.188 71.4553 112.097C71.6683 112.006 71.8487 111.875 71.9964 111.705C72.1442 111.534 72.2493 111.33 72.3118 111.091H73.3175C73.2607 111.477 73.12 111.825 72.8956 112.135C72.674 112.442 72.38 112.686 72.0135 112.868C71.6499 113.047 71.2266 113.136 70.7436 113.136ZM77.6342 106.455V107.307H74.2422V106.455H77.6342ZM75.2308 104.886H76.2365V111.125C76.2365 111.409 76.2777 111.622 76.3601 111.764C76.4453 111.903 76.5533 111.997 76.6839 112.045C76.8175 112.091 76.9581 112.114 77.1058 112.114C77.2166 112.114 77.3075 112.108 77.3786 112.097C77.4496 112.082 77.5064 112.071 77.549 112.062L77.7536 112.966C77.6854 112.991 77.5902 113.017 77.468 113.043C77.3459 113.071 77.1911 113.085 77.0036 113.085C76.7195 113.085 76.4411 113.024 76.1683 112.902C75.8984 112.78 75.674 112.594 75.495 112.344C75.3189 112.094 75.2308 111.778 75.2308 111.398V104.886ZM79.147 113V106.455H80.1527V113H79.147ZM79.6584 105.364C79.4624 105.364 79.2933 105.297 79.1513 105.163C79.0121 105.03 78.9425 104.869 78.9425 104.682C78.9425 104.494 79.0121 104.334 79.1513 104.2C79.2933 104.067 79.4624 104 79.6584 104C79.8544 104 80.022 104.067 80.1612 104.2C80.3033 104.334 80.3743 104.494 80.3743 104.682C80.3743 104.869 80.3033 105.03 80.1612 105.163C80.022 105.297 79.8544 105.364 79.6584 105.364ZM87.3469 106.455L84.9265 113H83.9038L81.4833 106.455H82.5742L84.381 111.67H84.4492L86.256 106.455H87.3469ZM88.6744 113V106.455H89.68V113H88.6744ZM89.1857 105.364C88.9897 105.364 88.8207 105.297 88.6786 105.163C88.5394 105.03 88.4698 104.869 88.4698 104.682C88.4698 104.494 88.5394 104.334 88.6786 104.2C88.8207 104.067 88.9897 104 89.1857 104C89.3817 104 89.5494 104.067 89.6886 104.2C89.8306 104.334 89.9016 104.494 89.9016 104.682C89.9016 104.869 89.8306 105.03 89.6886 105.163C89.5494 105.297 89.3817 105.364 89.1857 105.364ZM94.3686 106.455V107.307H90.9766V106.455H94.3686ZM91.9652 104.886H92.9709V111.125C92.9709 111.409 93.0121 111.622 93.0945 111.764C93.1797 111.903 93.2876 111.997 93.4183 112.045C93.5518 112.091 93.6925 112.114 93.8402 112.114C93.951 112.114 94.0419 112.108 94.1129 112.097C94.1839 112.082 94.2408 112.071 94.2834 112.062L94.4879 112.966C94.4197 112.991 94.3246 113.017 94.2024 113.043C94.0803 113.071 93.9254 113.085 93.7379 113.085C93.4538 113.085 93.1754 113.024 92.9027 112.902C92.6328 112.78 92.4084 112.594 92.2294 112.344C92.0533 112.094 91.9652 111.778 91.9652 111.398V104.886ZM96.5291 115.455C96.3587 115.455 96.2067 115.44 96.0732 115.412C95.9396 115.386 95.8473 115.361 95.7962 115.335L96.0518 114.449C96.2962 114.511 96.5121 114.534 96.6996 114.517C96.8871 114.5 97.0533 114.416 97.1982 114.266C97.3459 114.118 97.4808 113.878 97.603 113.545L97.7905 113.034L95.37 106.455H96.4609L98.2678 111.67H98.3359L100.143 106.455H101.234L98.4553 113.955C98.3303 114.293 98.1754 114.572 97.9908 114.794C97.8061 115.018 97.5916 115.185 97.3473 115.293C97.1058 115.401 96.8331 115.455 96.5291 115.455ZM107.419 113L105.425 106.455H106.482L107.896 111.466H107.964L109.362 106.455H110.436L111.817 111.449H111.885L113.3 106.455H114.357L112.362 113H111.374L109.942 107.972H109.839L108.408 113H107.419ZM115.686 113V106.455H116.692V113H115.686ZM116.197 105.364C116.001 105.364 115.832 105.297 115.69 105.163C115.551 105.03 115.482 104.869 115.482 104.682C115.482 104.494 115.551 104.334 115.69 104.2C115.832 104.067 116.001 104 116.197 104C116.393 104 116.561 104.067 116.7 104.2C116.842 104.334 116.913 104.494 116.913 104.682C116.913 104.869 116.842 105.03 116.7 105.163C116.561 105.297 116.393 105.364 116.197 105.364ZM121.38 106.455V107.307H117.988V106.455H121.38ZM118.977 104.886H119.983V111.125C119.983 111.409 120.024 111.622 120.106 111.764C120.191 111.903 120.299 111.997 120.43 112.045C120.564 112.091 120.704 112.114 120.852 112.114C120.963 112.114 121.054 112.108 121.125 112.097C121.196 112.082 121.252 112.071 121.295 112.062L121.5 112.966C121.431 112.991 121.336 113.017 121.214 113.043C121.092 113.071 120.937 113.085 120.75 113.085C120.466 113.085 120.187 113.024 119.914 112.902C119.645 112.78 119.42 112.594 119.241 112.344C119.065 112.094 118.977 111.778 118.977 111.398V104.886ZM124.039 109.062V113H123.034V104.273H124.039V107.477H124.125C124.278 107.139 124.508 106.871 124.815 106.672C125.125 106.47 125.537 106.369 126.051 106.369C126.497 106.369 126.887 106.459 127.223 106.638C127.558 106.814 127.818 107.085 128.002 107.452C128.19 107.815 128.284 108.278 128.284 108.841V113H127.278V108.909C127.278 108.389 127.143 107.987 126.873 107.703C126.606 107.416 126.235 107.273 125.761 107.273C125.431 107.273 125.136 107.342 124.875 107.482C124.616 107.621 124.412 107.824 124.261 108.091C124.113 108.358 124.039 108.682 124.039 109.062ZM36.8466 128.153C36.4318 128.153 36.0554 128.075 35.7173 127.919C35.3793 127.76 35.1108 127.531 34.9119 127.233C34.7131 126.932 34.6136 126.568 34.6136 126.142C34.6136 125.767 34.6875 125.463 34.8352 125.23C34.983 124.994 35.1804 124.81 35.4276 124.676C35.6747 124.543 35.9474 124.443 36.2457 124.378C36.5469 124.31 36.8494 124.256 37.1534 124.216C37.5511 124.165 37.8736 124.126 38.1207 124.101C38.3707 124.072 38.5526 124.026 38.6662 123.96C38.7827 123.895 38.8409 123.781 38.8409 123.619V123.585C38.8409 123.165 38.7259 122.838 38.4957 122.605C38.2685 122.372 37.9233 122.256 37.4602 122.256C36.9801 122.256 36.6037 122.361 36.331 122.571C36.0582 122.781 35.8665 123.006 35.7557 123.244L34.8011 122.903C34.9716 122.506 35.1989 122.196 35.483 121.974C35.7699 121.75 36.0824 121.594 36.4205 121.506C36.7614 121.415 37.0966 121.369 37.4261 121.369C37.6364 121.369 37.8778 121.395 38.1506 121.446C38.4261 121.494 38.6918 121.595 38.9474 121.749C39.206 121.902 39.4205 122.134 39.5909 122.443C39.7614 122.753 39.8466 123.168 39.8466 123.688V128H38.8409V127.114H38.7898C38.7216 127.256 38.608 127.408 38.4489 127.57C38.2898 127.732 38.0781 127.869 37.8139 127.983C37.5497 128.097 37.2273 128.153 36.8466 128.153ZM37 127.25C37.3977 127.25 37.733 127.172 38.0057 127.016C38.2813 126.859 38.4886 126.658 38.6278 126.411C38.7699 126.163 38.8409 125.903 38.8409 125.631V124.71C38.7983 124.761 38.7045 124.808 38.5597 124.851C38.4176 124.891 38.2528 124.926 38.0653 124.957C37.8807 124.986 37.7003 125.011 37.5241 125.034C37.3509 125.054 37.2102 125.071 37.1023 125.085C36.8409 125.119 36.5966 125.175 36.3693 125.251C36.1449 125.325 35.9631 125.437 35.8239 125.588C35.6875 125.736 35.6193 125.937 35.6193 126.193C35.6193 126.543 35.7486 126.807 36.0071 126.986C36.2685 127.162 36.5994 127.25 37 127.25ZM42.6879 124.062V128H41.6822V121.455H42.6538V122.477H42.739C42.8924 122.145 43.1254 121.878 43.4379 121.676C43.7504 121.472 44.1538 121.369 44.6481 121.369C45.0913 121.369 45.479 121.46 45.8114 121.642C46.1438 121.821 46.4023 122.094 46.587 122.46C46.7717 122.824 46.864 123.284 46.864 123.841V128H45.8583V123.909C45.8583 123.395 45.7248 122.994 45.4577 122.707C45.1907 122.418 44.8242 122.273 44.3583 122.273C44.0373 122.273 43.7504 122.342 43.4975 122.482C43.2475 122.621 43.0501 122.824 42.9052 123.091C42.7603 123.358 42.6879 123.682 42.6879 124.062ZM52.571 128H51.4631L54.6676 119.273H55.7585L58.9631 128H57.8551L55.2472 120.653H55.179L52.571 128ZM52.9801 124.591H57.446V125.528H52.9801V124.591ZM61.3793 119.273V128H60.3224V119.273H61.3793ZM67.1119 123.79V124.727H63.2937V123.79H67.1119ZM71.6257 128.136C70.995 128.136 70.451 127.997 69.9936 127.719C69.5391 127.438 69.1882 127.045 68.9411 126.543C68.6967 126.037 68.5746 125.449 68.5746 124.778C68.5746 124.108 68.6967 123.517 68.9411 123.006C69.1882 122.491 69.532 122.091 69.9723 121.804C70.4155 121.514 70.9325 121.369 71.5234 121.369C71.8643 121.369 72.201 121.426 72.5334 121.54C72.8658 121.653 73.1683 121.838 73.4411 122.094C73.7138 122.347 73.9311 122.682 74.093 123.099C74.255 123.517 74.3359 124.031 74.3359 124.642V125.068H69.2905V124.199H73.3132C73.3132 123.83 73.2393 123.5 73.0916 123.21C72.9467 122.92 72.7393 122.692 72.4695 122.524C72.2024 122.357 71.8871 122.273 71.5234 122.273C71.1229 122.273 70.7763 122.372 70.4837 122.571C70.1939 122.767 69.9709 123.023 69.8146 123.338C69.6584 123.653 69.5803 123.991 69.5803 124.352V124.932C69.5803 125.426 69.6655 125.845 69.8359 126.189C70.0092 126.53 70.2493 126.79 70.5561 126.969C70.8629 127.145 71.2195 127.233 71.6257 127.233C71.8899 127.233 72.1286 127.196 72.3416 127.122C72.5575 127.045 72.7436 126.932 72.8999 126.781C73.0561 126.628 73.1768 126.437 73.2621 126.21L74.2337 126.483C74.1314 126.812 73.9595 127.102 73.718 127.352C73.4766 127.599 73.1783 127.793 72.8232 127.932C72.468 128.068 72.0689 128.136 71.6257 128.136ZM76.8714 124.062V128H75.8658V121.455H76.8374V122.477H76.9226C77.076 122.145 77.3089 121.878 77.6214 121.676C77.9339 121.472 78.3374 121.369 78.8317 121.369C79.2749 121.369 79.6626 121.46 79.995 121.642C80.3274 121.821 80.5859 122.094 80.7706 122.46C80.9553 122.824 81.0476 123.284 81.0476 123.841V128H80.0419V123.909C80.0419 123.395 79.9084 122.994 79.6413 122.707C79.3743 122.418 79.0078 122.273 78.5419 122.273C78.2209 122.273 77.9339 122.342 77.6811 122.482C77.4311 122.621 77.2337 122.824 77.0888 123.091C76.9439 123.358 76.8714 123.682 76.8714 124.062ZM83.891 124.062V128H82.8853V119.273H83.891V122.477H83.9762C84.1296 122.139 84.3597 121.871 84.6665 121.672C84.9762 121.47 85.3881 121.369 85.9023 121.369C86.3484 121.369 86.739 121.459 87.0742 121.638C87.4094 121.814 87.6694 122.085 87.854 122.452C88.0415 122.815 88.1353 123.278 88.1353 123.841V128H87.1296V123.909C87.1296 123.389 86.9947 122.987 86.7248 122.703C86.4577 122.416 86.087 122.273 85.6126 122.273C85.283 122.273 84.9876 122.342 84.7262 122.482C84.4677 122.621 84.2631 122.824 84.1126 123.091C83.9648 123.358 83.891 123.682 83.891 124.062ZM91.9013 128.153C91.4865 128.153 91.1101 128.075 90.772 127.919C90.4339 127.76 90.1655 127.531 89.9666 127.233C89.7678 126.932 89.6683 126.568 89.6683 126.142C89.6683 125.767 89.7422 125.463 89.8899 125.23C90.0376 124.994 90.2351 124.81 90.4822 124.676C90.7294 124.543 91.0021 124.443 91.3004 124.378C91.6016 124.31 91.9041 124.256 92.2081 124.216C92.6058 124.165 92.9283 124.126 93.1754 124.101C93.4254 124.072 93.6072 124.026 93.7209 123.96C93.8374 123.895 93.8956 123.781 93.8956 123.619V123.585C93.8956 123.165 93.7805 122.838 93.5504 122.605C93.3232 122.372 92.978 122.256 92.5149 122.256C92.0348 122.256 91.6584 122.361 91.3857 122.571C91.1129 122.781 90.9212 123.006 90.8104 123.244L89.8558 122.903C90.0263 122.506 90.2536 122.196 90.5376 121.974C90.8246 121.75 91.1371 121.594 91.4751 121.506C91.8161 121.415 92.1513 121.369 92.4808 121.369C92.6911 121.369 92.9325 121.395 93.2053 121.446C93.4808 121.494 93.7464 121.595 94.0021 121.749C94.2607 121.902 94.4751 122.134 94.6456 122.443C94.8161 122.753 94.9013 123.168 94.9013 123.688V128H93.8956V127.114H93.8445C93.7763 127.256 93.6626 127.408 93.5036 127.57C93.3445 127.732 93.1328 127.869 92.8686 127.983C92.6044 128.097 92.282 128.153 91.9013 128.153ZM92.0547 127.25C92.4524 127.25 92.7876 127.172 93.0604 127.016C93.3359 126.859 93.5433 126.658 93.6825 126.411C93.8246 126.163 93.8956 125.903 93.8956 125.631V124.71C93.853 124.761 93.7592 124.808 93.6143 124.851C93.4723 124.891 93.3075 124.926 93.12 124.957C92.9354 124.986 92.755 125.011 92.5788 125.034C92.4055 125.054 92.2649 125.071 92.157 125.085C91.8956 125.119 91.6513 125.175 91.424 125.251C91.1996 125.325 91.0178 125.437 90.8786 125.588C90.7422 125.736 90.674 125.937 90.674 126.193C90.674 126.543 90.8033 126.807 91.0618 126.986C91.3232 127.162 91.6541 127.25 92.0547 127.25ZM97.7425 124.062V128H96.7369V121.455H97.7085V122.477H97.7937C97.9471 122.145 98.18 121.878 98.4925 121.676C98.805 121.472 99.2085 121.369 99.7028 121.369C100.146 121.369 100.534 121.46 100.866 121.642C101.199 121.821 101.457 122.094 101.642 122.46C101.826 122.824 101.919 123.284 101.919 123.841V128H100.913V123.909C100.913 123.395 100.779 122.994 100.512 122.707C100.245 122.418 99.8789 122.273 99.413 122.273C99.092 122.273 98.805 122.342 98.5522 122.482C98.3022 122.621 98.1048 122.824 97.9599 123.091C97.815 123.358 97.7425 123.682 97.7425 124.062ZM106.415 128.136C105.802 128.136 105.273 127.991 104.83 127.702C104.387 127.412 104.046 127.013 103.808 126.504C103.569 125.996 103.45 125.415 103.45 124.761C103.45 124.097 103.572 123.51 103.816 123.001C104.063 122.49 104.407 122.091 104.847 121.804C105.29 121.514 105.808 121.369 106.398 121.369C106.859 121.369 107.273 121.455 107.643 121.625C108.012 121.795 108.315 122.034 108.55 122.341C108.786 122.648 108.933 123.006 108.989 123.415H107.984C107.907 123.116 107.737 122.852 107.472 122.622C107.211 122.389 106.859 122.273 106.415 122.273C106.023 122.273 105.68 122.375 105.384 122.58C105.092 122.781 104.863 123.067 104.698 123.436C104.536 123.803 104.455 124.233 104.455 124.727C104.455 125.233 104.535 125.673 104.694 126.048C104.856 126.423 105.083 126.714 105.376 126.922C105.671 127.129 106.018 127.233 106.415 127.233C106.677 127.233 106.914 127.188 107.127 127.097C107.34 127.006 107.521 126.875 107.668 126.705C107.816 126.534 107.921 126.33 107.984 126.091H108.989C108.933 126.477 108.792 126.825 108.567 127.135C108.346 127.442 108.052 127.686 107.685 127.868C107.322 128.047 106.898 128.136 106.415 128.136ZM113.204 128.136C112.573 128.136 112.029 127.997 111.572 127.719C111.117 127.438 110.766 127.045 110.519 126.543C110.275 126.037 110.153 125.449 110.153 124.778C110.153 124.108 110.275 123.517 110.519 123.006C110.766 122.491 111.11 122.091 111.55 121.804C111.994 121.514 112.511 121.369 113.102 121.369C113.442 121.369 113.779 121.426 114.112 121.54C114.444 121.653 114.746 121.838 115.019 122.094C115.292 122.347 115.509 122.682 115.671 123.099C115.833 123.517 115.914 124.031 115.914 124.642V125.068H110.869V124.199H114.891C114.891 123.83 114.817 123.5 114.67 123.21C114.525 122.92 114.317 122.692 114.048 122.524C113.781 122.357 113.465 122.273 113.102 122.273C112.701 122.273 112.354 122.372 112.062 122.571C111.772 122.767 111.549 123.023 111.393 123.338C111.237 123.653 111.158 123.991 111.158 124.352V124.932C111.158 125.426 111.244 125.845 111.414 126.189C111.587 126.53 111.827 126.79 112.134 126.969C112.441 127.145 112.798 127.233 113.204 127.233C113.468 127.233 113.707 127.196 113.92 127.122C114.136 127.045 114.322 126.932 114.478 126.781C114.634 126.628 114.755 126.437 114.84 126.21L115.812 126.483C115.71 126.812 115.538 127.102 115.296 127.352C115.055 127.599 114.756 127.793 114.401 127.932C114.046 128.068 113.647 128.136 113.204 128.136ZM119.915 128.136C119.37 128.136 118.888 127.999 118.471 127.723C118.053 127.445 117.727 127.053 117.491 126.547C117.255 126.038 117.137 125.438 117.137 124.744C117.137 124.057 117.255 123.46 117.491 122.955C117.727 122.449 118.055 122.058 118.475 121.783C118.896 121.507 119.381 121.369 119.933 121.369C120.359 121.369 120.695 121.44 120.942 121.582C121.192 121.722 121.383 121.881 121.513 122.06C121.647 122.236 121.751 122.381 121.825 122.494H121.91V119.273H122.915V128H121.944V126.994H121.825C121.751 127.114 121.646 127.264 121.509 127.446C121.373 127.625 121.178 127.786 120.925 127.928C120.673 128.067 120.336 128.136 119.915 128.136ZM120.052 127.233C120.455 127.233 120.796 127.128 121.075 126.918C121.353 126.705 121.565 126.411 121.71 126.036C121.854 125.658 121.927 125.222 121.927 124.727C121.927 124.239 121.856 123.811 121.714 123.445C121.572 123.075 121.362 122.788 121.083 122.584C120.805 122.376 120.461 122.273 120.052 122.273C119.626 122.273 119.271 122.382 118.987 122.601C118.705 122.817 118.494 123.111 118.352 123.483C118.212 123.852 118.143 124.267 118.143 124.727C118.143 125.193 118.214 125.616 118.356 125.997C118.501 126.375 118.714 126.676 118.995 126.901C119.279 127.122 119.631 127.233 120.052 127.233ZM34.9205 143V136.455H35.9261V143H34.9205ZM35.4318 135.364C35.2358 135.364 35.0668 135.297 34.9247 135.163C34.7855 135.03 34.7159 134.869 34.7159 134.682C34.7159 134.494 34.7855 134.334 34.9247 134.2C35.0668 134.067 35.2358 134 35.4318 134C35.6278 134 35.7955 134.067 35.9347 134.2C36.0767 134.334 36.1477 134.494 36.1477 134.682C36.1477 134.869 36.0767 135.03 35.9347 135.163C35.7955 135.297 35.6278 135.364 35.4318 135.364ZM38.7738 139.062V143H37.7681V136.455H38.7397V137.477H38.8249C38.9783 137.145 39.2113 136.878 39.5238 136.676C39.8363 136.472 40.2397 136.369 40.734 136.369C41.1772 136.369 41.565 136.46 41.8974 136.642C42.2298 136.821 42.4883 137.094 42.6729 137.46C42.8576 137.824 42.9499 138.284 42.9499 138.841V143H41.9442V138.909C41.9442 138.395 41.8107 137.994 41.5437 137.707C41.2766 137.418 40.9102 137.273 40.4442 137.273C40.1232 137.273 39.8363 137.342 39.5835 137.482C39.3335 137.621 39.136 137.824 38.9911 138.091C38.8462 138.358 38.7738 138.682 38.7738 139.062ZM44.924 143V134.273H45.9297V137.494H46.0149C46.0888 137.381 46.1911 137.236 46.3217 137.06C46.4553 136.881 46.6456 136.722 46.8928 136.582C47.1428 136.44 47.4808 136.369 47.907 136.369C48.4581 136.369 48.9439 136.507 49.3643 136.783C49.7848 137.058 50.1129 137.449 50.3487 137.955C50.5845 138.46 50.7024 139.057 50.7024 139.744C50.7024 140.438 50.5845 141.038 50.3487 141.547C50.1129 142.053 49.7862 142.445 49.3686 142.723C48.951 142.999 48.4695 143.136 47.924 143.136C47.5036 143.136 47.1669 143.067 46.9141 142.928C46.6612 142.786 46.4666 142.625 46.3303 142.446C46.1939 142.264 46.0888 142.114 46.0149 141.994H45.8956V143H44.924ZM45.9126 139.727C45.9126 140.222 45.9851 140.658 46.13 141.036C46.2749 141.411 46.4865 141.705 46.7649 141.918C47.0433 142.128 47.3842 142.233 47.7876 142.233C48.2081 142.233 48.5589 142.122 48.8402 141.901C49.1243 141.676 49.3374 141.375 49.4794 140.997C49.6243 140.616 49.6967 140.193 49.6967 139.727C49.6967 139.267 49.6257 138.852 49.4837 138.483C49.3445 138.111 49.1328 137.817 48.8487 137.601C48.5675 137.382 48.2138 137.273 47.7876 137.273C47.3786 137.273 47.0348 137.376 46.7564 137.584C46.478 137.788 46.2678 138.075 46.1257 138.445C45.9837 138.811 45.9126 139.239 45.9126 139.727ZM54.8999 143.136C54.3089 143.136 53.7905 142.996 53.3445 142.714C52.9013 142.433 52.5547 142.04 52.3047 141.534C52.0575 141.028 51.9339 140.437 51.9339 139.761C51.9339 139.08 52.0575 138.484 52.3047 137.976C52.5547 137.467 52.9013 137.072 53.3445 136.791C53.7905 136.51 54.3089 136.369 54.8999 136.369C55.4908 136.369 56.0078 136.51 56.451 136.791C56.897 137.072 57.2436 137.467 57.4908 137.976C57.7408 138.484 57.8658 139.08 57.8658 139.761C57.8658 140.437 57.7408 141.028 57.4908 141.534C57.2436 142.04 56.897 142.433 56.451 142.714C56.0078 142.996 55.4908 143.136 54.8999 143.136ZM54.8999 142.233C55.3487 142.233 55.718 142.118 56.0078 141.888C56.2976 141.658 56.5121 141.355 56.6513 140.98C56.7905 140.605 56.8601 140.199 56.8601 139.761C56.8601 139.324 56.7905 138.916 56.6513 138.538C56.5121 138.161 56.2976 137.855 56.0078 137.622C55.718 137.389 55.3487 137.273 54.8999 137.273C54.451 137.273 54.0817 137.389 53.7919 137.622C53.5021 137.855 53.2876 138.161 53.1484 138.538C53.0092 138.916 52.9396 139.324 52.9396 139.761C52.9396 140.199 53.0092 140.605 53.1484 140.98C53.2876 141.355 53.5021 141.658 53.7919 141.888C54.0817 142.118 54.451 142.233 54.8999 142.233ZM59.8814 136.455L61.4496 139.131L63.0178 136.455H64.1768L62.0632 139.727L64.1768 143H63.0178L61.4496 140.46L59.8814 143H58.7223L60.8018 139.727L58.7223 136.455H59.8814ZM65.7482 134.273H67.0096L69.9755 141.517H70.0778L73.0437 134.273H74.305V143H73.3164V136.369H73.2312L70.5039 143H69.5494L66.8221 136.369H66.7369V143H65.7482V134.273ZM78.2138 143.153C77.799 143.153 77.4226 143.075 77.0845 142.919C76.7464 142.76 76.478 142.531 76.2791 142.233C76.0803 141.932 75.9808 141.568 75.9808 141.142C75.9808 140.767 76.0547 140.463 76.2024 140.23C76.3501 139.994 76.5476 139.81 76.7947 139.676C77.0419 139.543 77.3146 139.443 77.6129 139.378C77.9141 139.31 78.2166 139.256 78.5206 139.216C78.9183 139.165 79.2408 139.126 79.4879 139.101C79.7379 139.072 79.9197 139.026 80.0334 138.96C80.1499 138.895 80.2081 138.781 80.2081 138.619V138.585C80.2081 138.165 80.093 137.838 79.8629 137.605C79.6357 137.372 79.2905 137.256 78.8274 137.256C78.3473 137.256 77.9709 137.361 77.6982 137.571C77.4254 137.781 77.2337 138.006 77.1229 138.244L76.1683 137.903C76.3388 137.506 76.5661 137.196 76.8501 136.974C77.1371 136.75 77.4496 136.594 77.7876 136.506C78.1286 136.415 78.4638 136.369 78.7933 136.369C79.0036 136.369 79.245 136.395 79.5178 136.446C79.7933 136.494 80.0589 136.595 80.3146 136.749C80.5732 136.902 80.7876 137.134 80.9581 137.443C81.1286 137.753 81.2138 138.168 81.2138 138.688V143H80.2081V142.114H80.157C80.0888 142.256 79.9751 142.408 79.8161 142.57C79.657 142.732 79.4453 142.869 79.1811 142.983C78.9169 143.097 78.5945 143.153 78.2138 143.153ZM78.3672 142.25C78.7649 142.25 79.1001 142.172 79.3729 142.016C79.6484 141.859 79.8558 141.658 79.995 141.411C80.1371 141.163 80.2081 140.903 80.2081 140.631V139.71C80.1655 139.761 80.0717 139.808 79.9268 139.851C79.7848 139.891 79.62 139.926 79.4325 139.957C79.2479 139.986 79.0675 140.011 78.8913 140.034C78.718 140.054 78.5774 140.071 78.4695 140.085C78.2081 140.119 77.9638 140.175 77.7365 140.251C77.5121 140.325 77.3303 140.437 77.1911 140.588C77.0547 140.736 76.9865 140.937 76.9865 141.193C76.9865 141.543 77.1158 141.807 77.3743 141.986C77.6357 142.162 77.9666 142.25 78.3672 142.25ZM83.7994 136.455L85.3675 139.131L86.9357 136.455H88.0948L85.9812 139.727L88.0948 143H86.9357L85.3675 140.46L83.7994 143H82.6403L84.7198 139.727L82.6403 136.455H83.7994ZM89.5298 143V136.455H90.5355V143H89.5298ZM90.0412 135.364C89.8452 135.364 89.6761 135.297 89.5341 135.163C89.3949 135.03 89.3253 134.869 89.3253 134.682C89.3253 134.494 89.3949 134.334 89.5341 134.2C89.6761 134.067 89.8452 134 90.0412 134C90.2372 134 90.4048 134.067 90.544 134.2C90.6861 134.334 90.7571 134.494 90.7571 134.682C90.7571 134.869 90.6861 135.03 90.544 135.163C90.4048 135.297 90.2372 135.364 90.0412 135.364ZM92.3775 143V136.455H93.3491V137.477H93.4343C93.5707 137.128 93.7908 136.857 94.0948 136.663C94.3988 136.467 94.7638 136.369 95.19 136.369C95.6218 136.369 95.9812 136.467 96.2681 136.663C96.5579 136.857 96.7837 137.128 96.9457 137.477H97.0138C97.1815 137.139 97.4329 136.871 97.7681 136.672C98.1033 136.47 98.5053 136.369 98.9741 136.369C99.5593 136.369 100.038 136.553 100.41 136.919C100.782 137.283 100.968 137.849 100.968 138.619V143H99.9627V138.619C99.9627 138.136 99.8306 137.791 99.5664 137.584C99.3022 137.376 98.9911 137.273 98.6332 137.273C98.1729 137.273 97.8164 137.412 97.5636 137.69C97.3107 137.966 97.1843 138.315 97.1843 138.739V143H96.1616V138.517C96.1616 138.145 96.0408 137.845 95.7994 137.618C95.5579 137.388 95.2468 137.273 94.8661 137.273C94.6048 137.273 94.3604 137.342 94.1332 137.482C93.9087 137.621 93.7269 137.814 93.5877 138.061C93.4513 138.305 93.3832 138.588 93.3832 138.909V143H92.3775ZM102.807 143V136.455H103.813V143H102.807ZM103.319 135.364C103.123 135.364 102.953 135.297 102.811 135.163C102.672 135.03 102.603 134.869 102.603 134.682C102.603 134.494 102.672 134.334 102.811 134.2C102.953 134.067 103.123 134 103.319 134C103.515 134 103.682 134.067 103.821 134.2C103.963 134.334 104.034 134.494 104.034 134.682C104.034 134.869 103.963 135.03 103.821 135.163C103.682 135.297 103.515 135.364 103.319 135.364ZM105.467 143V142.233L109.183 137.46V137.392H105.587V136.455H110.479V137.256L106.865 141.994V142.062H110.598V143H105.467ZM114.704 143.136C114.073 143.136 113.529 142.997 113.072 142.719C112.617 142.438 112.266 142.045 112.019 141.543C111.775 141.037 111.653 140.449 111.653 139.778C111.653 139.108 111.775 138.517 112.019 138.006C112.266 137.491 112.61 137.091 113.05 136.804C113.494 136.514 114.011 136.369 114.602 136.369C114.942 136.369 115.279 136.426 115.612 136.54C115.944 136.653 116.246 136.838 116.519 137.094C116.792 137.347 117.009 137.682 117.171 138.099C117.333 138.517 117.414 139.031 117.414 139.642V140.068H112.369V139.199H116.391C116.391 138.83 116.317 138.5 116.17 138.21C116.025 137.92 115.817 137.692 115.548 137.524C115.281 137.357 114.965 137.273 114.602 137.273C114.201 137.273 113.854 137.372 113.562 137.571C113.272 137.767 113.049 138.023 112.893 138.338C112.737 138.653 112.658 138.991 112.658 139.352V139.932C112.658 140.426 112.744 140.845 112.914 141.189C113.087 141.53 113.327 141.79 113.634 141.969C113.941 142.145 114.298 142.233 114.704 142.233C114.968 142.233 115.207 142.196 115.42 142.122C115.636 142.045 115.822 141.932 115.978 141.781C116.134 141.628 116.255 141.437 116.34 141.21L117.312 141.483C117.21 141.812 117.038 142.102 116.796 142.352C116.555 142.599 116.256 142.793 115.901 142.932C115.546 143.068 115.147 143.136 114.704 143.136ZM34.9205 160.455V151.455H35.892V152.494H36.0114C36.0852 152.381 36.1875 152.236 36.3182 152.06C36.4517 151.881 36.642 151.722 36.8892 151.582C37.1392 151.44 37.4773 151.369 37.9034 151.369C38.4545 151.369 38.9403 151.507 39.3608 151.783C39.7813 152.058 40.1094 152.449 40.3452 152.955C40.581 153.46 40.6989 154.057 40.6989 154.744C40.6989 155.438 40.581 156.038 40.3452 156.547C40.1094 157.053 39.7827 157.445 39.3651 157.723C38.9474 157.999 38.4659 158.136 37.9205 158.136C37.5 158.136 37.1634 158.067 36.9105 157.928C36.6577 157.786 36.4631 157.625 36.3267 157.446C36.1903 157.264 36.0852 157.114 36.0114 156.994H35.9261V160.455H34.9205ZM35.9091 154.727C35.9091 155.222 35.9815 155.658 36.1264 156.036C36.2713 156.411 36.483 156.705 36.7614 156.918C37.0398 157.128 37.3807 157.233 37.7841 157.233C38.2045 157.233 38.5554 157.122 38.8366 156.901C39.1207 156.676 39.3338 156.375 39.4759 155.997C39.6207 155.616 39.6932 155.193 39.6932 154.727C39.6932 154.267 39.6222 153.852 39.4801 153.483C39.3409 153.111 39.1293 152.817 38.8452 152.601C38.5639 152.382 38.2102 152.273 37.7841 152.273C37.375 152.273 37.0313 152.376 36.7528 152.584C36.4744 152.788 36.2642 153.075 36.1222 153.445C35.9801 153.811 35.9091 154.239 35.9091 154.727ZM42.233 158V151.455H43.2045V152.443H43.2727C43.392 152.119 43.608 151.857 43.9205 151.655C44.233 151.453 44.5852 151.352 44.9773 151.352C45.0511 151.352 45.1435 151.354 45.2543 151.357C45.3651 151.359 45.4489 151.364 45.5057 151.369V152.392C45.4716 152.384 45.3935 152.371 45.2713 152.354C45.152 152.334 45.0256 152.324 44.892 152.324C44.5739 152.324 44.2898 152.391 44.0398 152.524C43.7926 152.655 43.5966 152.837 43.4517 153.07C43.3097 153.3 43.2386 153.562 43.2386 153.858V158H42.233ZM49.1577 158.136C48.5668 158.136 48.0483 157.996 47.6023 157.714C47.1591 157.433 46.8125 157.04 46.5625 156.534C46.3153 156.028 46.1918 155.437 46.1918 154.761C46.1918 154.08 46.3153 153.484 46.5625 152.976C46.8125 152.467 47.1591 152.072 47.6023 151.791C48.0483 151.51 48.5668 151.369 49.1577 151.369C49.7486 151.369 50.2656 151.51 50.7088 151.791C51.1548 152.072 51.5014 152.467 51.7486 152.976C51.9986 153.484 52.1236 154.08 52.1236 154.761C52.1236 155.437 51.9986 156.028 51.7486 156.534C51.5014 157.04 51.1548 157.433 50.7088 157.714C50.2656 157.996 49.7486 158.136 49.1577 158.136ZM49.1577 157.233C49.6065 157.233 49.9759 157.118 50.2656 156.888C50.5554 156.658 50.7699 156.355 50.9091 155.98C51.0483 155.605 51.1179 155.199 51.1179 154.761C51.1179 154.324 51.0483 153.916 50.9091 153.538C50.7699 153.161 50.5554 152.855 50.2656 152.622C49.9759 152.389 49.6065 152.273 49.1577 152.273C48.7088 152.273 48.3395 152.389 48.0497 152.622C47.7599 152.855 47.5455 153.161 47.4062 153.538C47.267 153.916 47.1974 154.324 47.1974 154.761C47.1974 155.199 47.267 155.605 47.4062 155.98C47.5455 156.355 47.7599 156.658 48.0497 156.888C48.3395 157.118 48.7088 157.233 49.1577 157.233ZM56.1303 158.136C55.5849 158.136 55.1033 157.999 54.6857 157.723C54.2681 157.445 53.9414 157.053 53.7056 156.547C53.4698 156.038 53.3519 155.438 53.3519 154.744C53.3519 154.057 53.4698 153.46 53.7056 152.955C53.9414 152.449 54.2695 152.058 54.69 151.783C55.1104 151.507 55.5962 151.369 56.1474 151.369C56.5735 151.369 56.9102 151.44 57.1573 151.582C57.4073 151.722 57.5977 151.881 57.7283 152.06C57.8619 152.236 57.9656 152.381 58.0394 152.494H58.1246V149.273H59.1303V158H58.1587V156.994H58.0394C57.9656 157.114 57.8604 157.264 57.7241 157.446C57.5877 157.625 57.3931 157.786 57.1403 157.928C56.8874 158.067 56.5508 158.136 56.1303 158.136ZM56.2667 157.233C56.6701 157.233 57.011 157.128 57.2894 156.918C57.5678 156.705 57.7795 156.411 57.9244 156.036C58.0692 155.658 58.1417 155.222 58.1417 154.727C58.1417 154.239 58.0707 153.811 57.9286 153.445C57.7866 153.075 57.5763 152.788 57.2979 152.584C57.0195 152.376 56.6758 152.273 56.2667 152.273C55.8406 152.273 55.4854 152.382 55.2013 152.601C54.9201 152.817 54.7085 153.111 54.5664 153.483C54.4272 153.852 54.3576 154.267 54.3576 154.727C54.3576 155.193 54.4286 155.616 54.5707 155.997C54.7156 156.375 54.9286 156.676 55.2099 156.901C55.494 157.122 55.8462 157.233 56.2667 157.233ZM65.2369 155.324V151.455H66.2425V158H65.2369V156.892H65.1687C65.0153 157.224 64.7766 157.507 64.4528 157.74C64.1289 157.97 63.7198 158.085 63.2255 158.085C62.8164 158.085 62.4528 157.996 62.1346 157.817C61.8164 157.635 61.5664 157.362 61.3846 156.999C61.2028 156.632 61.1119 156.17 61.1119 155.614V151.455H62.1175V155.545C62.1175 156.023 62.2511 156.403 62.5181 156.688C62.788 156.972 63.1317 157.114 63.5494 157.114C63.7994 157.114 64.0536 157.05 64.3121 156.922C64.5735 156.794 64.7923 156.598 64.9684 156.334C65.1474 156.07 65.2369 155.733 65.2369 155.324ZM70.7436 158.136C70.13 158.136 69.6016 157.991 69.1584 157.702C68.7152 157.412 68.3743 157.013 68.1357 156.504C67.897 155.996 67.7777 155.415 67.7777 154.761C67.7777 154.097 67.8999 153.51 68.1442 153.001C68.3913 152.49 68.7351 152.091 69.1754 151.804C69.6186 151.514 70.1357 151.369 70.7266 151.369C71.1868 151.369 71.6016 151.455 71.9709 151.625C72.3402 151.795 72.6428 152.034 72.8786 152.341C73.1143 152.648 73.2607 153.006 73.3175 153.415H72.3118C72.2351 153.116 72.0646 152.852 71.8004 152.622C71.5391 152.389 71.1868 152.273 70.7436 152.273C70.3516 152.273 70.0078 152.375 69.7124 152.58C69.4197 152.781 69.1911 153.067 69.0263 153.436C68.8643 153.803 68.7834 154.233 68.7834 154.727C68.7834 155.233 68.8629 155.673 69.022 156.048C69.1839 156.423 69.4112 156.714 69.7038 156.922C69.9993 157.129 70.3459 157.233 70.7436 157.233C71.005 157.233 71.2422 157.188 71.4553 157.097C71.6683 157.006 71.8487 156.875 71.9964 156.705C72.1442 156.534 72.2493 156.33 72.3118 156.091H73.3175C73.2607 156.477 73.12 156.825 72.8956 157.135C72.674 157.442 72.38 157.686 72.0135 157.868C71.6499 158.047 71.2266 158.136 70.7436 158.136ZM77.6342 151.455V152.307H74.2422V151.455H77.6342ZM75.2308 149.886H76.2365V156.125C76.2365 156.409 76.2777 156.622 76.3601 156.764C76.4453 156.903 76.5533 156.997 76.6839 157.045C76.8175 157.091 76.9581 157.114 77.1058 157.114C77.2166 157.114 77.3075 157.108 77.3786 157.097C77.4496 157.082 77.5064 157.071 77.549 157.062L77.7536 157.966C77.6854 157.991 77.5902 158.017 77.468 158.043C77.3459 158.071 77.1911 158.085 77.0036 158.085C76.7195 158.085 76.4411 158.024 76.1683 157.902C75.8984 157.78 75.674 157.594 75.495 157.344C75.3189 157.094 75.2308 156.778 75.2308 156.398V149.886ZM79.147 158V151.455H80.1527V158H79.147ZM79.6584 150.364C79.4624 150.364 79.2933 150.297 79.1513 150.163C79.0121 150.03 78.9425 149.869 78.9425 149.682C78.9425 149.494 79.0121 149.334 79.1513 149.2C79.2933 149.067 79.4624 149 79.6584 149C79.8544 149 80.022 149.067 80.1612 149.2C80.3033 149.334 80.3743 149.494 80.3743 149.682C80.3743 149.869 80.3033 150.03 80.1612 150.163C80.022 150.297 79.8544 150.364 79.6584 150.364ZM87.3469 151.455L84.9265 158H83.9038L81.4833 151.455H82.5742L84.381 156.67H84.4492L86.256 151.455H87.3469ZM88.6744 158V151.455H89.68V158H88.6744ZM89.1857 150.364C88.9897 150.364 88.8207 150.297 88.6786 150.163C88.5394 150.03 88.4698 149.869 88.4698 149.682C88.4698 149.494 88.5394 149.334 88.6786 149.2C88.8207 149.067 88.9897 149 89.1857 149C89.3817 149 89.5494 149.067 89.6886 149.2C89.8306 149.334 89.9016 149.494 89.9016 149.682C89.9016 149.869 89.8306 150.03 89.6886 150.163C89.5494 150.297 89.3817 150.364 89.1857 150.364ZM94.3686 151.455V152.307H90.9766V151.455H94.3686ZM91.9652 149.886H92.9709V156.125C92.9709 156.409 93.0121 156.622 93.0945 156.764C93.1797 156.903 93.2876 156.997 93.4183 157.045C93.5518 157.091 93.6925 157.114 93.8402 157.114C93.951 157.114 94.0419 157.108 94.1129 157.097C94.1839 157.082 94.2408 157.071 94.2834 157.062L94.4879 157.966C94.4197 157.991 94.3246 158.017 94.2024 158.043C94.0803 158.071 93.9254 158.085 93.7379 158.085C93.4538 158.085 93.1754 158.024 92.9027 157.902C92.6328 157.78 92.4084 157.594 92.2294 157.344C92.0533 157.094 91.9652 156.778 91.9652 156.398V149.886ZM96.5291 160.455C96.3587 160.455 96.2067 160.44 96.0732 160.412C95.9396 160.386 95.8473 160.361 95.7962 160.335L96.0518 159.449C96.2962 159.511 96.5121 159.534 96.6996 159.517C96.8871 159.5 97.0533 159.416 97.1982 159.266C97.3459 159.118 97.4808 158.878 97.603 158.545L97.7905 158.034L95.37 151.455H96.4609L98.2678 156.67H98.3359L100.143 151.455H101.234L98.4553 158.955C98.3303 159.293 98.1754 159.572 97.9908 159.794C97.8061 160.018 97.5916 160.185 97.3473 160.293C97.1058 160.401 96.8331 160.455 96.5291 160.455ZM107.419 158L105.425 151.455H106.482L107.896 156.466H107.964L109.362 151.455H110.436L111.817 156.449H111.885L113.3 151.455H114.357L112.362 158H111.374L109.942 152.972H109.839L108.408 158H107.419ZM115.686 158V151.455H116.692V158H115.686ZM116.197 150.364C116.001 150.364 115.832 150.297 115.69 150.163C115.551 150.03 115.482 149.869 115.482 149.682C115.482 149.494 115.551 149.334 115.69 149.2C115.832 149.067 116.001 149 116.197 149C116.393 149 116.561 149.067 116.7 149.2C116.842 149.334 116.913 149.494 116.913 149.682C116.913 149.869 116.842 150.03 116.7 150.163C116.561 150.297 116.393 150.364 116.197 150.364ZM121.38 151.455V152.307H117.988V151.455H121.38ZM118.977 149.886H119.983V156.125C119.983 156.409 120.024 156.622 120.106 156.764C120.191 156.903 120.299 156.997 120.43 157.045C120.564 157.091 120.704 157.114 120.852 157.114C120.963 157.114 121.054 157.108 121.125 157.097C121.196 157.082 121.252 157.071 121.295 157.062L121.5 157.966C121.431 157.991 121.336 158.017 121.214 158.043C121.092 158.071 120.937 158.085 120.75 158.085C120.466 158.085 120.187 158.024 119.914 157.902C119.645 157.78 119.42 157.594 119.241 157.344C119.065 157.094 118.977 156.778 118.977 156.398V149.886ZM124.039 154.062V158H123.034V149.273H124.039V152.477H124.125C124.278 152.139 124.508 151.871 124.815 151.672C125.125 151.47 125.537 151.369 126.051 151.369C126.497 151.369 126.887 151.459 127.223 151.638C127.558 151.814 127.818 152.085 128.002 152.452C128.19 152.815 128.284 153.278 128.284 153.841V158H127.278V153.909C127.278 153.389 127.143 152.987 126.873 152.703C126.606 152.416 126.235 152.273 125.761 152.273C125.431 152.273 125.136 152.342 124.875 152.482C124.616 152.621 124.412 152.824 124.261 153.091C124.113 153.358 124.039 153.682 124.039 154.062ZM36.8466 173.153C36.4318 173.153 36.0554 173.075 35.7173 172.919C35.3793 172.76 35.1108 172.531 34.9119 172.233C34.7131 171.932 34.6136 171.568 34.6136 171.142C34.6136 170.767 34.6875 170.463 34.8352 170.23C34.983 169.994 35.1804 169.81 35.4276 169.676C35.6747 169.543 35.9474 169.443 36.2457 169.378C36.5469 169.31 36.8494 169.256 37.1534 169.216C37.5511 169.165 37.8736 169.126 38.1207 169.101C38.3707 169.072 38.5526 169.026 38.6662 168.96C38.7827 168.895 38.8409 168.781 38.8409 168.619V168.585C38.8409 168.165 38.7259 167.838 38.4957 167.605C38.2685 167.372 37.9233 167.256 37.4602 167.256C36.9801 167.256 36.6037 167.361 36.331 167.571C36.0582 167.781 35.8665 168.006 35.7557 168.244L34.8011 167.903C34.9716 167.506 35.1989 167.196 35.483 166.974C35.7699 166.75 36.0824 166.594 36.4205 166.506C36.7614 166.415 37.0966 166.369 37.4261 166.369C37.6364 166.369 37.8778 166.395 38.1506 166.446C38.4261 166.494 38.6918 166.595 38.9474 166.749C39.206 166.902 39.4205 167.134 39.5909 167.443C39.7614 167.753 39.8466 168.168 39.8466 168.688V173H38.8409V172.114H38.7898C38.7216 172.256 38.608 172.408 38.4489 172.57C38.2898 172.732 38.0781 172.869 37.8139 172.983C37.5497 173.097 37.2273 173.153 36.8466 173.153ZM37 172.25C37.3977 172.25 37.733 172.172 38.0057 172.016C38.2813 171.859 38.4886 171.658 38.6278 171.411C38.7699 171.163 38.8409 170.903 38.8409 170.631V169.71C38.7983 169.761 38.7045 169.808 38.5597 169.851C38.4176 169.891 38.2528 169.926 38.0653 169.957C37.8807 169.986 37.7003 170.011 37.5241 170.034C37.3509 170.054 37.2102 170.071 37.1023 170.085C36.8409 170.119 36.5966 170.175 36.3693 170.251C36.1449 170.325 35.9631 170.437 35.8239 170.588C35.6875 170.736 35.6193 170.937 35.6193 171.193C35.6193 171.543 35.7486 171.807 36.0071 171.986C36.2685 172.162 36.5994 172.25 37 172.25ZM42.6879 169.062V173H41.6822V166.455H42.6538V167.477H42.739C42.8924 167.145 43.1254 166.878 43.4379 166.676C43.7504 166.472 44.1538 166.369 44.6481 166.369C45.0913 166.369 45.479 166.46 45.8114 166.642C46.1438 166.821 46.4023 167.094 46.587 167.46C46.7717 167.824 46.864 168.284 46.864 168.841V173H45.8583V168.909C45.8583 168.395 45.7248 167.994 45.4577 167.707C45.1907 167.418 44.8242 167.273 44.3583 167.273C44.0373 167.273 43.7504 167.342 43.4975 167.482C43.2475 167.621 43.0501 167.824 42.9052 168.091C42.7603 168.358 42.6879 168.682 42.6879 169.062ZM52.571 173H51.4631L54.6676 164.273H55.7585L58.9631 173H57.8551L55.2472 165.653H55.179L52.571 173ZM52.9801 169.591H57.446V170.528H52.9801V169.591ZM61.3793 164.273V173H60.3224V164.273H61.3793ZM67.1119 168.79V169.727H63.2937V168.79H67.1119ZM71.6257 173.136C70.995 173.136 70.451 172.997 69.9936 172.719C69.5391 172.438 69.1882 172.045 68.9411 171.543C68.6967 171.037 68.5746 170.449 68.5746 169.778C68.5746 169.108 68.6967 168.517 68.9411 168.006C69.1882 167.491 69.532 167.091 69.9723 166.804C70.4155 166.514 70.9325 166.369 71.5234 166.369C71.8643 166.369 72.201 166.426 72.5334 166.54C72.8658 166.653 73.1683 166.838 73.4411 167.094C73.7138 167.347 73.9311 167.682 74.093 168.099C74.255 168.517 74.3359 169.031 74.3359 169.642V170.068H69.2905V169.199H73.3132C73.3132 168.83 73.2393 168.5 73.0916 168.21C72.9467 167.92 72.7393 167.692 72.4695 167.524C72.2024 167.357 71.8871 167.273 71.5234 167.273C71.1229 167.273 70.7763 167.372 70.4837 167.571C70.1939 167.767 69.9709 168.023 69.8146 168.338C69.6584 168.653 69.5803 168.991 69.5803 169.352V169.932C69.5803 170.426 69.6655 170.845 69.8359 171.189C70.0092 171.53 70.2493 171.79 70.5561 171.969C70.8629 172.145 71.2195 172.233 71.6257 172.233C71.8899 172.233 72.1286 172.196 72.3416 172.122C72.5575 172.045 72.7436 171.932 72.8999 171.781C73.0561 171.628 73.1768 171.437 73.2621 171.21L74.2337 171.483C74.1314 171.812 73.9595 172.102 73.718 172.352C73.4766 172.599 73.1783 172.793 72.8232 172.932C72.468 173.068 72.0689 173.136 71.6257 173.136ZM76.8714 169.062V173H75.8658V166.455H76.8374V167.477H76.9226C77.076 167.145 77.3089 166.878 77.6214 166.676C77.9339 166.472 78.3374 166.369 78.8317 166.369C79.2749 166.369 79.6626 166.46 79.995 166.642C80.3274 166.821 80.5859 167.094 80.7706 167.46C80.9553 167.824 81.0476 168.284 81.0476 168.841V173H80.0419V168.909C80.0419 168.395 79.9084 167.994 79.6413 167.707C79.3743 167.418 79.0078 167.273 78.5419 167.273C78.2209 167.273 77.9339 167.342 77.6811 167.482C77.4311 167.621 77.2337 167.824 77.0888 168.091C76.9439 168.358 76.8714 168.682 76.8714 169.062ZM83.891 169.062V173H82.8853V164.273H83.891V167.477H83.9762C84.1296 167.139 84.3597 166.871 84.6665 166.672C84.9762 166.47 85.3881 166.369 85.9023 166.369C86.3484 166.369 86.739 166.459 87.0742 166.638C87.4094 166.814 87.6694 167.085 87.854 167.452C88.0415 167.815 88.1353 168.278 88.1353 168.841V173H87.1296V168.909C87.1296 168.389 86.9947 167.987 86.7248 167.703C86.4577 167.416 86.087 167.273 85.6126 167.273C85.283 167.273 84.9876 167.342 84.7262 167.482C84.4677 167.621 84.2631 167.824 84.1126 168.091C83.9648 168.358 83.891 168.682 83.891 169.062ZM91.9013 173.153C91.4865 173.153 91.1101 173.075 90.772 172.919C90.4339 172.76 90.1655 172.531 89.9666 172.233C89.7678 171.932 89.6683 171.568 89.6683 171.142C89.6683 170.767 89.7422 170.463 89.8899 170.23C90.0376 169.994 90.2351 169.81 90.4822 169.676C90.7294 169.543 91.0021 169.443 91.3004 169.378C91.6016 169.31 91.9041 169.256 92.2081 169.216C92.6058 169.165 92.9283 169.126 93.1754 169.101C93.4254 169.072 93.6072 169.026 93.7209 168.96C93.8374 168.895 93.8956 168.781 93.8956 168.619V168.585C93.8956 168.165 93.7805 167.838 93.5504 167.605C93.3232 167.372 92.978 167.256 92.5149 167.256C92.0348 167.256 91.6584 167.361 91.3857 167.571C91.1129 167.781 90.9212 168.006 90.8104 168.244L89.8558 167.903C90.0263 167.506 90.2536 167.196 90.5376 166.974C90.8246 166.75 91.1371 166.594 91.4751 166.506C91.8161 166.415 92.1513 166.369 92.4808 166.369C92.6911 166.369 92.9325 166.395 93.2053 166.446C93.4808 166.494 93.7464 166.595 94.0021 166.749C94.2607 166.902 94.4751 167.134 94.6456 167.443C94.8161 167.753 94.9013 168.168 94.9013 168.688V173H93.8956V172.114H93.8445C93.7763 172.256 93.6626 172.408 93.5036 172.57C93.3445 172.732 93.1328 172.869 92.8686 172.983C92.6044 173.097 92.282 173.153 91.9013 173.153ZM92.0547 172.25C92.4524 172.25 92.7876 172.172 93.0604 172.016C93.3359 171.859 93.5433 171.658 93.6825 171.411C93.8246 171.163 93.8956 170.903 93.8956 170.631V169.71C93.853 169.761 93.7592 169.808 93.6143 169.851C93.4723 169.891 93.3075 169.926 93.12 169.957C92.9354 169.986 92.755 170.011 92.5788 170.034C92.4055 170.054 92.2649 170.071 92.157 170.085C91.8956 170.119 91.6513 170.175 91.424 170.251C91.1996 170.325 91.0178 170.437 90.8786 170.588C90.7422 170.736 90.674 170.937 90.674 171.193C90.674 171.543 90.8033 171.807 91.0618 171.986C91.3232 172.162 91.6541 172.25 92.0547 172.25ZM97.7425 169.062V173H96.7369V166.455H97.7085V167.477H97.7937C97.9471 167.145 98.18 166.878 98.4925 166.676C98.805 166.472 99.2085 166.369 99.7028 166.369C100.146 166.369 100.534 166.46 100.866 166.642C101.199 166.821 101.457 167.094 101.642 167.46C101.826 167.824 101.919 168.284 101.919 168.841V173H100.913V168.909C100.913 168.395 100.779 167.994 100.512 167.707C100.245 167.418 99.8789 167.273 99.413 167.273C99.092 167.273 98.805 167.342 98.5522 167.482C98.3022 167.621 98.1048 167.824 97.9599 168.091C97.815 168.358 97.7425 168.682 97.7425 169.062ZM106.415 173.136C105.802 173.136 105.273 172.991 104.83 172.702C104.387 172.412 104.046 172.013 103.808 171.504C103.569 170.996 103.45 170.415 103.45 169.761C103.45 169.097 103.572 168.51 103.816 168.001C104.063 167.49 104.407 167.091 104.847 166.804C105.29 166.514 105.808 166.369 106.398 166.369C106.859 166.369 107.273 166.455 107.643 166.625C108.012 166.795 108.315 167.034 108.55 167.341C108.786 167.648 108.933 168.006 108.989 168.415H107.984C107.907 168.116 107.737 167.852 107.472 167.622C107.211 167.389 106.859 167.273 106.415 167.273C106.023 167.273 105.68 167.375 105.384 167.58C105.092 167.781 104.863 168.067 104.698 168.436C104.536 168.803 104.455 169.233 104.455 169.727C104.455 170.233 104.535 170.673 104.694 171.048C104.856 171.423 105.083 171.714 105.376 171.922C105.671 172.129 106.018 172.233 106.415 172.233C106.677 172.233 106.914 172.188 107.127 172.097C107.34 172.006 107.521 171.875 107.668 171.705C107.816 171.534 107.921 171.33 107.984 171.091H108.989C108.933 171.477 108.792 171.825 108.567 172.135C108.346 172.442 108.052 172.686 107.685 172.868C107.322 173.047 106.898 173.136 106.415 173.136ZM113.204 173.136C112.573 173.136 112.029 172.997 111.572 172.719C111.117 172.438 110.766 172.045 110.519 171.543C110.275 171.037 110.153 170.449 110.153 169.778C110.153 169.108 110.275 168.517 110.519 168.006C110.766 167.491 111.11 167.091 111.55 166.804C111.994 166.514 112.511 166.369 113.102 166.369C113.442 166.369 113.779 166.426 114.112 166.54C114.444 166.653 114.746 166.838 115.019 167.094C115.292 167.347 115.509 167.682 115.671 168.099C115.833 168.517 115.914 169.031 115.914 169.642V170.068H110.869V169.199H114.891C114.891 168.83 114.817 168.5 114.67 168.21C114.525 167.92 114.317 167.692 114.048 167.524C113.781 167.357 113.465 167.273 113.102 167.273C112.701 167.273 112.354 167.372 112.062 167.571C111.772 167.767 111.549 168.023 111.393 168.338C111.237 168.653 111.158 168.991 111.158 169.352V169.932C111.158 170.426 111.244 170.845 111.414 171.189C111.587 171.53 111.827 171.79 112.134 171.969C112.441 172.145 112.798 172.233 113.204 172.233C113.468 172.233 113.707 172.196 113.92 172.122C114.136 172.045 114.322 171.932 114.478 171.781C114.634 171.628 114.755 171.437 114.84 171.21L115.812 171.483C115.71 171.812 115.538 172.102 115.296 172.352C115.055 172.599 114.756 172.793 114.401 172.932C114.046 173.068 113.647 173.136 113.204 173.136ZM119.915 173.136C119.37 173.136 118.888 172.999 118.471 172.723C118.053 172.445 117.727 172.053 117.491 171.547C117.255 171.038 117.137 170.438 117.137 169.744C117.137 169.057 117.255 168.46 117.491 167.955C117.727 167.449 118.055 167.058 118.475 166.783C118.896 166.507 119.381 166.369 119.933 166.369C120.359 166.369 120.695 166.44 120.942 166.582C121.192 166.722 121.383 166.881 121.513 167.06C121.647 167.236 121.751 167.381 121.825 167.494H121.91V164.273H122.915V173H121.944V171.994H121.825C121.751 172.114 121.646 172.264 121.509 172.446C121.373 172.625 121.178 172.786 120.925 172.928C120.673 173.067 120.336 173.136 119.915 173.136ZM120.052 172.233C120.455 172.233 120.796 172.128 121.075 171.918C121.353 171.705 121.565 171.411 121.71 171.036C121.854 170.658 121.927 170.222 121.927 169.727C121.927 169.239 121.856 168.811 121.714 168.445C121.572 168.075 121.362 167.788 121.083 167.584C120.805 167.376 120.461 167.273 120.052 167.273C119.626 167.273 119.271 167.382 118.987 167.601C118.705 167.817 118.494 168.111 118.352 168.483C118.212 168.852 118.143 169.267 118.143 169.727C118.143 170.193 118.214 170.616 118.356 170.997C118.501 171.375 118.714 171.676 118.995 171.901C119.279 172.122 119.631 172.233 120.052 172.233Z" fill="black"/>
</g>
<defs>
<filter id="filter0_f_5043_4217" x="0" y="0" width="163" height="213" filterUnits="userSpaceOnUse" color-interpolation-filters="sRGB">
<feFlood flood-opacity="0" result="BackgroundImageFix"/>
<feBlend mode="normal" in="SourceGraphic" in2="BackgroundImageFix" result="shape"/>
<feGaussianBlur stdDeviation="5" result="effect1_foregroundBlur_5043_4217"/>
</filter>
</defs>
</svg>
