<svg width="265" height="141" viewBox="0 0 265 141" fill="none" xmlns="http://www.w3.org/2000/svg">
<g filter="url(#filter0_f_2574_5481)">
<rect x="10" y="10" width="245" height="121" fill="white"/>
<rect x="10.5" y="10.5" width="244" height="120" stroke="#F5F5F5"/>
<rect x="17" y="20" width="9" height="9" fill="#825757"/>
<path d="M39.4929 22.7827C39.4588 22.4389 39.3125 22.1719 39.054 21.9815C38.7955 21.7912 38.4446 21.696 38.0014 21.696C37.7003 21.696 37.446 21.7386 37.2386 21.8239C37.0313 21.9062 36.8722 22.0213 36.7614 22.169C36.6534 22.3168 36.5994 22.4844 36.5994 22.6719C36.5938 22.8281 36.6264 22.9645 36.6974 23.081C36.7713 23.1974 36.8722 23.2983 37 23.3835C37.1278 23.4659 37.2756 23.5384 37.4432 23.6009C37.6108 23.6605 37.7898 23.7116 37.9801 23.7543L38.7642 23.9418C39.1449 24.027 39.4943 24.1406 39.8125 24.2827C40.1307 24.4247 40.4063 24.5994 40.6392 24.8068C40.8722 25.0142 41.0526 25.2585 41.1804 25.5398C41.3111 25.821 41.3778 26.1435 41.3807 26.5071C41.3778 27.0412 41.2415 27.5043 40.9716 27.8963C40.7045 28.2855 40.3182 28.5881 39.8125 28.804C39.3097 29.017 38.7031 29.1236 37.9929 29.1236C37.2884 29.1236 36.6747 29.0156 36.152 28.7997C35.6321 28.5838 35.2259 28.2642 34.9332 27.8409C34.6435 27.4148 34.4915 26.8878 34.4773 26.2599H36.2628C36.2827 26.5526 36.3665 26.7969 36.5142 26.9929C36.6648 27.1861 36.8651 27.3324 37.1151 27.4318C37.3679 27.5284 37.6534 27.5767 37.9716 27.5767C38.2841 27.5767 38.5554 27.5312 38.7855 27.4403C39.0185 27.3494 39.1989 27.223 39.3267 27.0611C39.4545 26.8991 39.5185 26.7131 39.5185 26.5028C39.5185 26.3068 39.4602 26.142 39.3438 26.0085C39.2301 25.875 39.0625 25.7614 38.8409 25.6676C38.6222 25.5739 38.3537 25.4886 38.0355 25.4119L37.0852 25.1733C36.3494 24.9943 35.7685 24.7145 35.3423 24.3338C34.9162 23.9531 34.7045 23.4403 34.7074 22.7955C34.7045 22.267 34.8452 21.8054 35.1293 21.4105C35.4162 21.0156 35.8097 20.7074 36.3097 20.4858C36.8097 20.2642 37.3778 20.1534 38.0142 20.1534C38.6619 20.1534 39.2273 20.2642 39.7102 20.4858C40.196 20.7074 40.5739 21.0156 40.8438 21.4105C41.1136 21.8054 41.2528 22.2628 41.2614 22.7827H39.4929ZM43.4441 31.4545C43.214 31.4545 42.9981 31.4361 42.7964 31.3991C42.5975 31.3651 42.4328 31.321 42.3021 31.267L42.7112 29.9119C42.9242 29.9773 43.116 30.0128 43.2865 30.0185C43.4598 30.0241 43.6089 29.9844 43.7339 29.8991C43.8617 29.8139 43.9654 29.669 44.045 29.4645L44.1515 29.1875L41.8035 22.4545H43.7126L45.0677 27.2614H45.1359L46.5038 22.4545H48.4257L45.8816 29.7074C45.7595 30.0597 45.5933 30.3665 45.383 30.6278C45.1757 30.892 44.9129 31.0952 44.5947 31.2372C44.2765 31.3821 43.893 31.4545 43.4441 31.4545ZM50.9057 25.2159V29H49.0903V22.4545H50.8204V23.6094H50.8971C51.042 23.2287 51.2849 22.9276 51.6258 22.706C51.9667 22.4815 52.3801 22.3693 52.8659 22.3693C53.3204 22.3693 53.7167 22.4688 54.0548 22.6676C54.3929 22.8665 54.6557 23.1506 54.8432 23.5199C55.0307 23.8864 55.1244 24.3239 55.1244 24.8324V29H53.3091V25.1562C53.3119 24.7557 53.2096 24.4432 53.0022 24.2188C52.7949 23.9915 52.5094 23.8778 52.1457 23.8778C51.9014 23.8778 51.6855 23.9304 51.498 24.0355C51.3133 24.1406 51.1684 24.294 51.0633 24.4957C50.9611 24.6946 50.9085 24.9347 50.9057 25.2159ZM59.7724 22.4545V23.8182H55.8306V22.4545H59.7724ZM56.7255 20.8864H58.5408V26.9886C58.5408 27.1562 58.5664 27.2869 58.6175 27.3807C58.6687 27.4716 58.7397 27.5355 58.8306 27.5724C58.9244 27.6094 59.0323 27.6278 59.1545 27.6278C59.2397 27.6278 59.3249 27.6207 59.4102 27.6065C59.4954 27.5895 59.5607 27.5767 59.6062 27.5682L59.8917 28.919C59.8008 28.9474 59.6729 28.9801 59.5082 29.017C59.3434 29.0568 59.1431 29.081 58.9073 29.0895C58.4698 29.1065 58.0863 29.0483 57.7567 28.9148C57.43 28.7812 57.1758 28.5739 56.994 28.2926C56.8121 28.0114 56.7227 27.6562 56.7255 27.2273V20.8864ZM62.6465 25.2159V29H60.8312V20.2727H62.5954V23.6094H62.6721C62.8198 23.223 63.0585 22.9205 63.388 22.7017C63.7176 22.4801 64.1309 22.3693 64.6281 22.3693C65.0826 22.3693 65.4789 22.4688 65.817 22.6676C66.1579 22.8636 66.4221 23.1463 66.6096 23.5156C66.8 23.8821 66.8937 24.321 66.8909 24.8324V29H65.0755V25.1562C65.0784 24.7528 64.9761 24.4389 64.7687 24.2145C64.5642 23.9901 64.2772 23.8778 63.9079 23.8778C63.6607 23.8778 63.442 23.9304 63.2517 24.0355C63.0642 24.1406 62.9164 24.294 62.8085 24.4957C62.7034 24.6946 62.6494 24.9347 62.6465 25.2159ZM71.0381 29.1278C70.3648 29.1278 69.7853 28.9915 69.2995 28.7188C68.8165 28.4432 68.4444 28.054 68.183 27.5511C67.9216 27.0455 67.791 26.4474 67.791 25.7571C67.791 25.0838 67.9216 24.4929 68.183 23.9844C68.4444 23.4759 68.8123 23.0795 69.2867 22.7955C69.764 22.5114 70.3236 22.3693 70.9657 22.3693C71.3975 22.3693 71.7995 22.4389 72.1716 22.5781C72.5466 22.7145 72.8733 22.9205 73.1517 23.196C73.433 23.4716 73.6517 23.8182 73.808 24.2358C73.9642 24.6506 74.0424 25.1364 74.0424 25.6932V26.1918H68.5154V25.0668H72.3336C72.3336 24.8054 72.2767 24.5739 72.1631 24.3722C72.0495 24.1705 71.8918 24.0128 71.6901 23.8991C71.4912 23.7827 71.2597 23.7244 70.9955 23.7244C70.7199 23.7244 70.4756 23.7884 70.2625 23.9162C70.0523 24.0412 69.8875 24.2102 69.7682 24.4233C69.6489 24.6335 69.5878 24.8679 69.585 25.1264V26.196C69.585 26.5199 69.6446 26.7997 69.764 27.0355C69.8861 27.2713 70.058 27.4531 70.2796 27.581C70.5012 27.7088 70.764 27.7727 71.0679 27.7727C71.2696 27.7727 71.4543 27.7443 71.6219 27.6875C71.7895 27.6307 71.933 27.5455 72.0523 27.4318C72.1716 27.3182 72.2625 27.179 72.325 27.0142L74.004 27.125C73.9188 27.5284 73.7441 27.8807 73.4799 28.1818C73.2185 28.4801 72.8804 28.7131 72.4657 28.8807C72.0537 29.0455 71.5779 29.1278 71.0381 29.1278ZM80.4087 24.321L78.7468 24.4233C78.7184 24.2812 78.6573 24.1534 78.5636 24.0398C78.4698 23.9233 78.3462 23.831 78.1928 23.7628C78.0423 23.6918 77.8619 23.6562 77.6516 23.6562C77.3704 23.6562 77.1332 23.7159 76.94 23.8352C76.7468 23.9517 76.6502 24.108 76.6502 24.304C76.6502 24.4602 76.7127 24.5923 76.8377 24.7003C76.9627 24.8082 77.1772 24.8949 77.4812 24.9602L78.6658 25.1989C79.3022 25.3295 79.7766 25.5398 80.0891 25.8295C80.4016 26.1193 80.5579 26.5 80.5579 26.9716C80.5579 27.4006 80.4315 27.777 80.1786 28.1009C79.9286 28.4247 79.5849 28.6776 79.1474 28.8594C78.7127 29.0384 78.2113 29.1278 77.6431 29.1278C76.7766 29.1278 76.0863 28.9474 75.5721 28.5866C75.0607 28.223 74.761 27.7287 74.6729 27.1037L76.4585 27.0099C76.5124 27.2741 76.6431 27.4759 76.8505 27.6151C77.0579 27.7514 77.3235 27.8196 77.6474 27.8196C77.9656 27.8196 78.2212 27.7585 78.4144 27.6364C78.6104 27.5114 78.7099 27.3509 78.7127 27.1548C78.7099 26.9901 78.6403 26.8551 78.5039 26.75C78.3675 26.642 78.1573 26.5597 77.8732 26.5028L76.7397 26.277C76.1005 26.1491 75.6246 25.9276 75.3121 25.6122C75.0025 25.2969 74.8477 24.8949 74.8477 24.4062C74.8477 23.9858 74.9613 23.6236 75.1886 23.3196C75.4187 23.0156 75.7411 22.7812 76.1559 22.6165C76.5735 22.4517 77.0621 22.3693 77.6218 22.3693C78.4485 22.3693 79.0991 22.544 79.5735 22.8935C80.0508 23.2429 80.3292 23.7187 80.4087 24.321ZM81.4367 29V22.4545H83.252V29H81.4367ZM82.3486 21.6108C82.0787 21.6108 81.8472 21.5213 81.654 21.3423C81.4637 21.1605 81.3685 20.9432 81.3685 20.6903C81.3685 20.4403 81.4637 20.2259 81.654 20.0469C81.8472 19.8651 82.0787 19.7741 82.3486 19.7741C82.6185 19.7741 82.8486 19.8651 83.0389 20.0469C83.2321 20.2259 83.3287 20.4403 83.3287 20.6903C83.3287 20.9432 83.2321 21.1605 83.0389 21.3423C82.8486 21.5213 82.6185 21.6108 82.3486 21.6108ZM89.8879 24.321L88.226 24.4233C88.1976 24.2812 88.1365 24.1534 88.0427 24.0398C87.949 23.9233 87.8254 23.831 87.672 23.7628C87.5214 23.6918 87.341 23.6562 87.1308 23.6562C86.8495 23.6562 86.6123 23.7159 86.4191 23.8352C86.226 23.9517 86.1294 24.108 86.1294 24.304C86.1294 24.4602 86.1919 24.5923 86.3169 24.7003C86.4419 24.8082 86.6564 24.8949 86.9603 24.9602L88.145 25.1989C88.7814 25.3295 89.2558 25.5398 89.5683 25.8295C89.8808 26.1193 90.037 26.5 90.037 26.9716C90.037 27.4006 89.9106 27.777 89.6578 28.1009C89.4078 28.4247 89.064 28.6776 88.6265 28.8594C88.1919 29.0384 87.6905 29.1278 87.1223 29.1278C86.2558 29.1278 85.5655 28.9474 85.0513 28.5866C84.5399 28.223 84.2402 27.7287 84.1521 27.1037L85.9376 27.0099C85.9916 27.2741 86.1223 27.4759 86.3297 27.6151C86.537 27.7514 86.8027 27.8196 87.1265 27.8196C87.4447 27.8196 87.7004 27.7585 87.8936 27.6364C88.0896 27.5114 88.189 27.3509 88.1919 27.1548C88.189 26.9901 88.1194 26.8551 87.9831 26.75C87.8467 26.642 87.6365 26.5597 87.3524 26.5028L86.2189 26.277C85.5797 26.1491 85.1038 25.9276 84.7913 25.6122C84.4816 25.2969 84.3268 24.8949 84.3268 24.4062C84.3268 23.9858 84.4405 23.6236 84.6677 23.3196C84.8978 23.0156 85.2203 22.7812 85.6351 22.6165C86.0527 22.4517 86.5413 22.3693 87.101 22.3693C87.9277 22.3693 88.5782 22.544 89.0527 22.8935C89.5299 23.2429 89.8084 23.7187 89.8879 24.321Z" fill="#17100E"/>
<path d="M35.0568 44.2727H36.3182L39.2841 51.517H39.3864L42.3523 44.2727H43.6136V53H42.625V46.3693H42.5398L39.8125 53H38.858L36.1307 46.3693H36.0455V53H35.0568V44.2727ZM47.5224 53.1534C47.1076 53.1534 46.7312 53.0753 46.3931 52.919C46.055 52.7599 45.7866 52.5312 45.5877 52.233C45.3888 51.9318 45.2894 51.5682 45.2894 51.142C45.2894 50.767 45.3633 50.4631 45.511 50.2301C45.6587 49.9943 45.8562 49.8097 46.1033 49.6761C46.3505 49.5426 46.6232 49.4432 46.9215 49.3778C47.2227 49.3097 47.5252 49.2557 47.8292 49.2159C48.2269 49.1648 48.5494 49.1264 48.7965 49.1009C49.0465 49.0724 49.2283 49.0256 49.342 48.9602C49.4585 48.8949 49.5167 48.7812 49.5167 48.6193V48.5852C49.5167 48.1648 49.4016 47.8381 49.1715 47.6051C48.9442 47.3722 48.5991 47.2557 48.136 47.2557C47.6559 47.2557 47.2795 47.3608 47.0067 47.571C46.734 47.7812 46.5423 48.0057 46.4315 48.2443L45.4769 47.9034C45.6474 47.5057 45.8746 47.196 46.1587 46.9744C46.4457 46.75 46.7582 46.5937 47.0962 46.5057C47.4371 46.4148 47.7724 46.3693 48.1019 46.3693C48.3121 46.3693 48.5536 46.3949 48.8263 46.446C49.1019 46.4943 49.3675 46.5952 49.6232 46.7486C49.8817 46.902 50.0962 47.1335 50.2667 47.4432C50.4371 47.7528 50.5224 48.1676 50.5224 48.6875V53H49.5167V52.1136H49.4656C49.3974 52.2557 49.2837 52.4077 49.1246 52.5696C48.9656 52.7315 48.7539 52.8693 48.4897 52.983C48.2255 53.0966 47.9031 53.1534 47.5224 53.1534ZM47.6758 52.25C48.0735 52.25 48.4087 52.1719 48.6815 52.0156C48.957 51.8594 49.1644 51.6577 49.3036 51.4105C49.4457 51.1634 49.5167 50.9034 49.5167 50.6307V49.7102C49.4741 49.7614 49.3803 49.8082 49.2354 49.8509C49.0934 49.8906 48.9286 49.9261 48.7411 49.9574C48.5565 49.9858 48.3761 50.0114 48.1999 50.0341C48.0266 50.054 47.886 50.071 47.7781 50.0852C47.5167 50.1193 47.2724 50.1747 47.0451 50.2514C46.8207 50.3253 46.6388 50.4375 46.4996 50.5881C46.3633 50.7358 46.2951 50.9375 46.2951 51.1932C46.2951 51.5426 46.4244 51.8068 46.6829 51.9858C46.9442 52.1619 47.2752 52.25 47.6758 52.25ZM53.108 46.4545L54.6761 49.1307L56.2443 46.4545H57.4034L55.2898 49.7273L57.4034 53H56.2443L54.6761 50.4602L53.108 53H51.9489L54.0284 49.7273L51.9489 46.4545H53.108ZM58.8384 53V46.4545H59.8441V53H58.8384ZM59.3498 45.3636C59.1538 45.3636 58.9847 45.2969 58.8427 45.1634C58.7035 45.0298 58.6339 44.8693 58.6339 44.6818C58.6339 44.4943 58.7035 44.3338 58.8427 44.2003C58.9847 44.0668 59.1538 44 59.3498 44C59.5458 44 59.7134 44.0668 59.8526 44.2003C59.9947 44.3338 60.0657 44.4943 60.0657 44.6818C60.0657 44.8693 59.9947 45.0298 59.8526 45.1634C59.7134 45.2969 59.5458 45.3636 59.3498 45.3636ZM61.6861 53V46.4545H62.6577V47.4773H62.7429C62.8793 47.1278 63.0994 46.8565 63.4034 46.6634C63.7074 46.4673 64.0724 46.3693 64.4986 46.3693C64.9304 46.3693 65.2898 46.4673 65.5767 46.6634C65.8665 46.8565 66.0923 47.1278 66.2543 47.4773H66.3224C66.4901 47.1392 66.7415 46.8707 67.0767 46.6719C67.4119 46.4702 67.8139 46.3693 68.2827 46.3693C68.8679 46.3693 69.3466 46.5526 69.7188 46.919C70.0909 47.2827 70.277 47.8494 70.277 48.6193V53H69.2713V48.6193C69.2713 48.1364 69.1392 47.7912 68.875 47.5838C68.6108 47.3764 68.2997 47.2727 67.9418 47.2727C67.4815 47.2727 67.125 47.4119 66.8722 47.6903C66.6193 47.9659 66.4929 48.3153 66.4929 48.7386V53H65.4702V48.517C65.4702 48.1449 65.3494 47.8452 65.108 47.6179C64.8665 47.3878 64.5554 47.2727 64.1747 47.2727C63.9134 47.2727 63.669 47.3423 63.4418 47.4815C63.2173 47.6207 63.0355 47.8139 62.8963 48.0611C62.7599 48.3054 62.6918 48.5881 62.6918 48.9091V53H61.6861ZM72.1158 53V46.4545H73.1214V53H72.1158ZM72.6271 45.3636C72.4311 45.3636 72.2621 45.2969 72.12 45.1634C71.9808 45.0298 71.9112 44.8693 71.9112 44.6818C71.9112 44.4943 71.9808 44.3338 72.12 44.2003C72.2621 44.0668 72.4311 44 72.6271 44C72.8232 44 72.9908 44.0668 73.13 44.2003C73.272 44.3338 73.343 44.4943 73.343 44.6818C73.343 44.8693 73.272 45.0298 73.13 45.1634C72.9908 45.2969 72.8232 45.3636 72.6271 45.3636ZM74.7759 53V52.233L78.4918 47.4602V47.392H74.8952V46.4545H79.7873V47.2557L76.1737 51.9943V52.0625H79.9066V53H74.7759ZM84.0124 53.1364C83.3817 53.1364 82.8377 52.9972 82.3803 52.7188C81.9258 52.4375 81.5749 52.0455 81.3278 51.5426C81.0835 51.0369 80.9613 50.4489 80.9613 49.7784C80.9613 49.108 81.0835 48.517 81.3278 48.0057C81.5749 47.4915 81.9187 47.0909 82.359 46.804C82.8022 46.5142 83.3192 46.3693 83.9102 46.3693C84.2511 46.3693 84.5877 46.4261 84.9201 46.5398C85.2525 46.6534 85.555 46.8381 85.8278 47.0938C86.1005 47.3466 86.3178 47.6818 86.4798 48.0994C86.6417 48.517 86.7227 49.0312 86.7227 49.642V50.0682H81.6772V49.1989H85.6999C85.6999 48.8295 85.6261 48.5 85.4783 48.2102C85.3335 47.9205 85.1261 47.6918 84.8562 47.5241C84.5891 47.3565 84.2738 47.2727 83.9102 47.2727C83.5096 47.2727 83.163 47.3722 82.8704 47.571C82.5806 47.767 82.3576 48.0227 82.2013 48.3381C82.0451 48.6534 81.967 48.9915 81.967 49.3523V49.9318C81.967 50.4261 82.0522 50.8452 82.2227 51.1889C82.396 51.5298 82.636 51.7898 82.9428 51.9688C83.2496 52.1449 83.6062 52.233 84.0124 52.233C84.2766 52.233 84.5153 52.196 84.7283 52.1222C84.9442 52.0455 85.1303 51.9318 85.2866 51.7812C85.4428 51.6278 85.5636 51.4375 85.6488 51.2102L86.6204 51.483C86.5181 51.8125 86.3462 52.1023 86.1048 52.3523C85.8633 52.5994 85.565 52.7926 85.2099 52.9318C84.8548 53.0682 84.4556 53.1364 84.0124 53.1364ZM91.6275 55.4545V46.4545H92.5991V47.4943H92.7184C92.7923 47.3807 92.8945 47.2358 93.0252 47.0597C93.1587 46.8807 93.3491 46.7216 93.5962 46.5824C93.8462 46.4403 94.1843 46.3693 94.6104 46.3693C95.1616 46.3693 95.6474 46.5071 96.0678 46.7827C96.4883 47.0582 96.8164 47.4489 97.0522 47.9545C97.288 48.4602 97.4059 49.0568 97.4059 49.7443C97.4059 50.4375 97.288 51.0384 97.0522 51.5469C96.8164 52.0526 96.4897 52.4446 96.0721 52.723C95.6545 52.9986 95.1729 53.1364 94.6275 53.1364C94.207 53.1364 93.8704 53.0668 93.6175 52.9276C93.3647 52.7855 93.1701 52.625 93.0337 52.446C92.8974 52.2642 92.7923 52.1136 92.7184 51.9943H92.6332V55.4545H91.6275ZM92.6161 49.7273C92.6161 50.2216 92.6886 50.6577 92.8335 51.0355C92.9783 51.4105 93.19 51.7045 93.4684 51.9176C93.7468 52.1278 94.0877 52.233 94.4911 52.233C94.9116 52.233 95.2624 52.1222 95.5437 51.9006C95.8278 51.6761 96.0408 51.375 96.1829 50.9972C96.3278 50.6165 96.4002 50.1932 96.4002 49.7273C96.4002 49.267 96.3292 48.8523 96.1871 48.483C96.0479 48.1108 95.8363 47.8168 95.5522 47.6009C95.271 47.3821 94.9173 47.2727 94.4911 47.2727C94.082 47.2727 93.7383 47.3764 93.4599 47.5838C93.1815 47.7884 92.9712 48.0753 92.8292 48.4446C92.6871 48.8111 92.6161 49.2386 92.6161 49.7273ZM98.94 53V46.4545H99.9116V47.4432H99.9798C100.099 47.1193 100.315 46.8565 100.627 46.6548C100.94 46.4531 101.292 46.3523 101.684 46.3523C101.758 46.3523 101.85 46.3537 101.961 46.3565C102.072 46.3594 102.156 46.3636 102.213 46.3693V47.392C102.179 47.3835 102.1 47.3707 101.978 47.3537C101.859 47.3338 101.733 47.3239 101.599 47.3239C101.281 47.3239 100.997 47.3906 100.747 47.5241C100.5 47.6548 100.304 47.8366 100.159 48.0696C100.017 48.2997 99.9457 48.5625 99.9457 48.858V53H98.94ZM105.865 53.1364C105.274 53.1364 104.755 52.9957 104.309 52.7145C103.866 52.4332 103.52 52.0398 103.27 51.5341C103.022 51.0284 102.899 50.4375 102.899 49.7614C102.899 49.0795 103.022 48.4844 103.27 47.9759C103.52 47.4673 103.866 47.0724 104.309 46.7912C104.755 46.5099 105.274 46.3693 105.865 46.3693C106.456 46.3693 106.973 46.5099 107.416 46.7912C107.862 47.0724 108.208 47.4673 108.456 47.9759C108.706 48.4844 108.831 49.0795 108.831 49.7614C108.831 50.4375 108.706 51.0284 108.456 51.5341C108.208 52.0398 107.862 52.4332 107.416 52.7145C106.973 52.9957 106.456 53.1364 105.865 53.1364ZM105.865 52.233C106.314 52.233 106.683 52.1179 106.973 51.8878C107.262 51.6577 107.477 51.3551 107.616 50.9801C107.755 50.6051 107.825 50.1989 107.825 49.7614C107.825 49.3239 107.755 48.9162 107.616 48.5384C107.477 48.1605 107.262 47.8551 106.973 47.6222C106.683 47.3892 106.314 47.2727 105.865 47.2727C105.416 47.2727 105.047 47.3892 104.757 47.6222C104.467 47.8551 104.252 48.1605 104.113 48.5384C103.974 48.9162 103.904 49.3239 103.904 49.7614C103.904 50.1989 103.974 50.6051 104.113 50.9801C104.252 51.3551 104.467 51.6577 104.757 51.8878C105.047 52.1179 105.416 52.233 105.865 52.233ZM112.837 53.1364C112.292 53.1364 111.81 52.9986 111.393 52.723C110.975 52.4446 110.648 52.0526 110.413 51.5469C110.177 51.0384 110.059 50.4375 110.059 49.7443C110.059 49.0568 110.177 48.4602 110.413 47.9545C110.648 47.4489 110.977 47.0582 111.397 46.7827C111.817 46.5071 112.303 46.3693 112.854 46.3693C113.281 46.3693 113.617 46.4403 113.864 46.5824C114.114 46.7216 114.305 46.8807 114.435 47.0597C114.569 47.2358 114.673 47.3807 114.746 47.4943H114.832V44.2727H115.837V53H114.866V51.9943H114.746C114.673 52.1136 114.567 52.2642 114.431 52.446C114.295 52.625 114.1 52.7855 113.847 52.9276C113.594 53.0668 113.258 53.1364 112.837 53.1364ZM112.974 52.233C113.377 52.233 113.718 52.1278 113.996 51.9176C114.275 51.7045 114.487 51.4105 114.631 51.0355C114.776 50.6577 114.849 50.2216 114.849 49.7273C114.849 49.2386 114.778 48.8111 114.636 48.4446C114.494 48.0753 114.283 47.7884 114.005 47.5838C113.727 47.3764 113.383 47.2727 112.974 47.2727C112.548 47.2727 112.192 47.3821 111.908 47.6009C111.627 47.8168 111.415 48.1108 111.273 48.483C111.134 48.8523 111.065 49.267 111.065 49.7273C111.065 50.1932 111.136 50.6165 111.278 50.9972C111.423 51.375 111.636 51.6761 111.917 51.9006C112.201 52.1222 112.553 52.233 112.974 52.233ZM121.944 50.3239V46.4545H122.95V53H121.944V51.892H121.876C121.722 52.2244 121.484 52.5071 121.16 52.7401C120.836 52.9702 120.427 53.0852 119.933 53.0852C119.523 53.0852 119.16 52.9957 118.842 52.8168C118.523 52.6349 118.273 52.3622 118.092 51.9986C117.91 51.6321 117.819 51.1705 117.819 50.6136V46.4545H118.825V50.5455C118.825 51.0227 118.958 51.4034 119.225 51.6875C119.495 51.9716 119.839 52.1136 120.256 52.1136C120.506 52.1136 120.761 52.0497 121.019 51.9219C121.281 51.794 121.499 51.598 121.675 51.3338C121.854 51.0696 121.944 50.733 121.944 50.3239ZM127.451 53.1364C126.837 53.1364 126.309 52.9915 125.865 52.7017C125.422 52.4119 125.081 52.0128 124.843 51.5043C124.604 50.9957 124.485 50.4148 124.485 49.7614C124.485 49.0966 124.607 48.5099 124.851 48.0014C125.098 47.4901 125.442 47.0909 125.882 46.804C126.326 46.5142 126.843 46.3693 127.434 46.3693C127.894 46.3693 128.309 46.4545 128.678 46.625C129.047 46.7955 129.35 47.0341 129.586 47.3409C129.821 47.6477 129.968 48.0057 130.025 48.4148H129.019C128.942 48.1165 128.772 47.8523 128.507 47.6222C128.246 47.3892 127.894 47.2727 127.451 47.2727C127.059 47.2727 126.715 47.375 126.419 47.5795C126.127 47.7812 125.898 48.0668 125.733 48.4361C125.571 48.8026 125.49 49.233 125.49 49.7273C125.49 50.233 125.57 50.6733 125.729 51.0483C125.891 51.4233 126.118 51.7145 126.411 51.9219C126.706 52.1293 127.053 52.233 127.451 52.233C127.712 52.233 127.949 52.1875 128.162 52.0966C128.375 52.0057 128.556 51.875 128.703 51.7045C128.851 51.5341 128.956 51.3295 129.019 51.0909H130.025C129.968 51.4773 129.827 51.8253 129.603 52.1349C129.381 52.4418 129.087 52.6861 128.721 52.8679C128.357 53.0469 127.934 53.1364 127.451 53.1364ZM134.341 46.4545V47.3068H130.949V46.4545H134.341ZM131.938 44.8864H132.944V51.125C132.944 51.4091 132.985 51.6222 133.067 51.7642C133.152 51.9034 133.26 51.9972 133.391 52.0455C133.525 52.0909 133.665 52.1136 133.813 52.1136C133.924 52.1136 134.015 52.108 134.086 52.0966C134.157 52.0824 134.213 52.071 134.256 52.0625L134.461 52.9659C134.392 52.9915 134.297 53.017 134.175 53.0426C134.053 53.071 133.898 53.0852 133.711 53.0852C133.426 53.0852 133.148 53.0241 132.875 52.902C132.605 52.7798 132.381 52.5938 132.202 52.3438C132.026 52.0938 131.938 51.7784 131.938 51.3977V44.8864ZM135.854 53V46.4545H136.86V53H135.854ZM136.365 45.3636C136.169 45.3636 136 45.2969 135.858 45.1634C135.719 45.0298 135.65 44.8693 135.65 44.6818C135.65 44.4943 135.719 44.3338 135.858 44.2003C136 44.0668 136.169 44 136.365 44C136.561 44 136.729 44.0668 136.868 44.2003C137.01 44.3338 137.081 44.4943 137.081 44.6818C137.081 44.8693 137.01 45.0298 136.868 45.1634C136.729 45.2969 136.561 45.3636 136.365 45.3636ZM144.054 46.4545L141.634 53H140.611L138.19 46.4545H139.281L141.088 51.6705H141.156L142.963 46.4545H144.054ZM145.381 53V46.4545H146.387V53H145.381ZM145.893 45.3636C145.697 45.3636 145.528 45.2969 145.386 45.1634C145.246 45.0298 145.177 44.8693 145.177 44.6818C145.177 44.4943 145.246 44.3338 145.386 44.2003C145.528 44.0668 145.697 44 145.893 44C146.089 44 146.256 44.0668 146.396 44.2003C146.538 44.3338 146.609 44.4943 146.609 44.6818C146.609 44.8693 146.538 45.0298 146.396 45.1634C146.256 45.2969 146.089 45.3636 145.893 45.3636ZM151.076 46.4545V47.3068H147.684V46.4545H151.076ZM148.672 44.8864H149.678V51.125C149.678 51.4091 149.719 51.6222 149.801 51.7642C149.887 51.9034 149.995 51.9972 150.125 52.0455C150.259 52.0909 150.4 52.1136 150.547 52.1136C150.658 52.1136 150.749 52.108 150.82 52.0966C150.891 52.0824 150.948 52.071 150.99 52.0625L151.195 52.9659C151.127 52.9915 151.032 53.017 150.909 53.0426C150.787 53.071 150.632 53.0852 150.445 53.0852C150.161 53.0852 149.882 53.0241 149.61 52.902C149.34 52.7798 149.115 52.5938 148.936 52.3438C148.76 52.0938 148.672 51.7784 148.672 51.3977V44.8864ZM153.236 55.4545C153.066 55.4545 152.914 55.4403 152.78 55.4119C152.647 55.3864 152.554 55.3608 152.503 55.3352L152.759 54.4489C153.003 54.5114 153.219 54.5341 153.407 54.517C153.594 54.5 153.76 54.4162 153.905 54.2656C154.053 54.1179 154.188 53.8778 154.31 53.5455L154.498 53.0341L152.077 46.4545H153.168L154.975 51.6705H155.043L156.85 46.4545H157.941L155.162 53.9545C155.037 54.2926 154.882 54.5724 154.698 54.794C154.513 55.0185 154.299 55.1847 154.054 55.2926C153.813 55.4006 153.54 55.4545 153.236 55.4545ZM164.126 53L162.132 46.4545H163.189L164.603 51.4659H164.672L166.069 46.4545H167.143L168.524 51.4489H168.592L170.007 46.4545H171.064L169.069 53H168.081L166.649 47.9716H166.547L165.115 53H164.126ZM172.393 53V46.4545H173.399V53H172.393ZM172.904 45.3636C172.708 45.3636 172.539 45.2969 172.397 45.1634C172.258 45.0298 172.189 44.8693 172.189 44.6818C172.189 44.4943 172.258 44.3338 172.397 44.2003C172.539 44.0668 172.708 44 172.904 44C173.1 44 173.268 44.0668 173.407 44.2003C173.549 44.3338 173.62 44.4943 173.62 44.6818C173.62 44.8693 173.549 45.0298 173.407 45.1634C173.268 45.2969 173.1 45.3636 172.904 45.3636ZM178.087 46.4545V47.3068H174.695V46.4545H178.087ZM175.684 44.8864H176.69V51.125C176.69 51.4091 176.731 51.6222 176.813 51.7642C176.898 51.9034 177.006 51.9972 177.137 52.0455C177.271 52.0909 177.411 52.1136 177.559 52.1136C177.67 52.1136 177.761 52.108 177.832 52.0966C177.903 52.0824 177.96 52.071 178.002 52.0625L178.207 52.9659C178.138 52.9915 178.043 53.017 177.921 53.0426C177.799 53.071 177.644 53.0852 177.457 53.0852C177.173 53.0852 176.894 53.0241 176.621 52.902C176.352 52.7798 176.127 52.5938 175.948 52.3438C175.772 52.0938 175.684 51.7784 175.684 51.3977V44.8864ZM180.746 49.0625V53H179.741V44.2727H180.746V47.4773H180.832C180.985 47.1392 181.215 46.8707 181.522 46.6719C181.832 46.4702 182.244 46.3693 182.758 46.3693C183.204 46.3693 183.594 46.4588 183.93 46.6378C184.265 46.8139 184.525 47.0852 184.71 47.4517C184.897 47.8153 184.991 48.2784 184.991 48.8409V53H183.985V48.9091C183.985 48.3892 183.85 47.9872 183.58 47.7031C183.313 47.4162 182.942 47.2727 182.468 47.2727C182.138 47.2727 181.843 47.3423 181.582 47.4815C181.323 47.6207 181.119 47.8239 180.968 48.0909C180.82 48.358 180.746 48.6818 180.746 49.0625ZM192.132 53.1534C191.717 53.1534 191.341 53.0753 191.002 52.919C190.664 52.7599 190.396 52.5312 190.197 52.233C189.998 51.9318 189.899 51.5682 189.899 51.142C189.899 50.767 189.973 50.4631 190.12 50.2301C190.268 49.9943 190.466 49.8097 190.713 49.6761C190.96 49.5426 191.233 49.4432 191.531 49.3778C191.832 49.3097 192.135 49.2557 192.439 49.2159C192.836 49.1648 193.159 49.1264 193.406 49.1009C193.656 49.0724 193.838 49.0256 193.951 48.9602C194.068 48.8949 194.126 48.7812 194.126 48.6193V48.5852C194.126 48.1648 194.011 47.8381 193.781 47.6051C193.554 47.3722 193.208 47.2557 192.745 47.2557C192.265 47.2557 191.889 47.3608 191.616 47.571C191.343 47.7812 191.152 48.0057 191.041 48.2443L190.086 47.9034C190.257 47.5057 190.484 47.196 190.768 46.9744C191.055 46.75 191.368 46.5937 191.706 46.5057C192.047 46.4148 192.382 46.3693 192.711 46.3693C192.922 46.3693 193.163 46.3949 193.436 46.446C193.711 46.4943 193.977 46.5952 194.233 46.7486C194.491 46.902 194.706 47.1335 194.876 47.4432C195.047 47.7528 195.132 48.1676 195.132 48.6875V53H194.126V52.1136H194.075C194.007 52.2557 193.893 52.4077 193.734 52.5696C193.575 52.7315 193.363 52.8693 193.099 52.983C192.835 53.0966 192.512 53.1534 192.132 53.1534ZM192.285 52.25C192.683 52.25 193.018 52.1719 193.291 52.0156C193.566 51.8594 193.774 51.6577 193.913 51.4105C194.055 51.1634 194.126 50.9034 194.126 50.6307V49.7102C194.083 49.7614 193.99 49.8082 193.845 49.8509C193.703 49.8906 193.538 49.9261 193.35 49.9574C193.166 49.9858 192.985 50.0114 192.809 50.0341C192.636 50.054 192.495 50.071 192.387 50.0852C192.126 50.1193 191.882 50.1747 191.654 50.2514C191.43 50.3253 191.248 50.4375 191.109 50.5881C190.973 50.7358 190.904 50.9375 190.904 51.1932C190.904 51.5426 191.034 51.8068 191.292 51.9858C191.554 52.1619 191.885 52.25 192.285 52.25ZM197.973 49.0625V53H196.967V46.4545H197.939V47.4773H198.024C198.178 47.1449 198.411 46.8778 198.723 46.6761C199.036 46.4716 199.439 46.3693 199.933 46.3693C200.376 46.3693 200.764 46.4602 201.097 46.642C201.429 46.821 201.688 47.0938 201.872 47.4602C202.057 47.8239 202.149 48.2841 202.149 48.8409V53H201.143V48.9091C201.143 48.3949 201.01 47.9943 200.743 47.7074C200.476 47.4176 200.109 47.2727 199.643 47.2727C199.322 47.2727 199.036 47.3423 198.783 47.4815C198.533 47.6207 198.335 47.8239 198.19 48.0909C198.045 48.358 197.973 48.6818 197.973 49.0625ZM207.856 53H206.748L209.953 44.2727H211.044L214.248 53H213.14L210.532 45.6534H210.464L207.856 53ZM208.265 49.5909H212.731V50.5284H208.265V49.5909ZM216.664 44.2727V53H215.608V44.2727H216.664ZM222.397 48.7898V49.7273H218.579V48.7898H222.397ZM37.6648 68.1364C37.0341 68.1364 36.4901 67.9972 36.0327 67.7188C35.5781 67.4375 35.2273 67.0455 34.9801 66.5426C34.7358 66.0369 34.6136 65.4489 34.6136 64.7784C34.6136 64.108 34.7358 63.517 34.9801 63.0057C35.2273 62.4915 35.571 62.0909 36.0114 61.804C36.4545 61.5142 36.9716 61.3693 37.5625 61.3693C37.9034 61.3693 38.2401 61.4261 38.5724 61.5398C38.9048 61.6534 39.2074 61.8381 39.4801 62.0938C39.7528 62.3466 39.9702 62.6818 40.1321 63.0994C40.294 63.517 40.375 64.0312 40.375 64.642V65.0682H35.3295V64.1989H39.3523C39.3523 63.8295 39.2784 63.5 39.1307 63.2102C38.9858 62.9205 38.7784 62.6918 38.5085 62.5241C38.2415 62.3565 37.9261 62.2727 37.5625 62.2727C37.1619 62.2727 36.8153 62.3722 36.5227 62.571C36.233 62.767 36.0099 63.0227 35.8537 63.3381C35.6974 63.6534 35.6193 63.9915 35.6193 64.3523V64.9318C35.6193 65.4261 35.7045 65.8452 35.875 66.1889C36.0483 66.5298 36.2884 66.7898 36.5952 66.9688C36.902 67.1449 37.2585 67.233 37.6648 67.233C37.929 67.233 38.1676 67.196 38.3807 67.1222C38.5966 67.0455 38.7827 66.9318 38.9389 66.7812C39.0952 66.6278 39.2159 66.4375 39.3011 66.2102L40.2727 66.483C40.1705 66.8125 39.9986 67.1023 39.7571 67.3523C39.5156 67.5994 39.2173 67.7926 38.8622 67.9318C38.5071 68.0682 38.108 68.1364 37.6648 68.1364ZM42.9105 64.0625V68H41.9048V61.4545H42.8764V62.4773H42.9616C43.1151 62.1449 43.348 61.8778 43.6605 61.6761C43.973 61.4716 44.3764 61.3693 44.8707 61.3693C45.3139 61.3693 45.7017 61.4602 46.0341 61.642C46.3665 61.821 46.625 62.0938 46.8097 62.4602C46.9943 62.8239 47.0866 63.2841 47.0866 63.8409V68H46.081V63.9091C46.081 63.3949 45.9474 62.9943 45.6804 62.7074C45.4134 62.4176 45.0469 62.2727 44.581 62.2727C44.2599 62.2727 43.973 62.3423 43.7202 62.4815C43.4702 62.6207 43.2727 62.8239 43.1278 63.0909C42.983 63.358 42.9105 63.6818 42.9105 64.0625ZM49.93 64.0625V68H48.9244V59.2727H49.93V62.4773H50.0153C50.1687 62.1392 50.3988 61.8707 50.7056 61.6719C51.0153 61.4702 51.4272 61.3693 51.9414 61.3693C52.3874 61.3693 52.7781 61.4588 53.1133 61.6378C53.4485 61.8139 53.7085 62.0852 53.8931 62.4517C54.0806 62.8153 54.1744 63.2784 54.1744 63.8409V68H53.1687V63.9091C53.1687 63.3892 53.0337 62.9872 52.7638 62.7031C52.4968 62.4162 52.1261 62.2727 51.6516 62.2727C51.3221 62.2727 51.0266 62.3423 50.7653 62.4815C50.5067 62.6207 50.3022 62.8239 50.1516 63.0909C50.0039 63.358 49.93 63.6818 49.93 64.0625ZM57.9403 68.1534C57.5256 68.1534 57.1491 68.0753 56.8111 67.919C56.473 67.7599 56.2045 67.5312 56.0057 67.233C55.8068 66.9318 55.7074 66.5682 55.7074 66.142C55.7074 65.767 55.7813 65.4631 55.929 65.2301C56.0767 64.9943 56.2741 64.8097 56.5213 64.6761C56.7685 64.5426 57.0412 64.4432 57.3395 64.3778C57.6406 64.3097 57.9432 64.2557 58.2472 64.2159C58.6449 64.1648 58.9673 64.1264 59.2145 64.1009C59.4645 64.0724 59.6463 64.0256 59.7599 63.9602C59.8764 63.8949 59.9347 63.7812 59.9347 63.6193V63.5852C59.9347 63.1648 59.8196 62.8381 59.5895 62.6051C59.3622 62.3722 59.017 62.2557 58.554 62.2557C58.0739 62.2557 57.6974 62.3608 57.4247 62.571C57.152 62.7812 56.9602 63.0057 56.8494 63.2443L55.8949 62.9034C56.0653 62.5057 56.2926 62.196 56.5767 61.9744C56.8636 61.75 57.1761 61.5937 57.5142 61.5057C57.8551 61.4148 58.1903 61.3693 58.5199 61.3693C58.7301 61.3693 58.9716 61.3949 59.2443 61.446C59.5199 61.4943 59.7855 61.5952 60.0412 61.7486C60.2997 61.902 60.5142 62.1335 60.6847 62.4432C60.8551 62.7528 60.9403 63.1676 60.9403 63.6875V68H59.9347V67.1136H59.8835C59.8153 67.2557 59.7017 67.4077 59.5426 67.5696C59.3835 67.7315 59.1719 67.8693 58.9077 67.983C58.6435 68.0966 58.321 68.1534 57.9403 68.1534ZM58.0938 67.25C58.4915 67.25 58.8267 67.1719 59.0994 67.0156C59.375 66.8594 59.5824 66.6577 59.7216 66.4105C59.8636 66.1634 59.9347 65.9034 59.9347 65.6307V64.7102C59.892 64.7614 59.7983 64.8082 59.6534 64.8509C59.5114 64.8906 59.3466 64.9261 59.1591 64.9574C58.9744 64.9858 58.794 65.0114 58.6179 65.0341C58.4446 65.054 58.304 65.071 58.196 65.0852C57.9347 65.1193 57.6903 65.1747 57.4631 65.2514C57.2386 65.3253 57.0568 65.4375 56.9176 65.5881C56.7813 65.7358 56.7131 65.9375 56.7131 66.1932C56.7131 66.5426 56.8423 66.8068 57.1009 66.9858C57.3622 67.1619 57.6932 67.25 58.0938 67.25ZM63.7816 64.0625V68H62.7759V61.4545H63.7475V62.4773H63.8327C63.9862 62.1449 64.2191 61.8778 64.5316 61.6761C64.8441 61.4716 65.2475 61.3693 65.7418 61.3693C66.185 61.3693 66.5728 61.4602 66.9052 61.642C67.2376 61.821 67.4961 62.0938 67.6808 62.4602C67.8654 62.8239 67.9577 63.2841 67.9577 63.8409V68H66.9521V63.9091C66.9521 63.3949 66.8185 62.9943 66.5515 62.7074C66.2844 62.4176 65.918 62.2727 65.4521 62.2727C65.131 62.2727 64.8441 62.3423 64.5913 62.4815C64.3413 62.6207 64.1438 62.8239 63.9989 63.0909C63.854 63.358 63.7816 63.6818 63.7816 64.0625ZM72.4545 68.1364C71.8409 68.1364 71.3125 67.9915 70.8693 67.7017C70.4261 67.4119 70.0852 67.0128 69.8466 66.5043C69.608 65.9957 69.4886 65.4148 69.4886 64.7614C69.4886 64.0966 69.6108 63.5099 69.8551 63.0014C70.1023 62.4901 70.446 62.0909 70.8864 61.804C71.3295 61.5142 71.8466 61.3693 72.4375 61.3693C72.8977 61.3693 73.3125 61.4545 73.6818 61.625C74.0511 61.7955 74.3537 62.0341 74.5895 62.3409C74.8253 62.6477 74.9716 63.0057 75.0284 63.4148H74.0227C73.946 63.1165 73.7756 62.8523 73.5114 62.6222C73.25 62.3892 72.8977 62.2727 72.4545 62.2727C72.0625 62.2727 71.7188 62.375 71.4233 62.5795C71.1307 62.7812 70.902 63.0668 70.7372 63.4361C70.5753 63.8026 70.4943 64.233 70.4943 64.7273C70.4943 65.233 70.5739 65.6733 70.733 66.0483C70.8949 66.4233 71.1222 66.7145 71.4148 66.9219C71.7102 67.1293 72.0568 67.233 72.4545 67.233C72.7159 67.233 72.9531 67.1875 73.1662 67.0966C73.3793 67.0057 73.5597 66.875 73.7074 66.7045C73.8551 66.5341 73.9602 66.3295 74.0227 66.0909H75.0284C74.9716 66.4773 74.831 66.8253 74.6065 67.1349C74.3849 67.4418 74.0909 67.6861 73.7244 67.8679C73.3608 68.0469 72.9375 68.1364 72.4545 68.1364ZM79.2429 68.1364C78.6122 68.1364 78.0682 67.9972 77.6108 67.7188C77.1562 67.4375 76.8054 67.0455 76.5582 66.5426C76.3139 66.0369 76.1918 65.4489 76.1918 64.7784C76.1918 64.108 76.3139 63.517 76.5582 63.0057C76.8054 62.4915 77.1491 62.0909 77.5895 61.804C78.0327 61.5142 78.5497 61.3693 79.1406 61.3693C79.4815 61.3693 79.8182 61.4261 80.1506 61.5398C80.483 61.6534 80.7855 61.8381 81.0582 62.0938C81.331 62.3466 81.5483 62.6818 81.7102 63.0994C81.8722 63.517 81.9531 64.0312 81.9531 64.642V65.0682H76.9077V64.1989H80.9304C80.9304 63.8295 80.8565 63.5 80.7088 63.2102C80.5639 62.9205 80.3565 62.6918 80.0866 62.5241C79.8196 62.3565 79.5043 62.2727 79.1406 62.2727C78.7401 62.2727 78.3935 62.3722 78.1009 62.571C77.8111 62.767 77.5881 63.0227 77.4318 63.3381C77.2756 63.6534 77.1974 63.9915 77.1974 64.3523V64.9318C77.1974 65.4261 77.2827 65.8452 77.4531 66.1889C77.6264 66.5298 77.8665 66.7898 78.1733 66.9688C78.4801 67.1449 78.8366 67.233 79.2429 67.233C79.5071 67.233 79.7457 67.196 79.9588 67.1222C80.1747 67.0455 80.3608 66.9318 80.517 66.7812C80.6733 66.6278 80.794 66.4375 80.8793 66.2102L81.8509 66.483C81.7486 66.8125 81.5767 67.1023 81.3352 67.3523C81.0938 67.5994 80.7955 67.7926 80.4403 67.9318C80.0852 68.0682 79.6861 68.1364 79.2429 68.1364ZM85.9545 68.1364C85.4091 68.1364 84.9276 67.9986 84.5099 67.723C84.0923 67.4446 83.7656 67.0526 83.5298 66.5469C83.294 66.0384 83.1761 65.4375 83.1761 64.7443C83.1761 64.0568 83.294 63.4602 83.5298 62.9545C83.7656 62.4489 84.0938 62.0582 84.5142 61.7827C84.9347 61.5071 85.4205 61.3693 85.9716 61.3693C86.3977 61.3693 86.7344 61.4403 86.9815 61.5824C87.2315 61.7216 87.4219 61.8807 87.5526 62.0597C87.6861 62.2358 87.7898 62.3807 87.8636 62.4943H87.9489V59.2727H88.9545V68H87.983V66.9943H87.8636C87.7898 67.1136 87.6847 67.2642 87.5483 67.446C87.4119 67.625 87.2173 67.7855 86.9645 67.9276C86.7116 68.0668 86.375 68.1364 85.9545 68.1364ZM86.0909 67.233C86.4943 67.233 86.8352 67.1278 87.1136 66.9176C87.392 66.7045 87.6037 66.4105 87.7486 66.0355C87.8935 65.6577 87.9659 65.2216 87.9659 64.7273C87.9659 64.2386 87.8949 63.8111 87.7528 63.4446C87.6108 63.0753 87.4006 62.7884 87.1222 62.5838C86.8438 62.3764 86.5 62.2727 86.0909 62.2727C85.6648 62.2727 85.3097 62.3821 85.0256 62.6009C84.7443 62.8168 84.5327 63.1108 84.3906 63.483C84.2514 63.8523 84.1818 64.267 84.1818 64.7273C84.1818 65.1932 84.2528 65.6165 84.3949 65.9972C84.5398 66.375 84.7528 66.6761 85.0341 66.9006C85.3182 67.1222 85.6705 67.233 86.0909 67.233ZM94.3111 68V61.4545H95.3168V68H94.3111ZM94.8224 60.3636C94.6264 60.3636 94.4574 60.2969 94.3153 60.1634C94.1761 60.0298 94.1065 59.8693 94.1065 59.6818C94.1065 59.4943 94.1761 59.3338 94.3153 59.2003C94.4574 59.0668 94.6264 59 94.8224 59C95.0185 59 95.1861 59.0668 95.3253 59.2003C95.4673 59.3338 95.5384 59.4943 95.5384 59.6818C95.5384 59.8693 95.4673 60.0298 95.3253 60.1634C95.1861 60.2969 95.0185 60.3636 94.8224 60.3636ZM98.1644 64.0625V68H97.1587V61.4545H98.1303V62.4773H98.2156C98.369 62.1449 98.6019 61.8778 98.9144 61.6761C99.2269 61.4716 99.6303 61.3693 100.125 61.3693C100.568 61.3693 100.956 61.4602 101.288 61.642C101.62 61.821 101.879 62.0938 102.064 62.4602C102.248 62.8239 102.341 63.2841 102.341 63.8409V68H101.335V63.9091C101.335 63.3949 101.201 62.9943 100.934 62.7074C100.667 62.4176 100.301 62.2727 99.8349 62.2727C99.5138 62.2727 99.2269 62.3423 98.9741 62.4815C98.7241 62.6207 98.5266 62.8239 98.3817 63.0909C98.2369 63.358 98.1644 63.6818 98.1644 64.0625ZM104.315 68V59.2727H105.32V62.4943H105.406C105.479 62.3807 105.582 62.2358 105.712 62.0597C105.846 61.8807 106.036 61.7216 106.283 61.5824C106.533 61.4403 106.871 61.3693 107.298 61.3693C107.849 61.3693 108.335 61.5071 108.755 61.7827C109.175 62.0582 109.504 62.4489 109.739 62.9545C109.975 63.4602 110.093 64.0568 110.093 64.7443C110.093 65.4375 109.975 66.0384 109.739 66.5469C109.504 67.0526 109.177 67.4446 108.759 67.723C108.342 67.9986 107.86 68.1364 107.315 68.1364C106.894 68.1364 106.558 68.0668 106.305 67.9276C106.052 67.7855 105.857 67.625 105.721 67.446C105.585 67.2642 105.479 67.1136 105.406 66.9943H105.286V68H104.315ZM105.303 64.7273C105.303 65.2216 105.376 65.6577 105.521 66.0355C105.665 66.4105 105.877 66.7045 106.156 66.9176C106.434 67.1278 106.775 67.233 107.178 67.233C107.599 67.233 107.95 67.1222 108.231 66.9006C108.515 66.6761 108.728 66.375 108.87 65.9972C109.015 65.6165 109.087 65.1932 109.087 64.7273C109.087 64.267 109.016 63.8523 108.874 63.483C108.735 63.1108 108.523 62.8168 108.239 62.6009C107.958 62.3821 107.604 62.2727 107.178 62.2727C106.769 62.2727 106.425 62.3764 106.147 62.5838C105.869 62.7884 105.658 63.0753 105.516 63.4446C105.374 63.8111 105.303 64.2386 105.303 64.7273ZM114.29 68.1364C113.7 68.1364 113.181 67.9957 112.735 67.7145C112.292 67.4332 111.945 67.0398 111.695 66.5341C111.448 66.0284 111.325 65.4375 111.325 64.7614C111.325 64.0795 111.448 63.4844 111.695 62.9759C111.945 62.4673 112.292 62.0724 112.735 61.7912C113.181 61.5099 113.7 61.3693 114.29 61.3693C114.881 61.3693 115.398 61.5099 115.842 61.7912C116.288 62.0724 116.634 62.4673 116.881 62.9759C117.131 63.4844 117.256 64.0795 117.256 64.7614C117.256 65.4375 117.131 66.0284 116.881 66.5341C116.634 67.0398 116.288 67.4332 115.842 67.7145C115.398 67.9957 114.881 68.1364 114.29 68.1364ZM114.29 67.233C114.739 67.233 115.109 67.1179 115.398 66.8878C115.688 66.6577 115.903 66.3551 116.042 65.9801C116.181 65.6051 116.251 65.1989 116.251 64.7614C116.251 64.3239 116.181 63.9162 116.042 63.5384C115.903 63.1605 115.688 62.8551 115.398 62.6222C115.109 62.3892 114.739 62.2727 114.29 62.2727C113.842 62.2727 113.472 62.3892 113.183 62.6222C112.893 62.8551 112.678 63.1605 112.539 63.5384C112.4 63.9162 112.33 64.3239 112.33 64.7614C112.33 65.1989 112.4 65.6051 112.539 65.9801C112.678 66.3551 112.893 66.6577 113.183 66.8878C113.472 67.1179 113.842 67.233 114.29 67.233ZM119.272 61.4545L120.84 64.1307L122.408 61.4545H123.567L121.454 64.7273L123.567 68H122.408L120.84 65.4602L119.272 68H118.113L120.192 64.7273L118.113 61.4545H119.272ZM125.735 68.0682C125.525 68.0682 125.345 67.9929 125.194 67.8423C125.044 67.6918 124.968 67.5114 124.968 67.3011C124.968 67.0909 125.044 66.9105 125.194 66.7599C125.345 66.6094 125.525 66.5341 125.735 66.5341C125.946 66.5341 126.126 66.6094 126.277 66.7599C126.427 66.9105 126.502 67.0909 126.502 67.3011C126.502 67.4403 126.467 67.5682 126.396 67.6847C126.328 67.8011 126.235 67.8949 126.119 67.9659C126.005 68.0341 125.877 68.0682 125.735 68.0682ZM128.444 59.2727H129.705L132.671 66.517H132.773L135.739 59.2727H137V68H136.012V61.3693H135.926L133.199 68H132.245L129.517 61.3693H129.432V68H128.444V59.2727ZM140.909 68.1534C140.494 68.1534 140.118 68.0753 139.78 67.919C139.442 67.7599 139.173 67.5312 138.974 67.233C138.776 66.9318 138.676 66.5682 138.676 66.142C138.676 65.767 138.75 65.4631 138.898 65.2301C139.045 64.9943 139.243 64.8097 139.49 64.6761C139.737 64.5426 140.01 64.4432 140.308 64.3778C140.609 64.3097 140.912 64.2557 141.216 64.2159C141.614 64.1648 141.936 64.1264 142.183 64.1009C142.433 64.0724 142.615 64.0256 142.729 63.9602C142.845 63.8949 142.903 63.7812 142.903 63.6193V63.5852C142.903 63.1648 142.788 62.8381 142.558 62.6051C142.331 62.3722 141.986 62.2557 141.523 62.2557C141.043 62.2557 140.666 62.3608 140.393 62.571C140.121 62.7812 139.929 63.0057 139.818 63.2443L138.864 62.9034C139.034 62.5057 139.261 62.196 139.545 61.9744C139.832 61.75 140.145 61.5937 140.483 61.5057C140.824 61.4148 141.159 61.3693 141.489 61.3693C141.699 61.3693 141.94 61.3949 142.213 61.446C142.489 61.4943 142.754 61.5952 143.01 61.7486C143.268 61.902 143.483 62.1335 143.653 62.4432C143.824 62.7528 143.909 63.1676 143.909 63.6875V68H142.903V67.1136H142.852C142.784 67.2557 142.67 67.4077 142.511 67.5696C142.352 67.7315 142.141 67.8693 141.876 67.983C141.612 68.0966 141.29 68.1534 140.909 68.1534ZM141.062 67.25C141.46 67.25 141.795 67.1719 142.068 67.0156C142.344 66.8594 142.551 66.6577 142.69 66.4105C142.832 66.1634 142.903 65.9034 142.903 65.6307V64.7102C142.861 64.7614 142.767 64.8082 142.622 64.8509C142.48 64.8906 142.315 64.9261 142.128 64.9574C141.943 64.9858 141.763 65.0114 141.587 65.0341C141.413 65.054 141.273 65.071 141.165 65.0852C140.903 65.1193 140.659 65.1747 140.432 65.2514C140.207 65.3253 140.026 65.4375 139.886 65.5881C139.75 65.7358 139.682 65.9375 139.682 66.1932C139.682 66.5426 139.811 66.8068 140.07 66.9858C140.331 67.1619 140.662 67.25 141.062 67.25ZM146.495 61.4545L148.063 64.1307L149.631 61.4545H150.79L148.676 64.7273L150.79 68H149.631L148.063 65.4602L146.495 68H145.336L147.415 64.7273L145.336 61.4545H146.495ZM152.225 68V61.4545H153.231V68H152.225ZM152.737 60.3636C152.54 60.3636 152.371 60.2969 152.229 60.1634C152.09 60.0298 152.021 59.8693 152.021 59.6818C152.021 59.4943 152.09 59.3338 152.229 59.2003C152.371 59.0668 152.54 59 152.737 59C152.933 59 153.1 59.0668 153.239 59.2003C153.381 59.3338 153.452 59.4943 153.452 59.6818C153.452 59.8693 153.381 60.0298 153.239 60.1634C153.1 60.2969 152.933 60.3636 152.737 60.3636ZM155.073 68V61.4545H156.044V62.4773H156.13C156.266 62.1278 156.486 61.8565 156.79 61.6634C157.094 61.4673 157.459 61.3693 157.885 61.3693C158.317 61.3693 158.676 61.4673 158.963 61.6634C159.253 61.8565 159.479 62.1278 159.641 62.4773H159.709C159.877 62.1392 160.128 61.8707 160.463 61.6719C160.799 61.4702 161.201 61.3693 161.669 61.3693C162.255 61.3693 162.733 61.5526 163.105 61.919C163.478 62.2827 163.664 62.8494 163.664 63.6193V68H162.658V63.6193C162.658 63.1364 162.526 62.7912 162.262 62.5838C161.998 62.3764 161.686 62.2727 161.328 62.2727C160.868 62.2727 160.512 62.4119 160.259 62.6903C160.006 62.9659 159.88 63.3153 159.88 63.7386V68H158.857V63.517C158.857 63.1449 158.736 62.8452 158.495 62.6179C158.253 62.3878 157.942 62.2727 157.561 62.2727C157.3 62.2727 157.056 62.3423 156.828 62.4815C156.604 62.6207 156.422 62.8139 156.283 63.0611C156.147 63.3054 156.078 63.5881 156.078 63.9091V68H155.073ZM165.502 68V61.4545H166.508V68H165.502ZM166.014 60.3636C165.818 60.3636 165.649 60.2969 165.507 60.1634C165.368 60.0298 165.298 59.8693 165.298 59.6818C165.298 59.4943 165.368 59.3338 165.507 59.2003C165.649 59.0668 165.818 59 166.014 59C166.21 59 166.377 59.0668 166.517 59.2003C166.659 59.3338 166.73 59.4943 166.73 59.6818C166.73 59.8693 166.659 60.0298 166.517 60.1634C166.377 60.2969 166.21 60.3636 166.014 60.3636ZM168.163 68V67.233L171.879 62.4602V62.392H168.282V61.4545H173.174V62.2557L169.56 66.9943V67.0625H173.293V68H168.163ZM177.399 68.1364C176.768 68.1364 176.224 67.9972 175.767 67.7188C175.312 67.4375 174.962 67.0455 174.714 66.5426C174.47 66.0369 174.348 65.4489 174.348 64.7784C174.348 64.108 174.47 63.517 174.714 63.0057C174.962 62.4915 175.305 62.0909 175.746 61.804C176.189 61.5142 176.706 61.3693 177.297 61.3693C177.638 61.3693 177.974 61.4261 178.307 61.5398C178.639 61.6534 178.942 61.8381 179.214 62.0938C179.487 62.3466 179.705 62.6818 179.866 63.0994C180.028 63.517 180.109 64.0312 180.109 64.642V65.0682H175.064V64.1989H179.087C179.087 63.8295 179.013 63.5 178.865 63.2102C178.72 62.9205 178.513 62.6918 178.243 62.5241C177.976 62.3565 177.661 62.2727 177.297 62.2727C176.896 62.2727 176.55 62.3722 176.257 62.571C175.967 62.767 175.744 63.0227 175.588 63.3381C175.432 63.6534 175.354 63.9915 175.354 64.3523V64.9318C175.354 65.4261 175.439 65.8452 175.609 66.1889C175.783 66.5298 176.023 66.7898 176.33 66.9688C176.636 67.1449 176.993 67.233 177.399 67.233C177.663 67.233 177.902 67.196 178.115 67.1222C178.331 67.0455 178.517 66.9318 178.673 66.7812C178.83 66.6278 178.95 66.4375 179.036 66.2102L180.007 66.483C179.905 66.8125 179.733 67.1023 179.491 67.3523C179.25 67.5994 178.952 67.7926 178.597 67.9318C178.241 68.0682 177.842 68.1364 177.399 68.1364ZM34.9205 85.4545V76.4545H35.892V77.4943H36.0114C36.0852 77.3807 36.1875 77.2358 36.3182 77.0597C36.4517 76.8807 36.642 76.7216 36.8892 76.5824C37.1392 76.4403 37.4773 76.3693 37.9034 76.3693C38.4545 76.3693 38.9403 76.5071 39.3608 76.7827C39.7813 77.0582 40.1094 77.4489 40.3452 77.9545C40.581 78.4602 40.6989 79.0568 40.6989 79.7443C40.6989 80.4375 40.581 81.0384 40.3452 81.5469C40.1094 82.0526 39.7827 82.4446 39.3651 82.723C38.9474 82.9986 38.4659 83.1364 37.9205 83.1364C37.5 83.1364 37.1634 83.0668 36.9105 82.9276C36.6577 82.7855 36.4631 82.625 36.3267 82.446C36.1903 82.2642 36.0852 82.1136 36.0114 81.9943H35.9261V85.4545H34.9205ZM35.9091 79.7273C35.9091 80.2216 35.9815 80.6577 36.1264 81.0355C36.2713 81.4105 36.483 81.7045 36.7614 81.9176C37.0398 82.1278 37.3807 82.233 37.7841 82.233C38.2045 82.233 38.5554 82.1222 38.8366 81.9006C39.1207 81.6761 39.3338 81.375 39.4759 80.9972C39.6207 80.6165 39.6932 80.1932 39.6932 79.7273C39.6932 79.267 39.6222 78.8523 39.4801 78.483C39.3409 78.1108 39.1293 77.8168 38.8452 77.6009C38.5639 77.3821 38.2102 77.2727 37.7841 77.2727C37.375 77.2727 37.0313 77.3764 36.7528 77.5838C36.4744 77.7884 36.2642 78.0753 36.1222 78.4446C35.9801 78.8111 35.9091 79.2386 35.9091 79.7273ZM42.233 83V76.4545H43.2045V77.4432H43.2727C43.392 77.1193 43.608 76.8565 43.9205 76.6548C44.233 76.4531 44.5852 76.3523 44.9773 76.3523C45.0511 76.3523 45.1435 76.3537 45.2543 76.3565C45.3651 76.3594 45.4489 76.3636 45.5057 76.3693V77.392C45.4716 77.3835 45.3935 77.3707 45.2713 77.3537C45.152 77.3338 45.0256 77.3239 44.892 77.3239C44.5739 77.3239 44.2898 77.3906 44.0398 77.5241C43.7926 77.6548 43.5966 77.8366 43.4517 78.0696C43.3097 78.2997 43.2386 78.5625 43.2386 78.858V83H42.233ZM49.1577 83.1364C48.5668 83.1364 48.0483 82.9957 47.6023 82.7145C47.1591 82.4332 46.8125 82.0398 46.5625 81.5341C46.3153 81.0284 46.1918 80.4375 46.1918 79.7614C46.1918 79.0795 46.3153 78.4844 46.5625 77.9759C46.8125 77.4673 47.1591 77.0724 47.6023 76.7912C48.0483 76.5099 48.5668 76.3693 49.1577 76.3693C49.7486 76.3693 50.2656 76.5099 50.7088 76.7912C51.1548 77.0724 51.5014 77.4673 51.7486 77.9759C51.9986 78.4844 52.1236 79.0795 52.1236 79.7614C52.1236 80.4375 51.9986 81.0284 51.7486 81.5341C51.5014 82.0398 51.1548 82.4332 50.7088 82.7145C50.2656 82.9957 49.7486 83.1364 49.1577 83.1364ZM49.1577 82.233C49.6065 82.233 49.9759 82.1179 50.2656 81.8878C50.5554 81.6577 50.7699 81.3551 50.9091 80.9801C51.0483 80.6051 51.1179 80.1989 51.1179 79.7614C51.1179 79.3239 51.0483 78.9162 50.9091 78.5384C50.7699 78.1605 50.5554 77.8551 50.2656 77.6222C49.9759 77.3892 49.6065 77.2727 49.1577 77.2727C48.7088 77.2727 48.3395 77.3892 48.0497 77.6222C47.7599 77.8551 47.5455 78.1605 47.4062 78.5384C47.267 78.9162 47.1974 79.3239 47.1974 79.7614C47.1974 80.1989 47.267 80.6051 47.4062 80.9801C47.5455 81.3551 47.7599 81.6577 48.0497 81.8878C48.3395 82.1179 48.7088 82.233 49.1577 82.233ZM56.1303 83.1364C55.5849 83.1364 55.1033 82.9986 54.6857 82.723C54.2681 82.4446 53.9414 82.0526 53.7056 81.5469C53.4698 81.0384 53.3519 80.4375 53.3519 79.7443C53.3519 79.0568 53.4698 78.4602 53.7056 77.9545C53.9414 77.4489 54.2695 77.0582 54.69 76.7827C55.1104 76.5071 55.5962 76.3693 56.1474 76.3693C56.5735 76.3693 56.9102 76.4403 57.1573 76.5824C57.4073 76.7216 57.5977 76.8807 57.7283 77.0597C57.8619 77.2358 57.9656 77.3807 58.0394 77.4943H58.1246V74.2727H59.1303V83H58.1587V81.9943H58.0394C57.9656 82.1136 57.8604 82.2642 57.7241 82.446C57.5877 82.625 57.3931 82.7855 57.1403 82.9276C56.8874 83.0668 56.5508 83.1364 56.1303 83.1364ZM56.2667 82.233C56.6701 82.233 57.011 82.1278 57.2894 81.9176C57.5678 81.7045 57.7795 81.4105 57.9244 81.0355C58.0692 80.6577 58.1417 80.2216 58.1417 79.7273C58.1417 79.2386 58.0707 78.8111 57.9286 78.4446C57.7866 78.0753 57.5763 77.7884 57.2979 77.5838C57.0195 77.3764 56.6758 77.2727 56.2667 77.2727C55.8406 77.2727 55.4854 77.3821 55.2013 77.6009C54.9201 77.8168 54.7085 78.1108 54.5664 78.483C54.4272 78.8523 54.3576 79.267 54.3576 79.7273C54.3576 80.1932 54.4286 80.6165 54.5707 80.9972C54.7156 81.375 54.9286 81.6761 55.2099 81.9006C55.494 82.1222 55.8462 82.233 56.2667 82.233ZM65.2369 80.3239V76.4545H66.2425V83H65.2369V81.892H65.1687C65.0153 82.2244 64.7766 82.5071 64.4528 82.7401C64.1289 82.9702 63.7198 83.0852 63.2255 83.0852C62.8164 83.0852 62.4528 82.9957 62.1346 82.8168C61.8164 82.6349 61.5664 82.3622 61.3846 81.9986C61.2028 81.6321 61.1119 81.1705 61.1119 80.6136V76.4545H62.1175V80.5455C62.1175 81.0227 62.2511 81.4034 62.5181 81.6875C62.788 81.9716 63.1317 82.1136 63.5494 82.1136C63.7994 82.1136 64.0536 82.0497 64.3121 81.9219C64.5735 81.794 64.7923 81.598 64.9684 81.3338C65.1474 81.0696 65.2369 80.733 65.2369 80.3239ZM70.7436 83.1364C70.13 83.1364 69.6016 82.9915 69.1584 82.7017C68.7152 82.4119 68.3743 82.0128 68.1357 81.5043C67.897 80.9957 67.7777 80.4148 67.7777 79.7614C67.7777 79.0966 67.8999 78.5099 68.1442 78.0014C68.3913 77.4901 68.7351 77.0909 69.1754 76.804C69.6186 76.5142 70.1357 76.3693 70.7266 76.3693C71.1868 76.3693 71.6016 76.4545 71.9709 76.625C72.3402 76.7955 72.6428 77.0341 72.8786 77.3409C73.1143 77.6477 73.2607 78.0057 73.3175 78.4148H72.3118C72.2351 78.1165 72.0646 77.8523 71.8004 77.6222C71.5391 77.3892 71.1868 77.2727 70.7436 77.2727C70.3516 77.2727 70.0078 77.375 69.7124 77.5795C69.4197 77.7812 69.1911 78.0668 69.0263 78.4361C68.8643 78.8026 68.7834 79.233 68.7834 79.7273C68.7834 80.233 68.8629 80.6733 69.022 81.0483C69.1839 81.4233 69.4112 81.7145 69.7038 81.9219C69.9993 82.1293 70.3459 82.233 70.7436 82.233C71.005 82.233 71.2422 82.1875 71.4553 82.0966C71.6683 82.0057 71.8487 81.875 71.9964 81.7045C72.1442 81.5341 72.2493 81.3295 72.3118 81.0909H73.3175C73.2607 81.4773 73.12 81.8253 72.8956 82.1349C72.674 82.4418 72.38 82.6861 72.0135 82.8679C71.6499 83.0469 71.2266 83.1364 70.7436 83.1364ZM77.6342 76.4545V77.3068H74.2422V76.4545H77.6342ZM75.2308 74.8864H76.2365V81.125C76.2365 81.4091 76.2777 81.6222 76.3601 81.7642C76.4453 81.9034 76.5533 81.9972 76.6839 82.0455C76.8175 82.0909 76.9581 82.1136 77.1058 82.1136C77.2166 82.1136 77.3075 82.108 77.3786 82.0966C77.4496 82.0824 77.5064 82.071 77.549 82.0625L77.7536 82.9659C77.6854 82.9915 77.5902 83.017 77.468 83.0426C77.3459 83.071 77.1911 83.0852 77.0036 83.0852C76.7195 83.0852 76.4411 83.0241 76.1683 82.902C75.8984 82.7798 75.674 82.5938 75.495 82.3438C75.3189 82.0938 75.2308 81.7784 75.2308 81.3977V74.8864ZM79.147 83V76.4545H80.1527V83H79.147ZM79.6584 75.3636C79.4624 75.3636 79.2933 75.2969 79.1513 75.1634C79.0121 75.0298 78.9425 74.8693 78.9425 74.6818C78.9425 74.4943 79.0121 74.3338 79.1513 74.2003C79.2933 74.0668 79.4624 74 79.6584 74C79.8544 74 80.022 74.0668 80.1612 74.2003C80.3033 74.3338 80.3743 74.4943 80.3743 74.6818C80.3743 74.8693 80.3033 75.0298 80.1612 75.1634C80.022 75.2969 79.8544 75.3636 79.6584 75.3636ZM87.3469 76.4545L84.9265 83H83.9038L81.4833 76.4545H82.5742L84.381 81.6705H84.4492L86.256 76.4545H87.3469ZM88.6744 83V76.4545H89.68V83H88.6744ZM89.1857 75.3636C88.9897 75.3636 88.8207 75.2969 88.6786 75.1634C88.5394 75.0298 88.4698 74.8693 88.4698 74.6818C88.4698 74.4943 88.5394 74.3338 88.6786 74.2003C88.8207 74.0668 88.9897 74 89.1857 74C89.3817 74 89.5494 74.0668 89.6886 74.2003C89.8306 74.3338 89.9016 74.4943 89.9016 74.6818C89.9016 74.8693 89.8306 75.0298 89.6886 75.1634C89.5494 75.2969 89.3817 75.3636 89.1857 75.3636ZM94.3686 76.4545V77.3068H90.9766V76.4545H94.3686ZM91.9652 74.8864H92.9709V81.125C92.9709 81.4091 93.0121 81.6222 93.0945 81.7642C93.1797 81.9034 93.2876 81.9972 93.4183 82.0455C93.5518 82.0909 93.6925 82.1136 93.8402 82.1136C93.951 82.1136 94.0419 82.108 94.1129 82.0966C94.1839 82.0824 94.2408 82.071 94.2834 82.0625L94.4879 82.9659C94.4197 82.9915 94.3246 83.017 94.2024 83.0426C94.0803 83.071 93.9254 83.0852 93.7379 83.0852C93.4538 83.0852 93.1754 83.0241 92.9027 82.902C92.6328 82.7798 92.4084 82.5938 92.2294 82.3438C92.0533 82.0938 91.9652 81.7784 91.9652 81.3977V74.8864ZM96.5291 85.4545C96.3587 85.4545 96.2067 85.4403 96.0732 85.4119C95.9396 85.3864 95.8473 85.3608 95.7962 85.3352L96.0518 84.4489C96.2962 84.5114 96.5121 84.5341 96.6996 84.517C96.8871 84.5 97.0533 84.4162 97.1982 84.2656C97.3459 84.1179 97.4808 83.8778 97.603 83.5455L97.7905 83.0341L95.37 76.4545H96.4609L98.2678 81.6705H98.3359L100.143 76.4545H101.234L98.4553 83.9545C98.3303 84.2926 98.1754 84.5724 97.9908 84.794C97.8061 85.0185 97.5916 85.1847 97.3473 85.2926C97.1058 85.4006 96.8331 85.4545 96.5291 85.4545ZM107.419 83L105.425 76.4545H106.482L107.896 81.4659H107.964L109.362 76.4545H110.436L111.817 81.4489H111.885L113.3 76.4545H114.357L112.362 83H111.374L109.942 77.9716H109.839L108.408 83H107.419ZM115.686 83V76.4545H116.692V83H115.686ZM116.197 75.3636C116.001 75.3636 115.832 75.2969 115.69 75.1634C115.551 75.0298 115.482 74.8693 115.482 74.6818C115.482 74.4943 115.551 74.3338 115.69 74.2003C115.832 74.0668 116.001 74 116.197 74C116.393 74 116.561 74.0668 116.7 74.2003C116.842 74.3338 116.913 74.4943 116.913 74.6818C116.913 74.8693 116.842 75.0298 116.7 75.1634C116.561 75.2969 116.393 75.3636 116.197 75.3636ZM121.38 76.4545V77.3068H117.988V76.4545H121.38ZM118.977 74.8864H119.983V81.125C119.983 81.4091 120.024 81.6222 120.106 81.7642C120.191 81.9034 120.299 81.9972 120.43 82.0455C120.564 82.0909 120.704 82.1136 120.852 82.1136C120.963 82.1136 121.054 82.108 121.125 82.0966C121.196 82.0824 121.252 82.071 121.295 82.0625L121.5 82.9659C121.431 82.9915 121.336 83.017 121.214 83.0426C121.092 83.071 120.937 83.0852 120.75 83.0852C120.466 83.0852 120.187 83.0241 119.914 82.902C119.645 82.7798 119.42 82.5938 119.241 82.3438C119.065 82.0938 118.977 81.7784 118.977 81.3977V74.8864ZM124.039 79.0625V83H123.034V74.2727H124.039V77.4773H124.125C124.278 77.1392 124.508 76.8707 124.815 76.6719C125.125 76.4702 125.537 76.3693 126.051 76.3693C126.497 76.3693 126.887 76.4588 127.223 76.6378C127.558 76.8139 127.818 77.0852 128.002 77.4517C128.19 77.8153 128.284 78.2784 128.284 78.8409V83H127.278V78.9091C127.278 78.3892 127.143 77.9872 126.873 77.7031C126.606 77.4162 126.235 77.2727 125.761 77.2727C125.431 77.2727 125.136 77.3423 124.875 77.4815C124.616 77.6207 124.412 77.8239 124.261 78.0909C124.113 78.358 124.039 78.6818 124.039 79.0625ZM135.425 83.1534C135.01 83.1534 134.634 83.0753 134.295 82.919C133.957 82.7599 133.689 82.5312 133.49 82.233C133.291 81.9318 133.192 81.5682 133.192 81.142C133.192 80.767 133.266 80.4631 133.413 80.2301C133.561 79.9943 133.759 79.8097 134.006 79.6761C134.253 79.5426 134.526 79.4432 134.824 79.3778C135.125 79.3097 135.428 79.2557 135.732 79.2159C136.129 79.1648 136.452 79.1264 136.699 79.1009C136.949 79.0724 137.131 79.0256 137.244 78.9602C137.361 78.8949 137.419 78.7812 137.419 78.6193V78.5852C137.419 78.1648 137.304 77.8381 137.074 77.6051C136.847 77.3722 136.501 77.2557 136.038 77.2557C135.558 77.2557 135.182 77.3608 134.909 77.571C134.636 77.7812 134.445 78.0057 134.334 78.2443L133.379 77.9034C133.55 77.5057 133.777 77.196 134.061 76.9744C134.348 76.75 134.661 76.5937 134.999 76.5057C135.339 76.4148 135.675 76.3693 136.004 76.3693C136.214 76.3693 136.456 76.3949 136.729 76.446C137.004 76.4943 137.27 76.5952 137.526 76.7486C137.784 76.902 137.999 77.1335 138.169 77.4432C138.339 77.7528 138.425 78.1676 138.425 78.6875V83H137.419V82.1136H137.368C137.3 82.2557 137.186 82.4077 137.027 82.5696C136.868 82.7315 136.656 82.8693 136.392 82.983C136.128 83.0966 135.805 83.1534 135.425 83.1534ZM135.578 82.25C135.976 82.25 136.311 82.1719 136.584 82.0156C136.859 81.8594 137.067 81.6577 137.206 81.4105C137.348 81.1634 137.419 80.9034 137.419 80.6307V79.7102C137.376 79.7614 137.283 79.8082 137.138 79.8509C136.996 79.8906 136.831 79.9261 136.643 79.9574C136.459 79.9858 136.278 80.0114 136.102 80.0341C135.929 80.054 135.788 80.071 135.68 80.0852C135.419 80.1193 135.175 80.1747 134.947 80.2514C134.723 80.3253 134.541 80.4375 134.402 80.5881C134.266 80.7358 134.197 80.9375 134.197 81.1932C134.197 81.5426 134.327 81.8068 134.585 81.9858C134.847 82.1619 135.178 82.25 135.578 82.25ZM141.266 79.0625V83H140.26V76.4545H141.232V77.4773H141.317C141.471 77.1449 141.703 76.8778 142.016 76.6761C142.328 76.4716 142.732 76.3693 143.226 76.3693C143.669 76.3693 144.057 76.4602 144.39 76.642C144.722 76.821 144.98 77.0938 145.165 77.4602C145.35 77.8239 145.442 78.2841 145.442 78.8409V83H144.436V78.9091C144.436 78.3949 144.303 77.9943 144.036 77.7074C143.769 77.4176 143.402 77.2727 142.936 77.2727C142.615 77.2727 142.328 77.3423 142.076 77.4815C141.826 77.6207 141.628 77.8239 141.483 78.0909C141.338 78.358 141.266 78.6818 141.266 79.0625ZM151.149 83H150.041L153.246 74.2727H154.337L157.541 83H156.433L153.825 75.6534H153.757L151.149 83ZM151.558 79.5909H156.024V80.5284H151.558V79.5909ZM159.957 74.2727V83H158.901V74.2727H159.957ZM165.69 78.7898V79.7273H161.872V78.7898H165.69ZM170.204 83.1364C169.573 83.1364 169.029 82.9972 168.572 82.7188C168.117 82.4375 167.766 82.0455 167.519 81.5426C167.275 81.0369 167.153 80.4489 167.153 79.7784C167.153 79.108 167.275 78.517 167.519 78.0057C167.766 77.4915 168.11 77.0909 168.55 76.804C168.994 76.5142 169.511 76.3693 170.102 76.3693C170.442 76.3693 170.779 76.4261 171.112 76.5398C171.444 76.6534 171.746 76.8381 172.019 77.0938C172.292 77.3466 172.509 77.6818 172.671 78.0994C172.833 78.517 172.914 79.0312 172.914 79.642V80.0682H167.869V79.1989H171.891C171.891 78.8295 171.817 78.5 171.67 78.2102C171.525 77.9205 171.317 77.6918 171.048 77.5241C170.781 77.3565 170.465 77.2727 170.102 77.2727C169.701 77.2727 169.354 77.3722 169.062 77.571C168.772 77.767 168.549 78.0227 168.393 78.3381C168.237 78.6534 168.158 78.9915 168.158 79.3523V79.9318C168.158 80.4261 168.244 80.8452 168.414 81.1889C168.587 81.5298 168.827 81.7898 169.134 81.9688C169.441 82.1449 169.798 82.233 170.204 82.233C170.468 82.233 170.707 82.196 170.92 82.1222C171.136 82.0455 171.322 81.9318 171.478 81.7812C171.634 81.6278 171.755 81.4375 171.84 81.2102L172.812 81.483C172.71 81.8125 172.538 82.1023 172.296 82.3523C172.055 82.5994 171.756 82.7926 171.401 82.9318C171.046 83.0682 170.647 83.1364 170.204 83.1364ZM175.45 79.0625V83H174.444V76.4545H175.415V77.4773H175.501C175.654 77.1449 175.887 76.8778 176.2 76.6761C176.512 76.4716 176.915 76.3693 177.41 76.3693C177.853 76.3693 178.241 76.4602 178.573 76.642C178.906 76.821 179.164 77.0938 179.349 77.4602C179.533 77.8239 179.626 78.2841 179.626 78.8409V83H178.62V78.9091C178.62 78.3949 178.487 77.9943 178.219 77.7074C177.952 77.4176 177.586 77.2727 177.12 77.2727C176.799 77.2727 176.512 77.3423 176.259 77.4815C176.009 77.6207 175.812 77.8239 175.667 78.0909C175.522 78.358 175.45 78.6818 175.45 79.0625ZM182.469 79.0625V83H181.463V74.2727H182.469V77.4773H182.554C182.708 77.1392 182.938 76.8707 183.245 76.6719C183.554 76.4702 183.966 76.3693 184.48 76.3693C184.926 76.3693 185.317 76.4588 185.652 76.6378C185.988 76.8139 186.248 77.0852 186.432 77.4517C186.62 77.8153 186.713 78.2784 186.713 78.8409V83H185.708V78.9091C185.708 78.3892 185.573 77.9872 185.303 77.7031C185.036 77.4162 184.665 77.2727 184.191 77.2727C183.861 77.2727 183.566 77.3423 183.304 77.4815C183.046 77.6207 182.841 77.8239 182.691 78.0909C182.543 78.358 182.469 78.6818 182.469 79.0625ZM190.479 83.1534C190.065 83.1534 189.688 83.0753 189.35 82.919C189.012 82.7599 188.744 82.5312 188.545 82.233C188.346 81.9318 188.246 81.5682 188.246 81.142C188.246 80.767 188.32 80.4631 188.468 80.2301C188.616 79.9943 188.813 79.8097 189.06 79.6761C189.308 79.5426 189.58 79.4432 189.879 79.3778C190.18 79.3097 190.482 79.2557 190.786 79.2159C191.184 79.1648 191.506 79.1264 191.754 79.1009C192.004 79.0724 192.185 79.0256 192.299 78.9602C192.415 78.8949 192.474 78.7812 192.474 78.6193V78.5852C192.474 78.1648 192.359 77.8381 192.129 77.6051C191.901 77.3722 191.556 77.2557 191.093 77.2557C190.613 77.2557 190.237 77.3608 189.964 77.571C189.691 77.7812 189.499 78.0057 189.388 78.2443L188.434 77.9034C188.604 77.5057 188.832 77.196 189.116 76.9744C189.403 76.75 189.715 76.5937 190.053 76.5057C190.394 76.4148 190.729 76.3693 191.059 76.3693C191.269 76.3693 191.511 76.3949 191.783 76.446C192.059 76.4943 192.325 76.5952 192.58 76.7486C192.839 76.902 193.053 77.1335 193.224 77.4432C193.394 77.7528 193.479 78.1676 193.479 78.6875V83H192.474V82.1136H192.423C192.354 82.2557 192.241 82.4077 192.082 82.5696C191.923 82.7315 191.711 82.8693 191.447 82.983C191.183 83.0966 190.86 83.1534 190.479 83.1534ZM190.633 82.25C191.031 82.25 191.366 82.1719 191.638 82.0156C191.914 81.8594 192.121 81.6577 192.261 81.4105C192.403 81.1634 192.474 80.9034 192.474 80.6307V79.7102C192.431 79.7614 192.337 79.8082 192.192 79.8509C192.05 79.8906 191.886 79.9261 191.698 79.9574C191.513 79.9858 191.333 80.0114 191.157 80.0341C190.984 80.054 190.843 80.071 190.735 80.0852C190.474 80.1193 190.229 80.1747 190.002 80.2514C189.778 80.3253 189.596 80.4375 189.457 80.5881C189.32 80.7358 189.252 80.9375 189.252 81.1932C189.252 81.5426 189.381 81.8068 189.64 81.9858C189.901 82.1619 190.232 82.25 190.633 82.25ZM196.321 79.0625V83H195.315V76.4545H196.287V77.4773H196.372C196.525 77.1449 196.758 76.8778 197.071 76.6761C197.383 76.4716 197.787 76.3693 198.281 76.3693C198.724 76.3693 199.112 76.4602 199.444 76.642C199.777 76.821 200.035 77.0938 200.22 77.4602C200.404 77.8239 200.497 78.2841 200.497 78.8409V83H199.491V78.9091C199.491 78.3949 199.358 77.9943 199.091 77.7074C198.824 77.4176 198.457 77.2727 197.991 77.2727C197.67 77.2727 197.383 77.3423 197.13 77.4815C196.88 77.6207 196.683 77.8239 196.538 78.0909C196.393 78.358 196.321 78.6818 196.321 79.0625ZM204.994 83.1364C204.38 83.1364 203.852 82.9915 203.408 82.7017C202.965 82.4119 202.624 82.0128 202.386 81.5043C202.147 80.9957 202.028 80.4148 202.028 79.7614C202.028 79.0966 202.15 78.5099 202.394 78.0014C202.641 77.4901 202.985 77.0909 203.425 76.804C203.869 76.5142 204.386 76.3693 204.977 76.3693C205.437 76.3693 205.852 76.4545 206.221 76.625C206.59 76.7955 206.893 77.0341 207.129 77.3409C207.364 77.6477 207.511 78.0057 207.567 78.4148H206.562C206.485 78.1165 206.315 77.8523 206.05 77.6222C205.789 77.3892 205.437 77.2727 204.994 77.2727C204.602 77.2727 204.258 77.375 203.962 77.5795C203.67 77.7812 203.441 78.0668 203.276 78.4361C203.114 78.8026 203.033 79.233 203.033 79.7273C203.033 80.233 203.113 80.6733 203.272 81.0483C203.434 81.4233 203.661 81.7145 203.954 81.9219C204.249 82.1293 204.596 82.233 204.994 82.233C205.255 82.233 205.492 82.1875 205.705 82.0966C205.918 82.0057 206.099 81.875 206.246 81.7045C206.394 81.5341 206.499 81.3295 206.562 81.0909H207.567C207.511 81.4773 207.37 81.8253 207.146 82.1349C206.924 82.4418 206.63 82.6861 206.263 82.8679C205.9 83.0469 205.477 83.1364 204.994 83.1364ZM211.782 83.1364C211.151 83.1364 210.607 82.9972 210.15 82.7188C209.695 82.4375 209.344 82.0455 209.097 81.5426C208.853 81.0369 208.731 80.4489 208.731 79.7784C208.731 79.108 208.853 78.517 209.097 78.0057C209.344 77.4915 209.688 77.0909 210.129 76.804C210.572 76.5142 211.089 76.3693 211.68 76.3693C212.021 76.3693 212.357 76.4261 212.69 76.5398C213.022 76.6534 213.325 76.8381 213.597 77.0938C213.87 77.3466 214.087 77.6818 214.249 78.0994C214.411 78.517 214.492 79.0312 214.492 79.642V80.0682H209.447V79.1989H213.469C213.469 78.8295 213.396 78.5 213.248 78.2102C213.103 77.9205 212.896 77.6918 212.626 77.5241C212.359 77.3565 212.043 77.2727 211.68 77.2727C211.279 77.2727 210.933 77.3722 210.64 77.571C210.35 77.767 210.127 78.0227 209.971 78.3381C209.815 78.6534 209.737 78.9915 209.737 79.3523V79.9318C209.737 80.4261 209.822 80.8452 209.992 81.1889C210.165 81.5298 210.406 81.7898 210.712 81.9688C211.019 82.1449 211.376 82.233 211.782 82.233C212.046 82.233 212.285 82.196 212.498 82.1222C212.714 82.0455 212.9 81.9318 213.056 81.7812C213.212 81.6278 213.333 81.4375 213.418 81.2102L214.39 81.483C214.288 81.8125 214.116 82.1023 213.874 82.3523C213.633 82.5994 213.335 82.7926 212.979 82.9318C212.624 83.0682 212.225 83.1364 211.782 83.1364ZM218.494 83.1364C217.948 83.1364 217.467 82.9986 217.049 82.723C216.631 82.4446 216.305 82.0526 216.069 81.5469C215.833 81.0384 215.715 80.4375 215.715 79.7443C215.715 79.0568 215.833 78.4602 216.069 77.9545C216.305 77.4489 216.633 77.0582 217.053 76.7827C217.474 76.5071 217.96 76.3693 218.511 76.3693C218.937 76.3693 219.273 76.4403 219.521 76.5824C219.771 76.7216 219.961 76.8807 220.092 77.0597C220.225 77.2358 220.329 77.3807 220.403 77.4943H220.488V74.2727H221.494V83H220.522V81.9943H220.403C220.329 82.1136 220.224 82.2642 220.087 82.446C219.951 82.625 219.756 82.7855 219.504 82.9276C219.251 83.0668 218.914 83.1364 218.494 83.1364ZM218.63 82.233C219.033 82.233 219.374 82.1278 219.653 81.9176C219.931 81.7045 220.143 81.4105 220.288 81.0355C220.433 80.6577 220.505 80.2216 220.505 79.7273C220.505 79.2386 220.434 78.8111 220.292 78.4446C220.15 78.0753 219.94 77.7884 219.661 77.5838C219.383 77.3764 219.039 77.2727 218.63 77.2727C218.204 77.2727 217.849 77.3821 217.565 77.6009C217.283 77.8168 217.072 78.1108 216.93 78.483C216.79 78.8523 216.721 79.267 216.721 79.7273C216.721 80.1932 216.792 80.6165 216.934 80.9972C217.079 81.375 217.292 81.6761 217.573 81.9006C217.857 82.1222 218.21 82.233 218.63 82.233ZM34.9205 98V91.4545H35.9261V98H34.9205ZM35.4318 90.3636C35.2358 90.3636 35.0668 90.2969 34.9247 90.1634C34.7855 90.0298 34.7159 89.8693 34.7159 89.6818C34.7159 89.4943 34.7855 89.3338 34.9247 89.2003C35.0668 89.0668 35.2358 89 35.4318 89C35.6278 89 35.7955 89.0668 35.9347 89.2003C36.0767 89.3338 36.1477 89.4943 36.1477 89.6818C36.1477 89.8693 36.0767 90.0298 35.9347 90.1634C35.7955 90.2969 35.6278 90.3636 35.4318 90.3636ZM38.7738 94.0625V98H37.7681V91.4545H38.7397V92.4773H38.8249C38.9783 92.1449 39.2113 91.8778 39.5238 91.6761C39.8363 91.4716 40.2397 91.3693 40.734 91.3693C41.1772 91.3693 41.565 91.4602 41.8974 91.642C42.2298 91.821 42.4883 92.0938 42.6729 92.4602C42.8576 92.8239 42.9499 93.2841 42.9499 93.8409V98H41.9442V93.9091C41.9442 93.3949 41.8107 92.9943 41.5437 92.7074C41.2766 92.4176 40.9102 92.2727 40.4442 92.2727C40.1232 92.2727 39.8363 92.3423 39.5835 92.4815C39.3335 92.6207 39.136 92.8239 38.9911 93.0909C38.8462 93.358 38.7738 93.6818 38.7738 94.0625ZM44.924 98V89.2727H45.9297V92.4943H46.0149C46.0888 92.3807 46.1911 92.2358 46.3217 92.0597C46.4553 91.8807 46.6456 91.7216 46.8928 91.5824C47.1428 91.4403 47.4808 91.3693 47.907 91.3693C48.4581 91.3693 48.9439 91.5071 49.3643 91.7827C49.7848 92.0582 50.1129 92.4489 50.3487 92.9545C50.5845 93.4602 50.7024 94.0568 50.7024 94.7443C50.7024 95.4375 50.5845 96.0384 50.3487 96.5469C50.1129 97.0526 49.7862 97.4446 49.3686 97.723C48.951 97.9986 48.4695 98.1364 47.924 98.1364C47.5036 98.1364 47.1669 98.0668 46.9141 97.9276C46.6612 97.7855 46.4666 97.625 46.3303 97.446C46.1939 97.2642 46.0888 97.1136 46.0149 96.9943H45.8956V98H44.924ZM45.9126 94.7273C45.9126 95.2216 45.9851 95.6577 46.13 96.0355C46.2749 96.4105 46.4865 96.7045 46.7649 96.9176C47.0433 97.1278 47.3842 97.233 47.7876 97.233C48.2081 97.233 48.5589 97.1222 48.8402 96.9006C49.1243 96.6761 49.3374 96.375 49.4794 95.9972C49.6243 95.6165 49.6967 95.1932 49.6967 94.7273C49.6967 94.267 49.6257 93.8523 49.4837 93.483C49.3445 93.1108 49.1328 92.8168 48.8487 92.6009C48.5675 92.3821 48.2138 92.2727 47.7876 92.2727C47.3786 92.2727 47.0348 92.3764 46.7564 92.5838C46.478 92.7884 46.2678 93.0753 46.1257 93.4446C45.9837 93.8111 45.9126 94.2386 45.9126 94.7273ZM54.8999 98.1364C54.3089 98.1364 53.7905 97.9957 53.3445 97.7145C52.9013 97.4332 52.5547 97.0398 52.3047 96.5341C52.0575 96.0284 51.9339 95.4375 51.9339 94.7614C51.9339 94.0795 52.0575 93.4844 52.3047 92.9759C52.5547 92.4673 52.9013 92.0724 53.3445 91.7912C53.7905 91.5099 54.3089 91.3693 54.8999 91.3693C55.4908 91.3693 56.0078 91.5099 56.451 91.7912C56.897 92.0724 57.2436 92.4673 57.4908 92.9759C57.7408 93.4844 57.8658 94.0795 57.8658 94.7614C57.8658 95.4375 57.7408 96.0284 57.4908 96.5341C57.2436 97.0398 56.897 97.4332 56.451 97.7145C56.0078 97.9957 55.4908 98.1364 54.8999 98.1364ZM54.8999 97.233C55.3487 97.233 55.718 97.1179 56.0078 96.8878C56.2976 96.6577 56.5121 96.3551 56.6513 95.9801C56.7905 95.6051 56.8601 95.1989 56.8601 94.7614C56.8601 94.3239 56.7905 93.9162 56.6513 93.5384C56.5121 93.1605 56.2976 92.8551 56.0078 92.6222C55.718 92.3892 55.3487 92.2727 54.8999 92.2727C54.451 92.2727 54.0817 92.3892 53.7919 92.6222C53.5021 92.8551 53.2876 93.1605 53.1484 93.5384C53.0092 93.9162 52.9396 94.3239 52.9396 94.7614C52.9396 95.1989 53.0092 95.6051 53.1484 95.9801C53.2876 96.3551 53.5021 96.6577 53.7919 96.8878C54.0817 97.1179 54.451 97.233 54.8999 97.233ZM59.8814 91.4545L61.4496 94.1307L63.0178 91.4545H64.1768L62.0632 94.7273L64.1768 98H63.0178L61.4496 95.4602L59.8814 98H58.7223L60.8018 94.7273L58.7223 91.4545H59.8814ZM65.7482 89.2727H67.0096L69.9755 96.517H70.0778L73.0437 89.2727H74.305V98H73.3164V91.3693H73.2312L70.5039 98H69.5494L66.8221 91.3693H66.7369V98H65.7482V89.2727ZM78.2138 98.1534C77.799 98.1534 77.4226 98.0753 77.0845 97.919C76.7464 97.7599 76.478 97.5312 76.2791 97.233C76.0803 96.9318 75.9808 96.5682 75.9808 96.142C75.9808 95.767 76.0547 95.4631 76.2024 95.2301C76.3501 94.9943 76.5476 94.8097 76.7947 94.6761C77.0419 94.5426 77.3146 94.4432 77.6129 94.3778C77.9141 94.3097 78.2166 94.2557 78.5206 94.2159C78.9183 94.1648 79.2408 94.1264 79.4879 94.1009C79.7379 94.0724 79.9197 94.0256 80.0334 93.9602C80.1499 93.8949 80.2081 93.7812 80.2081 93.6193V93.5852C80.2081 93.1648 80.093 92.8381 79.8629 92.6051C79.6357 92.3722 79.2905 92.2557 78.8274 92.2557C78.3473 92.2557 77.9709 92.3608 77.6982 92.571C77.4254 92.7812 77.2337 93.0057 77.1229 93.2443L76.1683 92.9034C76.3388 92.5057 76.5661 92.196 76.8501 91.9744C77.1371 91.75 77.4496 91.5937 77.7876 91.5057C78.1286 91.4148 78.4638 91.3693 78.7933 91.3693C79.0036 91.3693 79.245 91.3949 79.5178 91.446C79.7933 91.4943 80.0589 91.5952 80.3146 91.7486C80.5732 91.902 80.7876 92.1335 80.9581 92.4432C81.1286 92.7528 81.2138 93.1676 81.2138 93.6875V98H80.2081V97.1136H80.157C80.0888 97.2557 79.9751 97.4077 79.8161 97.5696C79.657 97.7315 79.4453 97.8693 79.1811 97.983C78.9169 98.0966 78.5945 98.1534 78.2138 98.1534ZM78.3672 97.25C78.7649 97.25 79.1001 97.1719 79.3729 97.0156C79.6484 96.8594 79.8558 96.6577 79.995 96.4105C80.1371 96.1634 80.2081 95.9034 80.2081 95.6307V94.7102C80.1655 94.7614 80.0717 94.8082 79.9268 94.8509C79.7848 94.8906 79.62 94.9261 79.4325 94.9574C79.2479 94.9858 79.0675 95.0114 78.8913 95.0341C78.718 95.054 78.5774 95.071 78.4695 95.0852C78.2081 95.1193 77.9638 95.1747 77.7365 95.2514C77.5121 95.3253 77.3303 95.4375 77.1911 95.5881C77.0547 95.7358 76.9865 95.9375 76.9865 96.1932C76.9865 96.5426 77.1158 96.8068 77.3743 96.9858C77.6357 97.1619 77.9666 97.25 78.3672 97.25ZM83.7994 91.4545L85.3675 94.1307L86.9357 91.4545H88.0948L85.9812 94.7273L88.0948 98H86.9357L85.3675 95.4602L83.7994 98H82.6403L84.7198 94.7273L82.6403 91.4545H83.7994ZM89.5298 98V91.4545H90.5355V98H89.5298ZM90.0412 90.3636C89.8452 90.3636 89.6761 90.2969 89.5341 90.1634C89.3949 90.0298 89.3253 89.8693 89.3253 89.6818C89.3253 89.4943 89.3949 89.3338 89.5341 89.2003C89.6761 89.0668 89.8452 89 90.0412 89C90.2372 89 90.4048 89.0668 90.544 89.2003C90.6861 89.3338 90.7571 89.4943 90.7571 89.6818C90.7571 89.8693 90.6861 90.0298 90.544 90.1634C90.4048 90.2969 90.2372 90.3636 90.0412 90.3636ZM92.3775 98V91.4545H93.3491V92.4773H93.4343C93.5707 92.1278 93.7908 91.8565 94.0948 91.6634C94.3988 91.4673 94.7638 91.3693 95.19 91.3693C95.6218 91.3693 95.9812 91.4673 96.2681 91.6634C96.5579 91.8565 96.7837 92.1278 96.9457 92.4773H97.0138C97.1815 92.1392 97.4329 91.8707 97.7681 91.6719C98.1033 91.4702 98.5053 91.3693 98.9741 91.3693C99.5593 91.3693 100.038 91.5526 100.41 91.919C100.782 92.2827 100.968 92.8494 100.968 93.6193V98H99.9627V93.6193C99.9627 93.1364 99.8306 92.7912 99.5664 92.5838C99.3022 92.3764 98.9911 92.2727 98.6332 92.2727C98.1729 92.2727 97.8164 92.4119 97.5636 92.6903C97.3107 92.9659 97.1843 93.3153 97.1843 93.7386V98H96.1616V93.517C96.1616 93.1449 96.0408 92.8452 95.7994 92.6179C95.5579 92.3878 95.2468 92.2727 94.8661 92.2727C94.6048 92.2727 94.3604 92.3423 94.1332 92.4815C93.9087 92.6207 93.7269 92.8139 93.5877 93.0611C93.4513 93.3054 93.3832 93.5881 93.3832 93.9091V98H92.3775ZM102.807 98V91.4545H103.813V98H102.807ZM103.319 90.3636C103.123 90.3636 102.953 90.2969 102.811 90.1634C102.672 90.0298 102.603 89.8693 102.603 89.6818C102.603 89.4943 102.672 89.3338 102.811 89.2003C102.953 89.0668 103.123 89 103.319 89C103.515 89 103.682 89.0668 103.821 89.2003C103.963 89.3338 104.034 89.4943 104.034 89.6818C104.034 89.8693 103.963 90.0298 103.821 90.1634C103.682 90.2969 103.515 90.3636 103.319 90.3636ZM105.467 98V97.233L109.183 92.4602V92.392H105.587V91.4545H110.479V92.2557L106.865 96.9943V97.0625H110.598V98H105.467ZM114.704 98.1364C114.073 98.1364 113.529 97.9972 113.072 97.7188C112.617 97.4375 112.266 97.0455 112.019 96.5426C111.775 96.0369 111.653 95.4489 111.653 94.7784C111.653 94.108 111.775 93.517 112.019 93.0057C112.266 92.4915 112.61 92.0909 113.05 91.804C113.494 91.5142 114.011 91.3693 114.602 91.3693C114.942 91.3693 115.279 91.4261 115.612 91.5398C115.944 91.6534 116.246 91.8381 116.519 92.0938C116.792 92.3466 117.009 92.6818 117.171 93.0994C117.333 93.517 117.414 94.0312 117.414 94.642V95.0682H112.369V94.1989H116.391C116.391 93.8295 116.317 93.5 116.17 93.2102C116.025 92.9205 115.817 92.6918 115.548 92.5241C115.281 92.3565 114.965 92.2727 114.602 92.2727C114.201 92.2727 113.854 92.3722 113.562 92.571C113.272 92.767 113.049 93.0227 112.893 93.3381C112.737 93.6534 112.658 93.9915 112.658 94.3523V94.9318C112.658 95.4261 112.744 95.8452 112.914 96.1889C113.087 96.5298 113.327 96.7898 113.634 96.9688C113.941 97.1449 114.298 97.233 114.704 97.233C114.968 97.233 115.207 97.196 115.42 97.1222C115.636 97.0455 115.822 96.9318 115.978 96.7812C116.134 96.6278 116.255 96.4375 116.34 96.2102L117.312 96.483C117.21 96.8125 117.038 97.1023 116.796 97.3523C116.555 97.5994 116.256 97.7926 115.901 97.9318C115.546 98.0682 115.147 98.1364 114.704 98.1364ZM122.319 100.455V91.4545H123.29V92.4943H123.41C123.484 92.3807 123.586 92.2358 123.717 92.0597C123.85 91.8807 124.04 91.7216 124.288 91.5824C124.538 91.4403 124.876 91.3693 125.302 91.3693C125.853 91.3693 126.339 91.5071 126.759 91.7827C127.18 92.0582 127.508 92.4489 127.744 92.9545C127.979 93.4602 128.097 94.0568 128.097 94.7443C128.097 95.4375 127.979 96.0384 127.744 96.5469C127.508 97.0526 127.181 97.4446 126.763 97.723C126.346 97.9986 125.864 98.1364 125.319 98.1364C124.898 98.1364 124.562 98.0668 124.309 97.9276C124.056 97.7855 123.862 97.625 123.725 97.446C123.589 97.2642 123.484 97.1136 123.41 96.9943H123.325V100.455H122.319ZM123.308 94.7273C123.308 95.2216 123.38 95.6577 123.525 96.0355C123.67 96.4105 123.881 96.7045 124.16 96.9176C124.438 97.1278 124.779 97.233 125.183 97.233C125.603 97.233 125.954 97.1222 126.235 96.9006C126.519 96.6761 126.732 96.375 126.874 95.9972C127.019 95.6165 127.092 95.1932 127.092 94.7273C127.092 94.267 127.021 93.8523 126.879 93.483C126.739 93.1108 126.528 92.8168 126.244 92.6009C125.962 92.3821 125.609 92.2727 125.183 92.2727C124.773 92.2727 124.43 92.3764 124.151 92.5838C123.873 92.7884 123.663 93.0753 123.521 93.4446C123.379 93.8111 123.308 94.2386 123.308 94.7273ZM129.631 98V91.4545H130.603V92.4432H130.671C130.79 92.1193 131.006 91.8565 131.319 91.6548C131.631 91.4531 131.984 91.3523 132.376 91.3523C132.45 91.3523 132.542 91.3537 132.653 91.3565C132.763 91.3594 132.847 91.3636 132.904 91.3693V92.392C132.87 92.3835 132.792 92.3707 132.67 92.3537C132.55 92.3338 132.424 92.3239 132.29 92.3239C131.972 92.3239 131.688 92.3906 131.438 92.5241C131.191 92.6548 130.995 92.8366 130.85 93.0696C130.708 93.2997 130.637 93.5625 130.637 93.858V98H129.631ZM136.556 98.1364C135.965 98.1364 135.447 97.9957 135.001 97.7145C134.558 97.4332 134.211 97.0398 133.961 96.5341C133.714 96.0284 133.59 95.4375 133.59 94.7614C133.59 94.0795 133.714 93.4844 133.961 92.9759C134.211 92.4673 134.558 92.0724 135.001 91.7912C135.447 91.5099 135.965 91.3693 136.556 91.3693C137.147 91.3693 137.664 91.5099 138.107 91.7912C138.553 92.0724 138.9 92.4673 139.147 92.9759C139.397 93.4844 139.522 94.0795 139.522 94.7614C139.522 95.4375 139.397 96.0284 139.147 96.5341C138.9 97.0398 138.553 97.4332 138.107 97.7145C137.664 97.9957 137.147 98.1364 136.556 98.1364ZM136.556 97.233C137.005 97.233 137.374 97.1179 137.664 96.8878C137.954 96.6577 138.168 96.3551 138.308 95.9801C138.447 95.6051 138.516 95.1989 138.516 94.7614C138.516 94.3239 138.447 93.9162 138.308 93.5384C138.168 93.1605 137.954 92.8551 137.664 92.6222C137.374 92.3892 137.005 92.2727 136.556 92.2727C136.107 92.2727 135.738 92.3892 135.448 92.6222C135.158 92.8551 134.944 93.1605 134.805 93.5384C134.665 93.9162 134.596 94.3239 134.596 94.7614C134.596 95.1989 134.665 95.6051 134.805 95.9801C134.944 96.3551 135.158 96.6577 135.448 96.8878C135.738 97.1179 136.107 97.233 136.556 97.233ZM143.529 98.1364C142.983 98.1364 142.502 97.9986 142.084 97.723C141.667 97.4446 141.34 97.0526 141.104 96.5469C140.868 96.0384 140.75 95.4375 140.75 94.7443C140.75 94.0568 140.868 93.4602 141.104 92.9545C141.34 92.4489 141.668 92.0582 142.088 91.7827C142.509 91.5071 142.995 91.3693 143.546 91.3693C143.972 91.3693 144.309 91.4403 144.556 91.5824C144.806 91.7216 144.996 91.8807 145.127 92.0597C145.26 92.2358 145.364 92.3807 145.438 92.4943H145.523V89.2727H146.529V98H145.557V96.9943H145.438C145.364 97.1136 145.259 97.2642 145.123 97.446C144.986 97.625 144.792 97.7855 144.539 97.9276C144.286 98.0668 143.949 98.1364 143.529 98.1364ZM143.665 97.233C144.069 97.233 144.409 97.1278 144.688 96.9176C144.966 96.7045 145.178 96.4105 145.323 96.0355C145.468 95.6577 145.54 95.2216 145.54 94.7273C145.54 94.2386 145.469 93.8111 145.327 93.4446C145.185 93.0753 144.975 92.7884 144.696 92.5838C144.418 92.3764 144.074 92.2727 143.665 92.2727C143.239 92.2727 142.884 92.3821 142.6 92.6009C142.319 92.8168 142.107 93.1108 141.965 93.483C141.826 93.8523 141.756 94.267 141.756 94.7273C141.756 95.1932 141.827 95.6165 141.969 95.9972C142.114 96.375 142.327 96.6761 142.608 96.9006C142.892 97.1222 143.245 97.233 143.665 97.233ZM152.635 95.3239V91.4545H153.641V98H152.635V96.892H152.567C152.414 97.2244 152.175 97.5071 151.851 97.7401C151.527 97.9702 151.118 98.0852 150.624 98.0852C150.215 98.0852 149.851 97.9957 149.533 97.8168C149.215 97.6349 148.965 97.3622 148.783 96.9986C148.601 96.6321 148.51 96.1705 148.51 95.6136V91.4545H149.516V95.5455C149.516 96.0227 149.65 96.4034 149.917 96.6875C150.186 96.9716 150.53 97.1136 150.948 97.1136C151.198 97.1136 151.452 97.0497 151.711 96.9219C151.972 96.794 152.191 96.598 152.367 96.3338C152.546 96.0696 152.635 95.733 152.635 95.3239ZM158.142 98.1364C157.528 98.1364 157 97.9915 156.557 97.7017C156.114 97.4119 155.773 97.0128 155.534 96.5043C155.295 95.9957 155.176 95.4148 155.176 94.7614C155.176 94.0966 155.298 93.5099 155.543 93.0014C155.79 92.4901 156.134 92.0909 156.574 91.804C157.017 91.5142 157.534 91.3693 158.125 91.3693C158.585 91.3693 159 91.4545 159.369 91.625C159.739 91.7955 160.041 92.0341 160.277 92.3409C160.513 92.6477 160.659 93.0057 160.716 93.4148H159.71C159.634 93.1165 159.463 92.8523 159.199 92.6222C158.938 92.3892 158.585 92.2727 158.142 92.2727C157.75 92.2727 157.406 92.375 157.111 92.5795C156.818 92.7812 156.589 93.0668 156.425 93.4361C156.263 93.8026 156.182 94.233 156.182 94.7273C156.182 95.233 156.261 95.6733 156.42 96.0483C156.582 96.4233 156.81 96.7145 157.102 96.9219C157.398 97.1293 157.744 97.233 158.142 97.233C158.403 97.233 158.641 97.1875 158.854 97.0966C159.067 97.0057 159.247 96.875 159.395 96.7045C159.543 96.5341 159.648 96.3295 159.71 96.0909H160.716C160.659 96.4773 160.518 96.8253 160.294 97.1349C160.072 97.4418 159.778 97.6861 159.412 97.8679C159.048 98.0469 158.625 98.1364 158.142 98.1364ZM165.033 91.4545V92.3068H161.641V91.4545H165.033ZM162.629 89.8864H163.635V96.125C163.635 96.4091 163.676 96.6222 163.759 96.7642C163.844 96.9034 163.952 96.9972 164.082 97.0455C164.216 97.0909 164.357 97.1136 164.504 97.1136C164.615 97.1136 164.706 97.108 164.777 97.0966C164.848 97.0824 164.905 97.071 164.947 97.0625L165.152 97.9659C165.084 97.9915 164.989 98.017 164.866 98.0426C164.744 98.071 164.589 98.0852 164.402 98.0852C164.118 98.0852 163.839 98.0241 163.567 97.902C163.297 97.7798 163.072 97.5938 162.893 97.3438C162.717 97.0938 162.629 96.7784 162.629 96.3977V89.8864ZM166.545 98V91.4545H167.551V98H166.545ZM167.057 90.3636C166.861 90.3636 166.692 90.2969 166.55 90.1634C166.411 90.0298 166.341 89.8693 166.341 89.6818C166.341 89.4943 166.411 89.3338 166.55 89.2003C166.692 89.0668 166.861 89 167.057 89C167.253 89 167.42 89.0668 167.56 89.2003C167.702 89.3338 167.773 89.4943 167.773 89.6818C167.773 89.8693 167.702 90.0298 167.56 90.1634C167.42 90.2969 167.253 90.3636 167.057 90.3636ZM174.745 91.4545L172.325 98H171.302L168.882 91.4545H169.973L171.779 96.6705H171.848L173.654 91.4545H174.745ZM176.073 98V91.4545H177.078V98H176.073ZM176.584 90.3636C176.388 90.3636 176.219 90.2969 176.077 90.1634C175.938 90.0298 175.868 89.8693 175.868 89.6818C175.868 89.4943 175.938 89.3338 176.077 89.2003C176.219 89.0668 176.388 89 176.584 89C176.78 89 176.948 89.0668 177.087 89.2003C177.229 89.3338 177.3 89.4943 177.3 89.6818C177.3 89.8693 177.229 90.0298 177.087 90.1634C176.948 90.2969 176.78 90.3636 176.584 90.3636ZM181.767 91.4545V92.3068H178.375V91.4545H181.767ZM179.364 89.8864H180.369V96.125C180.369 96.4091 180.411 96.6222 180.493 96.7642C180.578 96.9034 180.686 96.9972 180.817 97.0455C180.95 97.0909 181.091 97.1136 181.239 97.1136C181.349 97.1136 181.44 97.108 181.511 97.0966C181.582 97.0824 181.639 97.071 181.682 97.0625L181.886 97.9659C181.818 97.9915 181.723 98.017 181.601 98.0426C181.479 98.071 181.324 98.0852 181.136 98.0852C180.852 98.0852 180.574 98.0241 180.301 97.902C180.031 97.7798 179.807 97.5938 179.628 97.3438C179.452 97.0938 179.364 96.7784 179.364 96.3977V89.8864ZM183.928 100.455C183.757 100.455 183.605 100.44 183.472 100.412C183.338 100.386 183.246 100.361 183.195 100.335L183.45 99.4489C183.695 99.5114 183.911 99.5341 184.098 99.517C184.286 99.5 184.452 99.4162 184.597 99.2656C184.744 99.1179 184.879 98.8778 185.001 98.5455L185.189 98.0341L182.768 91.4545H183.859L185.666 96.6705H185.734L187.541 91.4545H188.632L185.854 98.9545C185.729 99.2926 185.574 99.5724 185.389 99.794C185.205 100.018 184.99 100.185 184.746 100.293C184.504 100.401 184.232 100.455 183.928 100.455ZM194.817 98L192.823 91.4545H193.88L195.295 96.4659H195.363L196.761 91.4545H197.835L199.215 96.4489H199.283L200.698 91.4545H201.755L199.761 98H198.772L197.34 92.9716H197.238L195.806 98H194.817ZM203.085 98V91.4545H204.09V98H203.085ZM203.596 90.3636C203.4 90.3636 203.231 90.2969 203.089 90.1634C202.95 90.0298 202.88 89.8693 202.88 89.6818C202.88 89.4943 202.95 89.3338 203.089 89.2003C203.231 89.0668 203.4 89 203.596 89C203.792 89 203.96 89.0668 204.099 89.2003C204.241 89.3338 204.312 89.4943 204.312 89.6818C204.312 89.8693 204.241 90.0298 204.099 90.1634C203.96 90.2969 203.792 90.3636 203.596 90.3636ZM208.779 91.4545V92.3068H205.387V91.4545H208.779ZM206.375 89.8864H207.381V96.125C207.381 96.4091 207.422 96.6222 207.505 96.7642C207.59 96.9034 207.698 96.9972 207.828 97.0455C207.962 97.0909 208.103 97.1136 208.25 97.1136C208.361 97.1136 208.452 97.108 208.523 97.0966C208.594 97.0824 208.651 97.071 208.694 97.0625L208.898 97.9659C208.83 97.9915 208.735 98.017 208.613 98.0426C208.49 98.071 208.336 98.0852 208.148 98.0852C207.864 98.0852 207.586 98.0241 207.313 97.902C207.043 97.7798 206.819 97.5938 206.64 97.3438C206.463 97.0938 206.375 96.7784 206.375 96.3977V89.8864ZM211.438 94.0625V98H210.432V89.2727H211.438V92.4773H211.523C211.676 92.1392 211.907 91.8707 212.213 91.6719C212.523 91.4702 212.935 91.3693 213.449 91.3693C213.895 91.3693 214.286 91.4588 214.621 91.6378C214.956 91.8139 215.216 92.0852 215.401 92.4517C215.588 92.8153 215.682 93.2784 215.682 93.8409V98H214.676V93.9091C214.676 93.3892 214.542 92.9872 214.272 92.7031C214.005 92.4162 213.634 92.2727 213.159 92.2727C212.83 92.2727 212.534 92.3423 212.273 92.4815C212.015 92.6207 211.81 92.8239 211.659 93.0909C211.512 93.358 211.438 93.6818 211.438 94.0625ZM222.823 98.1534C222.408 98.1534 222.032 98.0753 221.694 97.919C221.356 97.7599 221.087 97.5312 220.888 97.233C220.69 96.9318 220.59 96.5682 220.59 96.142C220.59 95.767 220.664 95.4631 220.812 95.2301C220.96 94.9943 221.157 94.8097 221.404 94.6761C221.651 94.5426 221.924 94.4432 222.222 94.3778C222.523 94.3097 222.826 94.2557 223.13 94.2159C223.528 94.1648 223.85 94.1264 224.097 94.1009C224.347 94.0724 224.529 94.0256 224.643 93.9602C224.759 93.8949 224.817 93.7812 224.817 93.6193V93.5852C224.817 93.1648 224.702 92.8381 224.472 92.6051C224.245 92.3722 223.9 92.2557 223.437 92.2557C222.957 92.2557 222.58 92.3608 222.308 92.571C222.035 92.7812 221.843 93.0057 221.732 93.2443L220.778 92.9034C220.948 92.5057 221.175 92.196 221.46 91.9744C221.746 91.75 222.059 91.5937 222.397 91.5057C222.738 91.4148 223.073 91.3693 223.403 91.3693C223.613 91.3693 223.854 91.3949 224.127 91.446C224.403 91.4943 224.668 91.5952 224.924 91.7486C225.183 91.902 225.397 92.1335 225.567 92.4432C225.738 92.7528 225.823 93.1676 225.823 93.6875V98H224.817V97.1136H224.766C224.698 97.2557 224.585 97.4077 224.425 97.5696C224.266 97.7315 224.055 97.8693 223.79 97.983C223.526 98.0966 223.204 98.1534 222.823 98.1534ZM222.977 97.25C223.374 97.25 223.71 97.1719 223.982 97.0156C224.258 96.8594 224.465 96.6577 224.604 96.4105C224.746 96.1634 224.817 95.9034 224.817 95.6307V94.7102C224.775 94.7614 224.681 94.8082 224.536 94.8509C224.394 94.8906 224.229 94.9261 224.042 94.9574C223.857 94.9858 223.677 95.0114 223.501 95.0341C223.327 95.054 223.187 95.071 223.079 95.0852C222.817 95.1193 222.573 95.1747 222.346 95.2514C222.121 95.3253 221.94 95.4375 221.8 95.5881C221.664 95.7358 221.596 95.9375 221.596 96.1932C221.596 96.5426 221.725 96.8068 221.984 96.9858C222.245 97.1619 222.576 97.25 222.977 97.25ZM228.664 94.0625V98H227.659V91.4545H228.63V92.4773H228.716C228.869 92.1449 229.102 91.8778 229.414 91.6761C229.727 91.4716 230.13 91.3693 230.625 91.3693C231.068 91.3693 231.456 91.4602 231.788 91.642C232.12 91.821 232.379 92.0938 232.564 92.4602C232.748 92.8239 232.841 93.2841 232.841 93.8409V98H231.835V93.9091C231.835 93.3949 231.701 92.9943 231.434 92.7074C231.167 92.4176 230.801 92.2727 230.335 92.2727C230.014 92.2727 229.727 92.3423 229.474 92.4815C229.224 92.6207 229.027 92.8239 228.882 93.0909C228.737 93.358 228.664 93.6818 228.664 94.0625ZM35.4148 113H34.3068L37.5114 104.273H38.6023L41.8068 113H40.6989L38.0909 105.653H38.0227L35.4148 113ZM35.8239 109.591H40.2898V110.528H35.8239V109.591ZM44.223 104.273V113H43.1662V104.273H44.223ZM49.9556 108.79V109.727H46.1374V108.79H49.9556ZM54.4695 113.136C53.8388 113.136 53.2947 112.997 52.8374 112.719C52.3828 112.438 52.032 112.045 51.7848 111.543C51.5405 111.037 51.4183 110.449 51.4183 109.778C51.4183 109.108 51.5405 108.517 51.7848 108.006C52.032 107.491 52.3757 107.091 52.8161 106.804C53.2592 106.514 53.7763 106.369 54.3672 106.369C54.7081 106.369 55.0447 106.426 55.3771 106.54C55.7095 106.653 56.0121 106.838 56.2848 107.094C56.5575 107.347 56.7749 107.682 56.9368 108.099C57.0987 108.517 57.1797 109.031 57.1797 109.642V110.068H52.1342V109.199H56.157C56.157 108.83 56.0831 108.5 55.9354 108.21C55.7905 107.92 55.5831 107.692 55.3132 107.524C55.0462 107.357 54.7308 107.273 54.3672 107.273C53.9666 107.273 53.62 107.372 53.3274 107.571C53.0376 107.767 52.8146 108.023 52.6584 108.338C52.5021 108.653 52.424 108.991 52.424 109.352V109.932C52.424 110.426 52.5092 110.845 52.6797 111.189C52.853 111.53 53.093 111.79 53.3999 111.969C53.7067 112.145 54.0632 112.233 54.4695 112.233C54.7337 112.233 54.9723 112.196 55.1854 112.122C55.4013 112.045 55.5874 111.932 55.7436 111.781C55.8999 111.628 56.0206 111.437 56.1058 111.21L57.0774 111.483C56.9751 111.812 56.8033 112.102 56.5618 112.352C56.3203 112.599 56.022 112.793 55.6669 112.932C55.3118 113.068 54.9126 113.136 54.4695 113.136ZM59.7152 109.062V113H58.7095V106.455H59.6811V107.477H59.7663C59.9197 107.145 60.1527 106.878 60.4652 106.676C60.7777 106.472 61.1811 106.369 61.6754 106.369C62.1186 106.369 62.5064 106.46 62.8388 106.642C63.1712 106.821 63.4297 107.094 63.6143 107.46C63.799 107.824 63.8913 108.284 63.8913 108.841V113H62.8857V108.909C62.8857 108.395 62.7521 107.994 62.4851 107.707C62.218 107.418 61.8516 107.273 61.3857 107.273C61.0646 107.273 60.7777 107.342 60.5249 107.482C60.2749 107.621 60.0774 107.824 59.9325 108.091C59.7876 108.358 59.7152 108.682 59.7152 109.062ZM66.7347 109.062V113H65.729V104.273H66.7347V107.477H66.82C66.9734 107.139 67.2035 106.871 67.5103 106.672C67.82 106.47 68.2319 106.369 68.7461 106.369C69.1921 106.369 69.5827 106.459 69.918 106.638C70.2532 106.814 70.5131 107.085 70.6978 107.452C70.8853 107.815 70.979 108.278 70.979 108.841V113H69.9734V108.909C69.9734 108.389 69.8384 107.987 69.5685 107.703C69.3015 107.416 68.9308 107.273 68.4563 107.273C68.1268 107.273 67.8313 107.342 67.57 107.482C67.3114 107.621 67.1069 107.824 66.9563 108.091C66.8086 108.358 66.7347 108.682 66.7347 109.062ZM74.745 113.153C74.3303 113.153 73.9538 113.075 73.6158 112.919C73.2777 112.76 73.0092 112.531 72.8104 112.233C72.6115 111.932 72.5121 111.568 72.5121 111.142C72.5121 110.767 72.5859 110.463 72.7337 110.23C72.8814 109.994 73.0788 109.81 73.326 109.676C73.5732 109.543 73.8459 109.443 74.1442 109.378C74.4453 109.31 74.7479 109.256 75.0518 109.216C75.4496 109.165 75.772 109.126 76.0192 109.101C76.2692 109.072 76.451 109.026 76.5646 108.96C76.6811 108.895 76.7393 108.781 76.7393 108.619V108.585C76.7393 108.165 76.6243 107.838 76.3942 107.605C76.1669 107.372 75.8217 107.256 75.3587 107.256C74.8786 107.256 74.5021 107.361 74.2294 107.571C73.9567 107.781 73.7649 108.006 73.6541 108.244L72.6996 107.903C72.87 107.506 73.0973 107.196 73.3814 106.974C73.6683 106.75 73.9808 106.594 74.3189 106.506C74.6598 106.415 74.995 106.369 75.3246 106.369C75.5348 106.369 75.7763 106.395 76.049 106.446C76.3246 106.494 76.5902 106.595 76.8459 106.749C77.1044 106.902 77.3189 107.134 77.4893 107.443C77.6598 107.753 77.745 108.168 77.745 108.688V113H76.7393V112.114H76.6882C76.62 112.256 76.5064 112.408 76.3473 112.57C76.1882 112.732 75.9766 112.869 75.7124 112.983C75.4482 113.097 75.1257 113.153 74.745 113.153ZM74.8984 112.25C75.2962 112.25 75.6314 112.172 75.9041 112.016C76.1797 111.859 76.3871 111.658 76.5263 111.411C76.6683 111.163 76.7393 110.903 76.7393 110.631V109.71C76.6967 109.761 76.603 109.808 76.4581 109.851C76.3161 109.891 76.1513 109.926 75.9638 109.957C75.7791 109.986 75.5987 110.011 75.4226 110.034C75.2493 110.054 75.1087 110.071 75.0007 110.085C74.7393 110.119 74.495 110.175 74.2678 110.251C74.0433 110.325 73.8615 110.437 73.7223 110.588C73.5859 110.736 73.5178 110.937 73.5178 111.193C73.5178 111.543 73.647 111.807 73.9055 111.986C74.1669 112.162 74.4979 112.25 74.8984 112.25ZM80.5863 109.062V113H79.5806V106.455H80.5522V107.477H80.6374C80.7908 107.145 81.0238 106.878 81.3363 106.676C81.6488 106.472 82.0522 106.369 82.5465 106.369C82.9897 106.369 83.3775 106.46 83.7099 106.642C84.0423 106.821 84.3008 107.094 84.4854 107.46C84.6701 107.824 84.7624 108.284 84.7624 108.841V113H83.7567V108.909C83.7567 108.395 83.6232 107.994 83.3562 107.707C83.0891 107.418 82.7227 107.273 82.2567 107.273C81.9357 107.273 81.6488 107.342 81.396 107.482C81.146 107.621 80.9485 107.824 80.8036 108.091C80.6587 108.358 80.5863 108.682 80.5863 109.062ZM89.2592 113.136C88.6456 113.136 88.1172 112.991 87.674 112.702C87.2308 112.412 86.8899 112.013 86.6513 111.504C86.4126 110.996 86.2933 110.415 86.2933 109.761C86.2933 109.097 86.4155 108.51 86.6598 108.001C86.907 107.49 87.2507 107.091 87.6911 106.804C88.1342 106.514 88.6513 106.369 89.2422 106.369C89.7024 106.369 90.1172 106.455 90.4865 106.625C90.8558 106.795 91.1584 107.034 91.3942 107.341C91.63 107.648 91.7763 108.006 91.8331 108.415H90.8274C90.7507 108.116 90.5803 107.852 90.3161 107.622C90.0547 107.389 89.7024 107.273 89.2592 107.273C88.8672 107.273 88.5234 107.375 88.228 107.58C87.9354 107.781 87.7067 108.067 87.5419 108.436C87.38 108.803 87.299 109.233 87.299 109.727C87.299 110.233 87.3786 110.673 87.5376 111.048C87.6996 111.423 87.9268 111.714 88.2195 111.922C88.5149 112.129 88.8615 112.233 89.2592 112.233C89.5206 112.233 89.7578 112.188 89.9709 112.097C90.1839 112.006 90.3643 111.875 90.5121 111.705C90.6598 111.534 90.7649 111.33 90.8274 111.091H91.8331C91.7763 111.477 91.6357 111.825 91.4112 112.135C91.1896 112.442 90.8956 112.686 90.5291 112.868C90.1655 113.047 89.7422 113.136 89.2592 113.136ZM96.0476 113.136C95.4169 113.136 94.8729 112.997 94.4155 112.719C93.9609 112.438 93.6101 112.045 93.3629 111.543C93.1186 111.037 92.9964 110.449 92.9964 109.778C92.9964 109.108 93.1186 108.517 93.3629 108.006C93.6101 107.491 93.9538 107.091 94.3942 106.804C94.8374 106.514 95.3544 106.369 95.9453 106.369C96.2862 106.369 96.6229 106.426 96.9553 106.54C97.2876 106.653 97.5902 106.838 97.8629 107.094C98.1357 107.347 98.353 107.682 98.5149 108.099C98.6768 108.517 98.7578 109.031 98.7578 109.642V110.068H93.7124V109.199H97.7351C97.7351 108.83 97.6612 108.5 97.5135 108.21C97.3686 107.92 97.1612 107.692 96.8913 107.524C96.6243 107.357 96.3089 107.273 95.9453 107.273C95.5447 107.273 95.1982 107.372 94.9055 107.571C94.6158 107.767 94.3928 108.023 94.2365 108.338C94.0803 108.653 94.0021 108.991 94.0021 109.352V109.932C94.0021 110.426 94.0874 110.845 94.2578 111.189C94.4311 111.53 94.6712 111.79 94.978 111.969C95.2848 112.145 95.6413 112.233 96.0476 112.233C96.3118 112.233 96.5504 112.196 96.7635 112.122C96.9794 112.045 97.1655 111.932 97.3217 111.781C97.478 111.628 97.5987 111.437 97.6839 111.21L98.6555 111.483C98.5533 111.812 98.3814 112.102 98.1399 112.352C97.8984 112.599 97.6001 112.793 97.245 112.932C96.8899 113.068 96.4908 113.136 96.0476 113.136ZM102.759 113.136C102.214 113.136 101.732 112.999 101.315 112.723C100.897 112.445 100.57 112.053 100.335 111.547C100.099 111.038 99.9808 110.438 99.9808 109.744C99.9808 109.057 100.099 108.46 100.335 107.955C100.57 107.449 100.898 107.058 101.319 106.783C101.739 106.507 102.225 106.369 102.776 106.369C103.202 106.369 103.539 106.44 103.786 106.582C104.036 106.722 104.227 106.881 104.357 107.06C104.491 107.236 104.594 107.381 104.668 107.494H104.754V104.273H105.759V113H104.788V111.994H104.668C104.594 112.114 104.489 112.264 104.353 112.446C104.217 112.625 104.022 112.786 103.769 112.928C103.516 113.067 103.18 113.136 102.759 113.136ZM102.896 112.233C103.299 112.233 103.64 112.128 103.918 111.918C104.197 111.705 104.408 111.411 104.553 111.036C104.698 110.658 104.771 110.222 104.771 109.727C104.771 109.239 104.7 108.811 104.558 108.445C104.415 108.075 104.205 107.788 103.927 107.584C103.648 107.376 103.305 107.273 102.896 107.273C102.469 107.273 102.114 107.382 101.83 107.601C101.549 107.817 101.337 108.111 101.195 108.483C101.056 108.852 100.987 109.267 100.987 109.727C100.987 110.193 101.058 110.616 101.2 110.997C101.344 111.375 101.558 111.676 101.839 111.901C102.123 112.122 102.475 112.233 102.896 112.233Z" fill="#17100E"/>
</g>
<defs>
<filter id="filter0_f_2574_5481" x="0" y="0" width="265" height="141" filterUnits="userSpaceOnUse" color-interpolation-filters="sRGB">
<feFlood flood-opacity="0" result="BackgroundImageFix"/>
<feBlend mode="normal" in="SourceGraphic" in2="BackgroundImageFix" result="shape"/>
<feGaussianBlur stdDeviation="5" result="effect1_foregroundBlur_2574_5481"/>
</filter>
</defs>
</svg>
