<svg width="15" height="15" viewBox="0 0 15 15" fill="none" xmlns="http://www.w3.org/2000/svg">
<g clip-path="url(#clip0_2757_1356)">
<path d="M7.5 0.12323C3.35812 0.12323 0 3.48089 0 7.62323C0 11.7656 3.35766 15.1232 7.5 15.1232C11.6423 15.1232 15 11.7656 15 7.62323C15 3.48089 11.6423 0.12323 7.5 0.12323ZM7.5 14.2007C3.88125 14.2007 0.9375 11.242 0.9375 7.62323C0.9375 4.00448 3.88125 1.06073 7.5 1.06073C11.1187 1.06073 14.0625 4.00448 14.0625 7.62323C14.0625 11.242 11.1187 14.2007 7.5 14.2007ZM10.4934 4.87917L6.09281 9.30698L4.11094 7.32557C3.92813 7.14276 3.63094 7.14276 3.44766 7.32557C3.26437 7.50839 3.26437 7.8051 3.44766 7.98839L5.76797 10.3087C5.95078 10.4915 6.24797 10.4915 6.43125 10.3087C6.45234 10.2876 6.47062 10.2646 6.48703 10.2407L11.1567 5.54198C11.3395 5.35917 11.3395 5.06198 11.1567 4.8787C10.9739 4.69542 10.6767 4.69635 10.4934 4.87917Z" fill="black"/>
</g>
<defs>
<clipPath id="clip0_2757_1356">
<rect width="15" height="15" fill="white"/>
</clipPath>
</defs>
</svg>
