<svg width="25" height="26" viewBox="0 0 25 26" fill="none" xmlns="http://www.w3.org/2000/svg">
<path d="M12.7174 2.30121C12.6773 2.39477 12.6505 3.02299 12.6773 3.67794C12.7174 4.76062 12.7441 4.86755 12.9847 4.86755C13.2387 4.86755 13.252 4.77398 13.252 3.53091C13.252 2.36804 13.2253 2.19428 13.0114 2.15418C12.8911 2.12745 12.7575 2.19428 12.7174 2.30121Z" fill="#89A884"/>
<path d="M6.66191 4.42646C6.38122 4.70715 6.47479 4.86755 7.35696 5.70963C8.21241 6.52497 8.64013 6.672 8.64013 6.15072C8.64013 5.95022 7.07627 4.26606 6.88914 4.26606C6.84904 4.26606 6.75548 4.33289 6.66191 4.42646Z" fill="#89A884"/>
<path d="M18.1567 5.10814C17.3146 5.95022 17.1542 6.31111 17.5419 6.45814C17.6889 6.5116 18.0364 6.27101 18.6513 5.66952C19.3864 4.94774 19.5067 4.77398 19.3864 4.57348C19.3062 4.45319 19.1859 4.33289 19.1191 4.30616C19.0523 4.27942 18.6245 4.64031 18.1567 5.10814Z" fill="#89A884"/>
<path d="M11.7543 6.20418C10.1771 6.63191 8.98746 7.60765 8.29241 9.01112C7.94488 9.74626 7.90482 10.2475 7.90479 11.2166L8.07185 12.6534L8.58647 14.0903C9.45528 15.9482 9.77607 16.8438 9.9632 17.8463C10.1904 19.0626 10.4845 19.2497 12.0216 19.2096C13.2513 19.1695 13.2513 19.1695 13.2914 18.8086C13.3449 18.3809 13.1845 18.3275 11.8612 18.274L11.0058 18.2339L10.7785 17.2982C10.4711 16.0685 10.2439 15.4537 9.42855 13.7161C8.80033 12.4062 8.74686 12.1923 8.7335 11.3101C8.72013 9.09131 10.2974 7.28686 12.5162 6.97943C13.2914 6.85913 13.5186 6.60517 13.1845 6.20418C12.984 5.96359 12.6632 5.96359 11.7543 6.20418Z" fill="#89A884"/>
<path d="M14.2545 7.00616C14.0807 7.28685 13.8134 7.51408 13.6129 7.55418C12.9713 7.70121 12.6505 7.9819 12.6505 8.39626C12.6505 8.78388 12.998 9.21161 13.3188 9.21161C13.7733 9.21161 14.5753 9.5725 15.0564 9.98685C16.8074 11.4705 16.5401 14.1839 14.5485 15.2666C14.1475 15.4804 13.6797 15.6274 13.3589 15.6274C12.6906 15.6274 12.2495 15.9349 12.2495 16.4161C12.2495 16.9106 12.6238 17.2314 13.2386 17.2314C13.7198 17.2314 14.3881 17.6859 14.3881 18.02C14.3881 18.3542 14.9094 18.4477 15.4173 18.2072C15.9253 17.9666 15.9253 17.9666 15.9253 17.1378C15.9253 16.376 15.9654 16.269 16.3931 15.8279C16.9277 15.2666 17.2619 15.1596 17.7832 15.3468C18.2911 15.5472 18.6253 15.3334 18.8257 14.6784C18.9995 14.077 19.0396 14.1438 18.1173 13.4755C17.8901 13.3151 17.8099 13.1012 17.7564 12.5265C17.6896 11.7245 17.7965 11.5373 18.6787 10.9359C18.9728 10.7354 18.9861 10.6953 18.799 10.1606C18.5718 9.46557 18.3045 9.30517 17.7431 9.4923C17.2084 9.67943 16.6604 9.46557 16.1792 8.90418C15.8718 8.54329 15.8317 8.39626 15.8985 7.79477C15.9787 7.00616 15.9253 6.8725 15.4173 6.68537C14.8025 6.44477 14.5619 6.51161 14.2545 7.00616Z" fill="#89A884"/>
<path d="M12.022 10.1072C11.9284 10.1339 11.8482 10.3344 11.8482 10.5349C11.8482 11.0027 11.4606 11.3636 11.0864 11.27C10.672 11.1497 10.525 11.7111 10.8992 11.9651C11.2601 12.219 11.2601 12.6067 10.9126 12.9274C10.5517 13.2616 10.6854 13.6225 11.1933 13.6225C11.621 13.6225 11.9819 14.0369 11.8883 14.4245C11.7948 14.7987 12.3027 14.9057 12.6369 14.5715C12.9844 14.224 13.0646 14.224 13.4923 14.5581C13.92 14.8923 14.2542 14.7854 14.2542 14.3042C14.2542 13.8497 14.4814 13.6225 14.9359 13.6225C15.4171 13.6225 15.5374 13.2616 15.1898 12.8874C14.8557 12.5265 14.8557 12.3126 15.1898 11.9517C15.5374 11.5774 15.4171 11.1631 14.9893 11.27C14.6151 11.3636 14.174 10.9091 14.2275 10.4814C14.2809 10.0537 13.8799 9.93339 13.519 10.2809C13.1581 10.6151 12.8374 10.6151 12.5567 10.2809C12.3161 10.0002 12.2893 9.98686 12.022 10.1072ZM14.027 11.6175C14.8022 12.473 14.174 13.7562 12.971 13.7562C12.7572 13.7562 12.4497 13.5824 12.1557 13.2883C11.7413 12.874 11.6878 12.7537 11.7547 12.326C11.9552 11.123 13.2116 10.722 14.027 11.6175Z" fill="#89A884"/>
<path d="M4.04222 10.6284C3.86846 11.0695 4.21598 11.2166 5.36549 11.2166C6.51499 11.2166 6.88925 11.0562 6.71549 10.6151C6.60856 10.3076 4.16252 10.321 4.04222 10.6284Z" fill="#89A884"/>
<path d="M19.2533 10.6151C19.0796 11.0562 19.4538 11.2166 20.6033 11.2166C21.7529 11.2166 22.1004 11.0695 21.9266 10.6284C21.8063 10.321 19.3603 10.3076 19.2533 10.6151Z" fill="#89A884"/>
<path d="M10.3379 20.1185C10.1641 20.2923 10.2443 20.8136 10.4581 20.8938C10.7789 21.0141 15.3636 20.9874 15.5641 20.8537C15.671 20.8002 15.7245 20.5997 15.6978 20.426L15.6577 20.1052L13.0379 20.0651C11.6077 20.0517 10.3913 20.0784 10.3379 20.1185Z" fill="#89A884"/>
<path d="M11.541 21.7359C11.3672 21.8963 11.4474 22.4175 11.6613 22.4977C11.9286 22.6047 14.0405 22.6047 14.3078 22.4977C14.4281 22.4576 14.5217 22.2839 14.5217 22.1101C14.5217 21.9364 14.4281 21.7626 14.3078 21.7225C14.0271 21.6156 11.6479 21.6156 11.541 21.7359Z" fill="#89A884"/>
</svg>
