<svg width="25" height="26" viewBox="0 0 25 26" fill="none" xmlns="http://www.w3.org/2000/svg">
<mask id="mask0_2795_4587" style="mask-type:luminance" maskUnits="userSpaceOnUse" x="0" y="0" width="25" height="26">
<path d="M0 0.577944H25V25.5779H0V0.577944Z" fill="white"/>
</mask>
<g mask="url(#mask0_2795_4587)">
<path d="M11.4912 11.8921C11.5546 12.6595 11.7631 13.3857 12.0893 14.0435" stroke="#89A884" stroke-miterlimit="10" stroke-linecap="round" stroke-linejoin="round"/>
<path d="M17.4566 17.3654C20.7475 17.3572 23.4129 14.6871 23.4129 11.394C23.4129 8.09629 20.7393 5.42315 17.4415 5.42315C14.4491 5.42315 10.5313 7.92656 11.5019 12.1323" stroke="#89A884" stroke-miterlimit="10" stroke-linecap="round" stroke-linejoin="round"/>
<path d="M14.3662 8.32621L17.4421 11.3943L20.346 10.3113" stroke="#89A884" stroke-miterlimit="10" stroke-linecap="round" stroke-linejoin="round"/>
<path d="M17.7821 7.05221C17.7821 7.23998 17.6298 7.3922 17.4421 7.3922C17.2543 7.3922 17.1021 7.23998 17.1021 7.05221C17.1021 6.86443 17.2543 6.71221 17.4421 6.71221C17.6298 6.71221 17.7821 6.86443 17.7821 7.05221Z" fill="#89A884"/>
<path d="M21.7917 11.7421C21.6039 11.7421 21.4517 11.5898 21.4517 11.4021C21.4517 11.2143 21.6039 11.0621 21.7917 11.0621C21.9794 11.0621 22.1316 11.2143 22.1316 11.4021C22.1316 11.5898 21.9794 11.7421 21.7917 11.7421Z" fill="#89A884"/>
<path d="M13.0915 11.7421C12.9037 11.7421 12.7515 11.5898 12.7515 11.4021C12.7515 11.2143 12.9037 11.0621 13.0915 11.0621C13.2792 11.0621 13.4315 11.2143 13.4315 11.4021C13.4315 11.5898 13.2792 11.7421 13.0915 11.7421Z" fill="#89A884"/>
<path d="M20.7577 8.56665C20.6249 8.69942 20.4096 8.69942 20.2769 8.56665C20.144 8.43388 20.144 8.21863 20.2769 8.08585C20.4096 7.95304 20.6249 7.95304 20.7577 8.08585C20.8904 8.21863 20.8904 8.43388 20.7577 8.56665Z" fill="#89A884"/>
<path d="M20.2768 14.7183C20.1441 14.5855 20.1441 14.3703 20.2768 14.2375C20.4096 14.1047 20.6249 14.1047 20.7576 14.2375C20.8904 14.3703 20.8904 14.5855 20.7576 14.7183C20.6249 14.8511 20.4096 14.8511 20.2768 14.7183Z" fill="#89A884"/>
<path d="M14.1255 8.56665C13.9927 8.43388 13.9927 8.21863 14.1255 8.08585C14.2582 7.95304 14.4735 7.95304 14.6063 8.08585C14.7391 8.21863 14.7391 8.43388 14.6063 8.56665C14.4735 8.69942 14.2582 8.69942 14.1255 8.56665Z" fill="#89A884"/>
<path d="M2 20.5778H18.2255" stroke="#89A884" stroke-miterlimit="10" stroke-linecap="round" stroke-linejoin="round"/>
<path d="M10.7188 20.5777H9.53729H5.77794H5.01744H3.67676V19.2487" stroke="#89A884" stroke-miterlimit="10" stroke-linecap="round" stroke-linejoin="round"/>
<path d="M2.68359 17.8282V15.6895V15.5563C2.68359 14.3161 3.68911 13.311 4.92885 13.311H8.47381C9.71355 13.311 10.7186 14.3161 10.7186 15.5563V16.0441" stroke="#89A884" stroke-miterlimit="10" stroke-linecap="round" stroke-linejoin="round"/>
<path d="M8.51873 10.1945C8.51873 11.1978 7.70535 12.0112 6.70199 12.0112C5.69864 12.0112 4.88525 11.1978 4.88525 10.1945C4.88525 9.19116 5.69864 8.37778 6.70199 8.37778C7.70535 8.37778 8.51873 9.19116 8.51873 10.1945Z" stroke="#89A884" stroke-miterlimit="10" stroke-linecap="round" stroke-linejoin="round"/>
<path d="M4.38481 15.7907V17.6582H6.5972C7.49832 17.6582 8.22879 18.3886 8.22879 19.2897V19.3096H4.08622C3.31158 19.3096 2.68359 18.6817 2.68359 17.9071V15.6894" stroke="#89A884" stroke-miterlimit="10" stroke-linecap="round" stroke-linejoin="round"/>
<path d="M9.0249 15.6895V17.9072C9.0249 18.3843 9.26345 18.8057 9.62752 19.0589" stroke="#89A884" stroke-miterlimit="10" stroke-linecap="round" stroke-linejoin="round"/>
<path d="M10.7266 16.0226V15.7898" stroke="#89A884" stroke-miterlimit="10" stroke-linecap="round" stroke-linejoin="round"/>
<path d="M12.4994 19.3095H14.5706H16.7533V19.6054C16.7533 20.1425 16.3176 20.5777 15.7806 20.5777H10.7189H9.53742H5.77808H5.01758" stroke="#89A884" stroke-miterlimit="10" stroke-linecap="round" stroke-linejoin="round"/>
<path d="M5.01758 19.8177V19.3095H8.22909H9.53742H10.4282" stroke="#89A884" stroke-miterlimit="10" stroke-linecap="round" stroke-linejoin="round"/>
<path d="M9.53778 19.3096H5.01807V19.8175C5.01807 20.2375 5.35854 20.5779 5.77852 20.5779H9.53778V19.3096Z" stroke="#89A884" stroke-miterlimit="10" stroke-linecap="round" stroke-linejoin="round"/>
<path d="M16.7537 19.3096L18.6591 14.0435H11.4434L9.53809 19.3096H13.3629" stroke="#89A884" stroke-miterlimit="10" stroke-linecap="round" stroke-linejoin="round"/>
</g>
</svg>
