<svg width="17" height="23" viewBox="0 0 17 23" fill="none" xmlns="http://www.w3.org/2000/svg">
<path d="M2.73894 2.54773C4.26616 1.0177 6.33796 0.155994 8.4998 0.151691C10.6604 0.156994 12.7309 1.01879 14.2573 2.54817C15.7837 4.07755 16.6413 6.14972 16.6423 8.31044C16.6423 12.4742 12.6598 17.8804 10.5173 20.7854C10.462 20.861 10.408 20.9346 10.3555 21.0062C10.178 21.2485 10.0175 21.4674 9.87855 21.6604C9.74521 21.848 9.56928 22.0014 9.36521 22.1078C9.16125 22.2143 8.9349 22.2709 8.7048 22.2729H8.6848C8.45813 22.2737 8.23448 22.2215 8.03157 22.1206C7.82875 22.0197 7.65219 21.8728 7.51605 21.6917C7.41667 21.5598 7.30553 21.4155 7.18532 21.2594C7.14365 21.2053 7.10094 21.1498 7.0573 21.0929L7.05042 21.0841C4.8728 18.2456 0.353516 12.3549 0.353516 8.31294C0.353839 6.15114 1.21172 4.07776 2.73894 2.54773ZM9.10355 20.1829L9.3098 19.9017V19.8967C11.2048 17.3279 15.146 11.9842 15.151 8.31794C15.151 6.55525 14.4507 4.86475 13.2044 3.61834C11.9579 2.37192 10.2675 1.67169 8.5048 1.67169C6.74209 1.67169 5.05157 2.37192 3.80515 3.61834C2.55873 4.86475 1.85852 6.55525 1.85852 8.31794C1.85852 11.8515 6.33278 17.6826 8.24782 20.1784L8.2523 20.1842V20.1904C8.3025 20.256 8.36719 20.309 8.44136 20.3452C8.51563 20.3815 8.59719 20.3999 8.6798 20.3992C8.7623 20.3985 8.84355 20.3786 8.91709 20.3411C8.99063 20.3035 9.05448 20.2494 9.10355 20.1829ZM6.83136 5.07103C7.4724 4.69711 8.21271 4.52891 8.9523 4.58916C9.80917 4.65895 10.6133 5.03101 11.2213 5.63893C11.8292 6.24684 12.2013 7.05102 12.271 7.90791C12.3313 8.64752 12.1631 9.38784 11.7892 10.0288C11.4152 10.6697 10.8537 11.1805 10.1801 11.4921C9.50667 11.8038 8.75375 11.9012 8.02313 11.7712C7.29261 11.6412 6.61948 11.2901 6.09473 10.7654C5.57002 10.2408 5.21897 9.56763 5.08903 8.83701C4.95907 8.10642 5.05646 7.35353 5.36806 6.68006C5.67965 6.00658 6.19043 5.44495 6.83136 5.07103ZM7.65584 10.0774C8.0474 10.2868 8.49459 10.3683 8.9348 10.3104C9.39875 10.2494 9.82959 10.037 10.1605 9.70617C10.4914 9.37523 10.7039 8.94437 10.7648 8.48041C10.8226 8.04023 10.7411 7.59298 10.5318 7.20148C10.3225 6.80997 9.99573 6.49388 9.5975 6.29756C9.19938 6.10124 8.74969 6.03458 8.31167 6.10692C7.87365 6.17927 7.46928 6.38699 7.15532 6.70092C6.84136 7.01485 6.63365 7.41922 6.56125 7.85724C6.48896 8.29527 6.55563 8.74496 6.75198 9.14315C6.94823 9.54138 7.26438 9.86804 7.65584 10.0774Z" fill="#89A884"/>
</svg>
