<svg width="20" height="26" viewBox="0 0 20 26" fill="none" xmlns="http://www.w3.org/2000/svg">
<path d="M10.087 12.0997C11.5325 12.0997 12.7841 11.5812 13.8068 10.5584C14.8295 9.53566 15.3479 8.28431 15.3479 6.83864C15.3479 5.39348 14.8295 4.14197 13.8066 3.11892C12.7838 2.09638 11.5323 1.57794 10.087 1.57794C8.64143 1.57794 7.39012 2.09638 6.36744 3.11909C5.34476 4.1418 4.82617 5.39332 4.82617 6.83864C4.82617 8.28431 5.34476 9.53582 6.3676 10.5585C7.39045 11.5811 8.64193 12.0997 10.087 12.0997Z" stroke="#89A884" stroke-width="1.5"/>
<path d="M19.1299 19.4478C19.1005 19.0151 19.041 18.5432 18.9534 18.0449C18.865 17.5428 18.7511 17.0681 18.6148 16.6343C18.4741 16.1859 18.2826 15.7431 18.046 15.3188C17.8003 14.8783 17.5118 14.4948 17.1881 14.1792C16.8495 13.8491 16.435 13.5836 15.9557 13.39C15.4781 13.1974 14.9488 13.0998 14.3826 13.0998C14.1602 13.0998 13.9451 13.1928 13.5298 13.4685C13.2742 13.6384 12.9752 13.8349 12.6415 14.0522C12.3562 14.2375 11.9696 14.4111 11.4921 14.5683C11.0263 14.722 10.5533 14.7999 10.0865 14.7999C9.61962 14.7999 9.1468 14.722 8.68046 14.5683C8.20349 14.4113 7.81692 14.2377 7.5319 14.0524C7.20134 13.8371 6.90219 13.6406 6.64276 13.4683C6.22795 13.1927 6.01273 13.0997 5.79036 13.0997C5.22397 13.0997 4.69481 13.1974 4.21734 13.3902C3.73837 13.5835 3.32372 13.8489 2.98485 14.1794C2.66127 14.4952 2.37259 14.8785 2.12729 15.3188C1.8908 15.7431 1.69934 16.1857 1.55841 16.6345C1.4223 17.0683 1.30845 17.5428 1.22004 18.0449C1.13246 18.5425 1.07296 19.0146 1.04354 19.4483C1.01463 19.8731 1 20.3141 1 20.7594C1 21.9184 1.36147 22.8567 2.07427 23.5487C2.77827 24.2315 3.70978 24.5779 4.84256 24.5779H15.3314C16.4641 24.5779 17.3953 24.2317 18.0995 23.5487C18.8124 22.8572 19.1739 21.9188 19.1739 20.7592C19.1737 20.3119 19.159 19.8706 19.1299 19.4478Z" stroke="#89A884" stroke-width="1.5"/>
</svg>
