<svg width="20" height="20" viewBox="0 0 20 20" fill="none" xmlns="http://www.w3.org/2000/svg">
<path d="M5.11051 17.5C4.12884 17.5 3.33301 16.6834 3.33301 15.675V8.34005C3.33301 7.78588 3.57884 7.26088 3.99967 6.91505L8.88884 2.90005C9.20122 2.64137 9.59409 2.49982 9.99967 2.49982C10.4053 2.49982 10.7981 2.64137 11.1105 2.90005L15.9988 6.91505C16.4205 7.26088 16.6663 7.78588 16.6663 8.34005V15.675C16.6663 16.6834 15.8705 17.5 14.8888 17.5H5.11051Z" stroke="black" stroke-width="1.25" stroke-linecap="round" stroke-linejoin="round"/>
<path d="M7.91602 17.5001V12.9167C7.91602 12.4747 8.09161 12.0508 8.40417 11.7382C8.71673 11.4257 9.14065 11.2501 9.58268 11.2501H10.416C10.858 11.2501 11.282 11.4257 11.5945 11.7382C11.9071 12.0508 12.0827 12.4747 12.0827 12.9167V17.5001" stroke="black" stroke-width="1.25" stroke-linecap="round" stroke-linejoin="round"/>
</svg>
