<svg width="26" height="26" viewBox="0 0 26 26" fill="none" xmlns="http://www.w3.org/2000/svg">
<circle cx="12.6" cy="12.6" r="12.1" stroke="#D4D4D8"/>
<path d="M12.6007 7.60249C14.2285 7.60249 14.4213 7.60858 15.0644 7.63791C15.451 7.64264 15.834 7.71363 16.1966 7.84781C16.4596 7.94923 16.6984 8.1046 16.8977 8.30391C17.0971 8.50321 17.2524 8.74205 17.3538 9.00503C17.488 9.36768 17.559 9.75065 17.5637 10.1373C17.5928 10.7804 17.5992 10.9731 17.5992 12.601C17.5992 14.2288 17.5931 14.4216 17.5637 15.0646C17.559 15.4513 17.488 15.8343 17.3538 16.1969C17.2524 16.4599 17.0971 16.6987 16.8977 16.898C16.6984 17.0973 16.4596 17.2527 16.1966 17.3541C15.834 17.4883 15.451 17.5593 15.0644 17.564C14.4216 17.5931 14.2288 17.5995 12.6007 17.5995C10.9726 17.5995 10.7798 17.5934 10.137 17.564C9.75036 17.5593 9.36739 17.4883 9.00475 17.3541C8.74176 17.2527 8.50292 17.0973 8.30362 16.898C8.10431 16.6987 7.94894 16.4599 7.84752 16.1969C7.71334 15.8343 7.64235 15.4513 7.63762 15.0646C7.60858 14.4216 7.6022 14.2288 7.6022 12.601C7.6022 10.9731 7.60829 10.7804 7.63762 10.1373C7.64235 9.75065 7.71334 9.36768 7.84752 9.00503C7.94894 8.74205 8.10431 8.50321 8.30362 8.30391C8.50292 8.1046 8.74176 7.94923 9.00475 7.84781C9.36739 7.71363 9.75036 7.64264 10.137 7.63791C10.7801 7.60887 10.9728 7.60249 12.6007 7.60249ZM12.6007 6.50391C10.9458 6.50391 10.7374 6.51087 10.0871 6.54049C9.58105 6.55055 9.0804 6.64636 8.60642 6.82384C8.19982 6.97703 7.83155 7.2171 7.52729 7.52729C7.21682 7.83166 6.97655 8.20014 6.82326 8.607C6.64578 9.08098 6.54997 9.58163 6.53991 10.0876C6.51087 10.7374 6.50391 10.9458 6.50391 12.6007C6.50391 14.2555 6.51087 14.464 6.54049 15.1143C6.55055 15.6203 6.64636 16.121 6.82384 16.5949C6.97696 17.0017 7.21703 17.3702 7.52729 17.6746C7.83172 17.9849 8.2002 18.225 8.607 18.3781C9.08098 18.5556 9.58163 18.6514 10.0876 18.6615C10.738 18.6905 10.9456 18.698 12.6013 18.698C14.257 18.698 14.4646 18.6911 15.1149 18.6615C15.6209 18.6514 16.1215 18.5556 16.5955 18.3781C17.0004 18.2212 17.3681 17.9815 17.675 17.6743C17.982 17.3672 18.2214 16.9993 18.3781 16.5944C18.5556 16.1204 18.6514 15.6197 18.6615 15.1137C18.6905 14.464 18.6975 14.2555 18.6975 12.6007C18.6975 10.9458 18.6905 10.7374 18.6609 10.0871C18.6508 9.58105 18.555 9.0804 18.3775 8.60642C18.2244 8.19962 17.9843 7.83114 17.6741 7.52671C17.3696 7.21645 17.0012 6.97638 16.5944 6.82326C16.1204 6.64578 15.6197 6.54997 15.1137 6.53991C14.464 6.51087 14.2555 6.50391 12.6007 6.50391Z" fill="#090914"/>
<path d="M12.6025 9.4707C11.9833 9.4707 11.378 9.65432 10.8631 9.99834C10.3483 10.3424 9.94697 10.8313 9.71 11.4034C9.47304 11.9755 9.41104 12.605 9.53184 13.2123C9.65264 13.8197 9.95083 14.3775 10.3887 14.8154C10.8265 15.2532 11.3844 15.5514 11.9917 15.6722C12.599 15.793 13.2286 15.731 13.8006 15.4941C14.3727 15.2571 14.8617 14.8558 15.2057 14.3409C15.5497 13.8261 15.7334 13.2208 15.7334 12.6015C15.7334 11.7712 15.4035 10.9749 14.8164 10.3877C14.2292 9.80056 13.4329 9.4707 12.6025 9.4707ZM12.6025 14.6338C12.2006 14.6338 11.8077 14.5146 11.4735 14.2913C11.1393 14.068 10.8788 13.7506 10.725 13.3793C10.5711 13.0079 10.5309 12.5993 10.6093 12.2051C10.6877 11.8108 10.8813 11.4487 11.1655 11.1645C11.4497 10.8803 11.8118 10.6867 12.206 10.6083C12.6003 10.5299 13.0089 10.5702 13.3802 10.724C13.7516 10.8778 14.069 11.1383 14.2923 11.4725C14.5156 11.8067 14.6348 12.1996 14.6348 12.6015C14.6348 13.1405 14.4207 13.6574 14.0395 14.0386C13.6584 14.4197 13.1415 14.6338 12.6025 14.6338Z" fill="#090914"/>
<path d="M15.8556 10.0785C16.2597 10.0785 16.5872 9.75091 16.5872 9.34685C16.5872 8.94279 16.2597 8.61523 15.8556 8.61523C15.4516 8.61523 15.124 8.94279 15.124 9.34685C15.124 9.75091 15.4516 10.0785 15.8556 10.0785Z" fill="#090914"/>
</svg>
