        <svg 
          width="26" 
          height="26" 
          viewBox="0 0 26 26" 
          fill="none" 
          xmlns="http://www.w3.org/2000/svg"
        >
          <circle cx="13" cy="13" r="12.1" stroke="#D4D4D8"/>
          <path 
            d="M9.389 10.389H7.278V18H9.389V10.389ZM8.333 9.389C9.011 9.389 9.556 8.844 9.556 8.167C9.556 7.489 9.011 6.944 8.333 6.944C7.656 6.944 7.111 7.489 7.111 8.167C7.111 8.844 7.656 9.389 8.333 9.389ZM18 18H15.889V14.222C15.889 13.278 15.833 12.167 14.611 12.167C13.389 12.167 13.222 13.111 13.222 14.167V18H11.111V10.389H13.167V11.389H13.194C13.472 10.861 14.139 10.278 15.139 10.278C17.194 10.278 18 11.583 18 13.75V18Z" 
            fill="#090914"
          />
        </svg>