<svg width="26" height="26" viewBox="0 0 26 26" fill="none" xmlns="http://www.w3.org/2000/svg">
<path d="M6.5013 7.58203H11.918C12.2053 7.58203 12.4808 7.69617 12.684 7.89933C12.8872 8.1025 13.0013 8.37805 13.0013 8.66536C13.0013 8.95268 12.8872 9.22823 12.684 9.4314C12.4808 9.63456 12.2053 9.7487 11.918 9.7487H6.5013C6.21398 9.7487 5.93843 9.63456 5.73527 9.4314C5.53211 9.22823 5.41797 8.95268 5.41797 8.66536C5.41797 8.37805 5.53211 8.1025 5.73527 7.89933C5.93843 7.69617 6.21398 7.58203 6.5013 7.58203ZM14.0846 16.2487H19.5013C19.7886 16.2487 20.0642 16.3628 20.2673 16.566C20.4705 16.7692 20.5846 17.0447 20.5846 17.332C20.5846 17.6193 20.4705 17.8949 20.2673 18.0981C20.0642 18.3012 19.7886 18.4154 19.5013 18.4154H14.0846C13.7973 18.4154 13.5218 18.3012 13.3186 18.0981C13.1154 17.8949 13.0013 17.6193 13.0013 17.332C13.0013 17.0447 13.1154 16.7692 13.3186 16.566C13.5218 16.3628 13.7973 16.2487 14.0846 16.2487ZM6.5013 11.9154H19.5013C19.7886 11.9154 20.0642 12.0295 20.2673 12.2327C20.4705 12.4358 20.5846 12.7114 20.5846 12.9987C20.5846 13.286 20.4705 13.5616 20.2673 13.7647C20.0642 13.9679 19.7886 14.082 19.5013 14.082H6.5013C6.21398 14.082 5.93843 13.9679 5.73527 13.7647C5.53211 13.5616 5.41797 13.286 5.41797 12.9987C5.41797 12.7114 5.53211 12.4358 5.73527 12.2327C5.93843 12.0295 6.21398 11.9154 6.5013 11.9154Z" fill="black"/>
</svg>


