<svg width="20" height="20" viewBox="0 0 20 20" fill="none" xmlns="http://www.w3.org/2000/svg">
<path d="M9.20658 2.87207C8.88158 2.22249 8.20241 1.69707 7.36824 1.78999C6.62199 1.87291 5.51408 2.15041 4.75866 3.06041C3.98324 3.99499 3.69408 5.45249 4.28949 7.63624C4.92533 9.96582 5.86949 12.2625 7.04324 14.1154C8.20824 15.955 9.64324 17.4275 11.2895 17.9921C12.7453 18.4912 13.8587 18.2829 14.6707 17.7346C15.4541 17.2058 15.8841 16.4104 16.1066 15.8596C16.3557 15.2429 16.1916 14.6008 15.8666 14.1275L14.6678 12.3842C14.403 11.9989 14.0218 11.7087 13.5799 11.5559C13.1381 11.4032 12.659 11.396 12.2128 11.5354L10.5562 12.0533C10.5038 12.0711 10.4474 12.0733 10.3939 12.0594C10.3404 12.0456 10.292 12.0164 10.2549 11.9754C9.51741 11.1117 8.69116 9.90707 8.46658 8.6879C8.45939 8.65535 8.46428 8.62129 8.48033 8.59207C8.72408 8.18249 9.14366 7.71832 9.56074 7.31207C10.2678 6.62374 10.5357 5.52957 10.0691 4.59707L9.20658 2.87207Z" fill="black"/>
</svg>
