<svg width="26" height="26" viewBox="0 0 26 26" fill="none" xmlns="http://www.w3.org/2000/svg">
<circle cx="12.6" cy="12.6" r="12.1" stroke="#D4D4D8"/>
<path d="M18.1864 9.88421C17.8093 10.0518 17.4112 10.1566 16.9922 10.2194C17.4112 9.96801 17.7464 9.56994 17.8931 9.08806C17.495 9.31853 17.0551 9.48614 16.5732 9.59089C16.1961 9.19282 15.6513 8.94141 15.0647 8.94141C13.9333 8.94141 13.0115 9.86326 13.0115 10.9946C13.0115 11.1622 13.0324 11.3089 13.0743 11.4555C11.3773 11.3717 9.84787 10.5546 8.82127 9.29758C8.65366 9.61184 8.54891 9.94706 8.54891 10.3242C8.54891 11.0365 8.90507 11.6651 9.47075 12.0422C9.13554 12.0212 8.82127 11.9374 8.52795 11.7908V11.8117C8.52795 12.8174 9.24029 13.6554 10.1831 13.844C10.0155 13.8859 9.82692 13.9068 9.63836 13.9068C9.51266 13.9068 9.366 13.8859 9.24029 13.8649C9.51266 14.682 10.2669 15.2896 11.1678 15.2896C10.4555 15.8343 9.57551 16.1695 8.61176 16.1695C8.44415 16.1695 8.27654 16.1695 8.12988 16.1486C9.05173 16.7352 10.1202 17.0704 11.2935 17.0704C15.0857 17.0704 17.1598 13.9278 17.1598 11.2041C17.1598 11.1203 17.1598 11.0156 17.1598 10.9318C17.5579 10.6594 17.9141 10.3032 18.1864 9.88421Z" fill="#090914"/>
</svg>
