<svg width="256" height="197" viewBox="0 0 256 197" fill="none" xmlns="http://www.w3.org/2000/svg">
<path d="M188.769 114.712C189.028 113.858 188.881 113.171 188.31 112.575C186.173 110.342 174.806 111.906 168.365 115.344C165.198 117.035 159.272 121.404 155.928 124.501C151.296 128.791 147.062 135.402 145.167 141.279C143.973 144.983 143.615 152.395 144.637 152.395C145.445 152.395 157.366 143.814 163.921 138.523C175.078 129.516 188.046 117.09 188.769 114.712ZM82.8424 2.79843C82.8424 2.09412 85.9146 0.899498 89.6462 0.151638C90.3659 0.00747099 93.0741 -0.0428378 95.665 0.0397575C99.1749 0.151638 100.909 0.476015 102.469 1.31248C109.856 5.27478 110.471 14.2423 104.174 26.178C99.8787 34.3181 83.384 54.984 71.5656 67.0279C67.5478 71.1223 63.9345 74.6857 63.6608 74.802C63.3872 74.9184 59.0651 79.6567 54.038 85.379C26.9835 116.175 14.6162 132.95 7.67767 148.257C4.1787 155.975 3.05645 160.809 3.04139 168.217C3.02967 174.051 3.13679 174.738 4.53186 177.706C8.28274 185.687 17.7662 191.621 30.0766 193.689C34.0685 194.359 46.82 194.048 52.5417 193.139C69.6826 190.418 88.8703 183.429 112.819 171.057C122.627 165.989 140.338 155.884 141.563 154.661C141.772 154.452 141.75 153.01 141.515 151.455C139.959 141.165 146.776 127.949 158.39 118.816C166.925 112.104 174.657 109.022 183.113 108.961C187.203 108.932 188.132 109.097 189.394 110.076C193.252 113.07 192.241 115.855 184.45 123.692C174.767 133.434 162.912 143.307 150.894 151.642C147.944 153.688 145.633 155.58 145.633 155.927C145.633 156.273 146.306 157.665 147.127 159.02C152.182 167.348 164.958 171.741 178.074 169.662C193.623 167.196 208.357 160.918 238.578 143.898C246.35 139.521 253.25 135.792 253.912 135.612C255.294 135.236 255.835 135.599 255.45 136.646C255.169 137.41 237.801 147.648 224.786 154.715C206.075 164.875 190.046 170.884 176.784 172.677C163.286 174.502 150.311 169.372 144.502 159.915C143.624 158.486 142.787 157.317 142.642 157.317C142.496 157.317 140.459 158.512 138.117 159.972C108.33 178.537 74.3682 192.768 52.7484 195.79C36.1105 198.117 26.3986 197.11 16.1125 191.994C5.08671 186.51 0.144126 179.089 0.153333 168.032C0.165056 153.765 9.13551 135.727 28.0213 112.002C38.0094 99.4554 60.4924 73.5061 62.6515 72.0223C64.5998 70.6836 77.556 56.8267 82.722 50.5607C90.1928 41.4985 99.7657 28.74 101.547 25.482C104.394 20.274 105.582 16.323 105.596 12.0153C105.611 7.62948 104.75 5.82591 101.776 4.00507C99.3406 2.5146 93.3611 2.21051 88.1591 3.31202C83.7563 4.24384 82.8424 4.15599 82.8424 2.79843Z" fill="#89A884"/>
</svg>
