<svg width="86" height="72" viewBox="0 0 86 72" fill="none" xmlns="http://www.w3.org/2000/svg">
<path d="M44.9443 3.40002C54.1058 3.40006 61.1627 5.97957 66.5459 10.0729C71.9042 14.1473 75.4803 19.6262 77.8701 25.2477C82.6285 36.4408 82.832 48.5559 82.832 52.4811C82.832 55.1657 81.4329 57.5096 79.3672 59.4215C77.3036 61.3314 74.427 62.9596 71.042 64.2858C64.2596 66.9428 55.0295 68.5436 44.9443 68.5436C34.8589 68.5436 25.6282 66.943 18.8457 64.2858C15.4609 62.9597 12.585 61.3313 10.5215 59.4215C8.45577 57.5096 7.05664 55.1657 7.05664 52.4811C7.05665 48.5559 7.26009 36.4409 12.0186 25.2477C14.4084 19.6263 17.9836 14.1473 23.3418 10.0729C28.725 5.97946 35.7827 3.40002 44.9443 3.40002Z" fill="#FCC21B" stroke="white" stroke-width="4"/>
<path d="M37.8564 31.275C37.0127 30.6 35.8877 30.15 34.5939 29.8687V25.875C35.0439 26.0437 35.3814 26.2687 35.7189 26.6062C35.9439 26.8875 36.1689 27.1687 36.3377 27.5062C36.5064 27.9 36.9002 28.1812 37.3502 28.1812H37.4627C38.3627 28.1812 38.9252 27.225 38.5314 26.4375C38.3064 25.9875 38.0252 25.5375 37.5752 25.2C36.7877 24.4125 35.7752 23.9625 34.5939 23.7937V23.3437C34.5939 22.7812 34.1439 22.3312 33.5814 22.3312C33.0189 22.3312 32.5689 22.7812 32.5689 23.3437V23.7937C31.3877 23.9062 30.3752 24.3 29.5314 24.975C28.6314 25.7062 28.1814 26.6062 28.1814 27.5625C28.1814 28.4625 28.6314 29.3062 29.5314 30.0937C30.3189 30.825 31.3877 31.3312 32.6252 31.6125V35.9437C32.0064 35.8312 31.4439 35.4937 30.9939 34.9875C30.7127 34.65 30.4877 34.2562 30.3752 33.8625C30.2064 33.3562 29.7564 32.9625 29.2502 32.9625C28.4627 32.9625 27.9002 33.75 28.1252 34.4812C28.3502 35.1562 28.7439 35.8312 29.3627 36.3937C30.2627 37.2937 31.3877 37.8 32.6814 37.9687V38.3625C32.6814 38.925 33.1314 39.375 33.6939 39.375C34.2564 39.375 34.7064 38.925 34.7064 38.3625V37.9687C35.9439 37.8 37.0689 37.35 37.9689 36.6187C38.9252 35.775 39.3752 34.7625 39.3752 33.6375C39.2627 32.7937 38.8127 32.0062 37.8564 31.275ZM36.9002 33.75C36.9002 34.2562 36.6752 34.7062 36.1689 35.1562C35.7189 35.55 35.2127 35.775 34.5939 35.8875V31.95C35.2127 32.1187 35.7752 32.3437 36.1689 32.6812C36.6752 33.0187 36.9002 33.4125 36.9002 33.75ZM30.6002 27.5062C30.6002 27.1125 30.8252 26.7187 31.2189 26.3812C31.6127 26.1 32.0627 25.875 32.6252 25.7625V29.4187C32.0627 29.25 31.6127 28.9687 31.2189 28.6312C30.7689 28.2937 30.6002 27.9 30.6002 27.5062ZM60.5252 31.275C59.6814 30.6 58.5564 30.15 57.2627 29.8687V25.875C57.7127 26.0437 58.0502 26.2687 58.3877 26.6062C58.6127 26.8875 58.8377 27.1687 59.0064 27.5062C59.1752 27.9 59.5689 28.1812 60.0189 28.1812H60.1314C61.0314 28.1812 61.5939 27.225 61.2002 26.4375C60.9752 25.9875 60.6939 25.5375 60.2439 25.2C59.4564 24.4125 58.4439 23.9625 57.2627 23.7937V23.3437C57.2627 22.7812 56.8127 22.3312 56.2502 22.3312C55.6877 22.3312 55.2377 22.7812 55.2377 23.3437V23.7937C54.0564 23.9062 53.0439 24.3 52.2002 24.975C51.3002 25.7062 50.8502 26.6062 50.8502 27.5625C50.8502 28.4625 51.3002 29.3062 52.2002 30.0937C52.9877 30.825 54.0564 31.3312 55.2939 31.6125V35.9437C54.6752 35.8312 54.1127 35.4937 53.6627 34.9875C53.3814 34.65 53.1564 34.2562 53.0439 33.8625C52.8752 33.3562 52.4252 32.9625 51.9189 32.9625C51.1314 32.9625 50.5689 33.75 50.7939 34.4812C51.0189 35.1562 51.4127 35.8312 52.0314 36.3937C52.9314 37.2937 54.0564 37.8 55.3502 37.9687V38.3625C55.3502 38.925 55.8002 39.375 56.3627 39.375C56.9252 39.375 57.3752 38.925 57.3752 38.3625V37.9687C58.6127 37.8 59.7377 37.35 60.6377 36.6187C61.5939 35.775 62.0439 34.7625 62.0439 33.6375C61.9877 32.7937 61.4814 32.0062 60.5252 31.275ZM59.6252 33.75C59.6252 34.2562 59.4002 34.7062 58.8939 35.1562C58.4439 35.55 57.9377 35.775 57.3189 35.8875V31.95C57.9377 32.1187 58.5002 32.3437 58.8939 32.6812C59.3439 33.0187 59.6252 33.4125 59.6252 33.75ZM53.2689 27.5062C53.2689 27.1125 53.4939 26.7187 53.8877 26.3812C54.2814 26.1 54.7314 25.875 55.2939 25.7625V29.4187C54.7314 29.25 54.2814 28.9687 53.8877 28.6312C53.4939 28.2937 53.2689 27.9 53.2689 27.5062Z" fill="#2F2F2F"/>
<path d="M45.0004 46.8H32.6816C35.4941 50.85 32.5691 62.55 39.5441 66.8812C40.8379 67.6687 43.1441 68.1187 44.9441 68.1187M45.0004 68.175C46.8004 68.175 49.1066 67.725 50.4004 66.9375C57.4316 62.6062 54.4504 50.9062 57.2629 46.8562H45.0004" fill="#7CB342"/>
<path d="M28.4062 45.9L28.9125 46.0688C39.6 49.275 50.9625 49.2188 61.5938 45.9" stroke="#2F2F2F" stroke-width="0.75" stroke-miterlimit="10" stroke-linecap="round" stroke-linejoin="round"/>
<path d="M48.7121 58.95C47.9246 58.3875 46.9684 57.9375 45.8434 57.7125V54.1687C46.2371 54.2812 46.5746 54.5062 46.8559 54.8437C47.0809 55.0687 47.2496 55.35 47.3621 55.6312C47.5309 55.9687 47.8684 56.25 48.2621 56.25H48.3746C49.1621 56.25 49.6684 55.4062 49.3309 54.675C49.1621 54.2812 48.8809 53.8875 48.4871 53.55C47.7559 52.875 46.8559 52.425 45.8434 52.3125V51.9187C45.8434 51.4125 45.4496 51.0187 44.9434 51.0187C44.4371 51.0187 44.0434 51.4125 44.0434 51.9187V52.3125C42.9746 52.425 42.0746 52.7625 41.3434 53.3812C40.5559 54.0562 40.1059 54.7875 40.1059 55.6875C40.1059 56.5312 40.4996 57.2625 41.2871 57.9375C42.0184 58.5562 42.9184 59.0062 44.0434 59.2875V63.1125C43.4809 63 42.9746 62.7187 42.5809 62.2687C42.2996 61.9875 42.1309 61.65 42.0184 61.3125C41.9059 60.8625 41.5121 60.525 41.0059 60.525C40.2746 60.525 39.7684 61.2 39.9934 61.875C40.2184 62.4937 40.5559 63.0562 41.0621 63.5625C41.8496 64.35 42.8621 64.8562 43.9871 64.9687V65.3062C43.9871 65.8125 44.3809 66.2062 44.8871 66.2062C45.3934 66.2062 45.7871 65.8125 45.7871 65.3062V64.9687C46.9121 64.8562 47.8684 64.4625 48.6559 63.7312C49.4996 63 49.9496 62.1 49.9496 61.0875C50.0059 60.3 49.5559 59.5687 48.7121 58.95ZM47.8684 61.1437C47.8684 61.5937 47.6434 61.9875 47.2496 62.3812C46.8559 62.7187 46.4059 62.9437 45.8434 63.0562V59.5687C46.4059 59.7375 46.9121 59.9625 47.2496 60.2437C47.6996 60.525 47.8684 60.8625 47.8684 61.1437ZM42.2434 55.575C42.2434 55.1812 42.4121 54.9 42.8059 54.6187C43.1434 54.3375 43.5371 54.1687 44.0434 54.0562V57.3187C43.5371 57.15 43.1434 56.925 42.8059 56.6437C42.4684 56.3062 42.2434 55.9687 42.2434 55.575Z" fill="#2F2F2F"/>
</svg>
